<?xml version="1.0" encoding="utf-8"?>
<!-- Svg Vector Icons : http://www.onlinewebfonts.com/icon -->
<!DOCTYPE svg PUBLIC "-//W3C//DTD SVG 1.1//EN" "http://www.w3.org/Graphics/SVG/1.1/DTD/svg11.dtd">
<svg version="1.1" xmlns="http://www.w3.org/2000/svg" xmlns:xlink="http://www.w3.org/1999/xlink" x="0px" y="0px" viewBox="0 0 256 256" enable-background="new 0 0 256 256" xml:space="preserve">
<metadata> Svg Vector Icons : http://www.onlinewebfonts.com/icon </metadata>
<g><g><g><path fill="#000000" d="M213.8,10.3c-2,0.3-5,1.3-6.6,2.3c-1.7,0.9-8.7,7.4-15.7,14.2c-6.9,6.8-12.8,12.5-13,12.5c-0.2,0-7.3-2.7-15.7-6c-8.8-3.4-15.8-5.8-16.5-5.6c-2.2,0.7-3.8,3.2-6.7,10.5l-2.8,7.2l-9.7-0.2l-9.7-0.2l-3.4-7.5c-3.4-7.7-4.8-9.4-7.3-9.4c-0.8,0-8.9,3.1-18,7C72,42.1,69.3,43.7,69.3,46.8c0,0.8,1.5,4.9,3.2,9.1l3.2,7.6l-6.7,6.7c-3.7,3.6-7,6.6-7.4,6.4c-0.3-0.1-4-1.5-8.1-3.2l-7.6-3l-2.3,1.2c-2.3,1.1-2.6,2-9.2,18.4c-3.8,9.4-6.9,17.8-6.9,18.5c0,2.8,1.9,4.2,9.8,7.4l7.7,3.1v9.7v9.7l-7,3c-12.3,5.3-12.2,4.4-4.6,22.1c3.2,7.7,6,14.3,6,14.6c0,0.3-3.1,3.8-7,7.6l-7,7l-7.9,23.8c-5.1,15.2-7.9,24.3-7.6,25.3c0.5,2.1,2.9,4.2,4.9,4.2c0.9,0,12-3.4,24.6-7.7l22.9-7.7l7.5-7.4l7.4-7.3l15.1,6.1c8.3,3.4,15.6,6.1,16.4,6.1c2.7,0,4.2-2,7.3-9.8l3.1-7.8h9.7l9.6,0.1l3.2,7.3c3.6,8.1,4.8,9.7,7.6,9.7c2.5,0.1,34.7-13.6,36.2-15.4c1.7-2.1,1.5-3.7-2.2-12.2l-3.3-7.8l4.2-4c2.3-2.3,5.2-5.3,6.5-6.8l2.3-2.8l7.6,3c8.5,3.5,10.9,3.7,12.9,1.4c1.9-2.2,14.4-33.5,14.3-35.8c-0.1-2.8-2.3-4.5-10.3-7.7l-7.2-2.8l0.2-9.7l0.2-9.7l7.5-3.4c7.8-3.4,9.4-4.8,9.4-7.4c0-0.8-2.7-7.7-6-15.2l-6-13.7l13.5-13.6c14.6-14.6,15.9-16.4,16.7-23.3c0.5-4.2-0.9-9.8-3.3-13.7c-2.1-3.2-11.5-12.1-15-14.2C224,10.5,218.6,9.6,213.8,10.3z M228.4,27.2c9.1,9.2,9.3,12.9,1.3,21.5l-4.6,4.8l-11.3-11.3L202.5,31l4.2-4.2c4.4-4.6,5.7-5.4,8.7-6.1C219.7,19.8,222.3,21.1,228.4,27.2z M198.5,41.7c1.9,1.7,3.3,3.5,3.3,4.1c0,0.5-23.4,24.4-52,53.1l-51.9,52.1l-4-4l-4-4L142,90.8c28.7-28.8,52.5-52.2,52.7-52.2C195,38.6,196.7,40,198.5,41.7z M160.4,43.9c4.8,1.9,8.8,3.6,9.1,3.9c0.3,0.2-5.9,6.8-13.6,14.6l-14.2,14.1l-4.2-0.7c-17-2.9-33.1,1.9-45.4,13.4C80.8,99.7,75.3,112.7,75.3,128c0,7.9,1,12.8,4,19.9c5,11.7,13.4,20.7,24.4,26.4c7.6,3.9,11.8,5.2,19.4,6.1c17.1,2,34.6-5.2,45.6-18.7c3.9-4.8,8.8-14.2,10.3-20c1.5-5.6,1.9-16.5,0.9-22.7l-0.8-5l14.2-14.2l14.2-14.2l3.8,8.7c2.1,4.8,3.6,8.9,3.4,9.2c-0.1,0.3-3,1.7-6.4,3c-8.3,3.4-8.9,4-8.5,8.8s0.4,17.9,0,22.9c-0.3,3.6-0.2,4,1.5,5.4c0.9,0.8,4.6,2.6,8.1,4s6.3,2.8,6.2,3.2c-1,2.5-8.6,21.3-8.7,21.4c-0.1,0.1-3.3-1.1-7.2-2.7c-4.5-1.9-7.7-2.8-8.7-2.5c-1.2,0.2-3.3,2.3-6.7,6.5c-2.7,3.4-7.4,8.1-10.2,10.5c-6.4,5.4-6.6,6-2.6,15.2c1.5,3.4,2.6,6.5,2.5,6.6c-0.4,0.5-21.3,9.6-21.5,9.4c-0.1-0.1-1.5-3.2-3.1-7.1c-3.8-8.8-4.8-9.5-11.4-8.5c-2.8,0.4-8.6,0.5-14.3,0.3c-7.7-0.3-10-0.2-11.1,0.6c-0.7,0.5-2.6,4-4.1,7.9s-3,7-3.2,7c-0.6,0-20.9-8.1-21.4-8.5c-0.3-0.2,0.7-3.2,2.2-6.6c3.1-7.6,3.3-10.2,0.8-12.3c-1.1-0.9-3.8-3.1-6.2-5.1c-2.4-2-6.3-6-8.7-8.8c-2.5-3-5.2-5.4-6.1-5.7c-1.2-0.3-3.6,0.4-8.7,2.5c-3.9,1.7-7.2,2.8-7.4,2.7c-0.5-0.4-9.6-21.3-9.4-21.4c0.1-0.1,3.4-1.6,7.3-3.3c8.8-3.9,9.3-4.6,8.3-11.3c-0.4-2.6-0.5-8.6-0.3-14.2c0.3-7.7,0.2-10-0.6-11.1c-0.5-0.7-4-2.6-7.9-4.1c-3.8-1.5-7-3-7-3.2c0-0.6,8.1-20.9,8.5-21.4c0.2-0.3,3.2,0.7,6.6,2.2c3.4,1.4,7.2,2.6,8.5,2.6c2.5,0,2.8-0.3,8.2-7c2.1-2.6,6-6.4,8.6-8.5c2.7-2.1,5.3-4.4,5.8-4.9c1.4-1.7,0.9-5-1.9-11.3c-1.5-3.4-2.5-6.4-2.1-6.6c1.3-1.3,20.9-9.3,21.4-8.8c0.3,0.3,1.8,3.4,3.2,6.8c3.4,8.1,4.5,8.9,11.1,7.8c2.9-0.5,7.7-0.5,12.9-0.2c11.5,0.7,11.4,0.7,13-1.2c0.8-0.9,2.6-4.5,4-8c1.4-3.5,2.8-6.3,3.2-6.1C151.4,40.3,155.7,42,160.4,43.9z M213.7,56.9l3.6,3.6L164.8,113l-52.5,52.5l-3.6-3.6l-3.6-3.6l52.1-52.5C186,77,209.6,53.3,209.8,53.3C210,53.3,211.7,54.8,213.7,56.9z M131.6,86.2c0,0.3-10.3,10.8-23,23.3l-23.1,22.9l-0.2-3.6c-0.3-4.8,1.5-13.2,3.8-18.2c5.6-12.3,17.2-21.4,30.9-24.2C123.4,85.6,131.6,85.5,131.6,86.2z M169,137.5c-1.5,6-5.7,14.2-9.6,18.5c-4.2,4.8-11.3,9.5-17.4,11.7c-3.6,1.3-6.5,1.8-11.7,2c-3.8,0.1-6.8,0.1-6.6-0.1c0.2-0.2,10.6-10.7,23.2-23.3l22.9-22.9l0.2,5C170,131.4,169.7,135.1,169,137.5z M64.8,180.8c1.2,1.1,0.9,1.5-9.2,11.6l-10.5,10.5l-3.8-3.8l-3.8-3.8l4.4-4.5c2.5-2.4,4.9-4.5,5.5-4.6c0.5,0,4.3-1.5,8.3-3.2c4-1.7,7.4-3.2,7.6-3.2C63.5,179.7,64.1,180.2,64.8,180.8z M75.7,191.8l1.4,1.5l-2.5,6.2c-2.3,5.7-2.9,6.6-8.5,12.3l-6.1,6.1l-3.6-3.6l-3.6-3.6l10.1-10.1c5.6-5.6,10.5-10.1,10.9-10.1S75,191,75.7,191.8z M49.8,223.2c-0.4,0.5-25.8,8.8-26,8.5c-0.1-0.1,1.8-6,4.2-13.2l4.5-13l8.7,8.7C46.1,219.1,50,223.1,49.8,223.2z"/></g></g></g>
</svg>