<svg width="64" height="64" viewBox="0 0 64 64" fill="none" xmlns="http://www.w3.org/2000/svg">
<g filter="url(#filter0_i_133_18)">
<path d="M31.5503 36.5762C34.0949 36.5762 36.1577 34.5135 36.1577 31.9691C36.1577 29.4246 34.0949 27.3619 31.5503 27.3619C29.0057 27.3619 26.9429 29.4246 26.9429 31.9691C26.9429 34.5135 29.0057 36.5762 31.5503 36.5762Z" fill="#7B7070"/>
<path d="M37.3094 20.6598H25.7908C24.1154 20.6598 22.6494 21.1834 21.707 22.1258C20.7645 23.0682 20.241 24.5343 20.241 26.2097V37.7284C20.241 39.4039 20.7645 40.8699 21.8117 41.917C22.8588 42.8595 24.2201 43.3831 25.8955 43.3831H37.3094C38.9848 43.3831 40.4508 42.8595 41.3933 41.917C42.4404 40.9746 42.964 39.5086 42.964 37.8331V26.3144C42.964 24.639 42.4404 23.2777 41.498 22.2305C40.4508 21.1834 39.0895 20.6598 37.3094 20.6598ZM31.5501 39.0897C27.571 39.0897 24.4295 35.8435 24.4295 31.9691C24.4295 27.9899 27.6757 24.8484 31.5501 24.8484C35.4245 24.8484 38.7754 27.9899 38.7754 31.9691C38.7754 35.9483 35.5293 39.0897 31.5501 39.0897ZM38.9848 26.2097C38.0424 26.2097 37.3094 25.4767 37.3094 24.5343C37.3094 23.5918 38.0424 22.8588 38.9848 22.8588C39.9273 22.8588 40.6603 23.5918 40.6603 24.5343C40.6603 25.4767 39.9273 26.2097 38.9848 26.2097Z" fill="#7B7070"/>
<path d="M31.7596 6C17.5185 6 6 17.5186 6 31.7597C6 46.0008 17.5185 57.5194 31.7596 57.5194C46.0008 57.5194 57.5193 46.0008 57.5193 31.7597C57.624 17.5186 46.0008 6 31.7596 6ZM45.4772 37.8331C45.4772 40.2415 44.6395 42.3358 43.1735 43.8018C41.7075 45.2678 39.6132 46.0008 37.3095 46.0008H25.8957C23.592 46.0008 21.4977 45.2678 20.0317 43.8018C18.461 42.3358 17.728 40.2415 17.728 37.8331V26.3145C17.728 21.4977 20.9741 18.1468 25.8957 18.1468H37.4142C39.8226 18.1468 41.8122 18.9846 43.2782 20.4506C44.7442 21.9166 45.4772 23.9061 45.4772 26.3145V37.8331Z" fill="#7B7070"/>
</g>
<defs>
<filter id="filter0_i_133_18" x="6" y="6" width="51.52" height="55.5194" filterUnits="userSpaceOnUse" color-interpolation-filters="sRGB">
<feFlood flood-opacity="0" result="BackgroundImageFix"/>
<feBlend mode="normal" in="SourceGraphic" in2="BackgroundImageFix" result="shape"/>
<feColorMatrix in="SourceAlpha" type="matrix" values="0 0 0 0 0 0 0 0 0 0 0 0 0 0 0 0 0 0 127 0" result="hardAlpha"/>
<feOffset dy="4"/>
<feGaussianBlur stdDeviation="2"/>
<feComposite in2="hardAlpha" operator="arithmetic" k2="-1" k3="1"/>
<feColorMatrix type="matrix" values="0 0 0 0 0 0 0 0 0 0 0 0 0 0 0 0 0 0 0.25 0"/>
<feBlend mode="normal" in2="shape" result="effect1_innerShadow_133_18"/>
</filter>
</defs>
</svg>
