<svg width="64" height="64" viewBox="0 0 64 64" fill="none" xmlns="http://www.w3.org/2000/svg">
<g filter="url(#filter0_i_90_407)">
<mask id="mask0_90_407" style="mask-type:luminance" maskUnits="userSpaceOnUse" x="5" y="5" width="52" height="52">
<path d="M56.8299 5.31116H5.3112V56.8298H56.8299V5.31116Z" fill="white"/>
</mask>
<g mask="url(#mask0_90_407)">
<path d="M56.8299 31.2269C56.8299 17.0005 45.2971 5.46765 31.0705 5.46765C16.844 5.46765 5.3112 17.0005 5.3112 31.2269C5.3112 44.0843 14.7311 54.741 27.0457 56.6734V38.673H20.5052V31.2269H27.0457V25.5519C27.0457 19.096 30.8913 15.5299 36.7753 15.5299C39.5937 15.5299 42.5414 16.033 42.5414 16.033V22.3722H39.2933C36.0933 22.3722 35.0954 24.3578 35.0954 26.3949V31.2269H42.2397L41.0976 38.673H35.0954V56.6734C47.4102 54.741 56.8299 44.0843 56.8299 31.2269Z" fill="#7B7070"/>
</g>
</g>
<defs>
<filter id="filter0_i_90_407" x="5.3112" y="5.46765" width="51.5187" height="55.2058" filterUnits="userSpaceOnUse" color-interpolation-filters="sRGB">
<feFlood flood-opacity="0" result="BackgroundImageFix"/>
<feBlend mode="normal" in="SourceGraphic" in2="BackgroundImageFix" result="shape"/>
<feColorMatrix in="SourceAlpha" type="matrix" values="0 0 0 0 0 0 0 0 0 0 0 0 0 0 0 0 0 0 127 0" result="hardAlpha"/>
<feOffset dy="4"/>
<feGaussianBlur stdDeviation="2"/>
<feComposite in2="hardAlpha" operator="arithmetic" k2="-1" k3="1"/>
<feColorMatrix type="matrix" values="0 0 0 0 0 0 0 0 0 0 0 0 0 0 0 0 0 0 0.25 0"/>
<feBlend mode="normal" in2="shape" result="effect1_innerShadow_90_407"/>
</filter>
</defs>
</svg>
