<svg width="64" height="64" viewBox="0 0 64 64" fill="none" xmlns="http://www.w3.org/2000/svg">
<g filter="url(#filter0_i_59_283)">
<path fill-rule="evenodd" clip-rule="evenodd" d="M32.2116 7C18.289 7 7 18.5703 7 32.8532C7 44.2771 14.2258 53.9567 24.243 57.3782C25.5035 57.6146 25.965 56.8155 25.965 56.1288C25.965 55.5097 25.9425 53.889 25.9312 51.7282C18.9192 53.2926 17.4336 48.2615 17.4336 48.2615C16.2855 45.2788 14.631 44.4797 14.631 44.4797C12.3462 42.8704 14.7998 42.9041 14.7998 42.9041C17.3323 43.0842 18.6604 45.5714 18.6604 45.5714C20.9114 49.5222 24.5581 48.3853 25.9988 47.7214C26.2238 46.0555 26.8766 44.9075 27.597 44.2659C22.0032 43.6132 16.1167 41.3957 16.1167 31.4914C16.1167 28.6661 17.0959 26.3589 18.7054 24.5581C18.4465 23.9053 17.5799 21.2716 18.953 17.7149C18.953 17.7149 21.069 17.0171 25.8862 20.3599C27.9008 19.7859 30.0505 19.5045 32.2005 19.4933C34.3388 19.5045 36.4999 19.7859 38.5144 20.3599C43.3317 17.0171 45.4365 17.7149 45.4365 17.7149C46.8097 21.2716 45.9429 23.9053 45.684 24.5581C47.2936 26.3702 48.2727 28.6775 48.2727 31.4914C48.2727 41.4183 42.3751 43.6018 36.7588 44.2434C37.6591 45.0424 38.4695 46.6183 38.4695 49.0269C38.4695 52.4821 38.4358 55.2734 38.4358 56.1176C38.4358 56.8041 38.8859 57.6146 40.1691 57.3556C50.2086 53.9453 57.4234 44.2659 57.4234 32.8532C57.4234 18.5703 46.1344 7 32.2116 7Z" fill="#7B7070"/>
</g>
<defs>
<filter id="filter0_i_59_283" x="7" y="7" width="50.4234" height="54.4205" filterUnits="userSpaceOnUse" color-interpolation-filters="sRGB">
<feFlood flood-opacity="0" result="BackgroundImageFix"/>
<feBlend mode="normal" in="SourceGraphic" in2="BackgroundImageFix" result="shape"/>
<feColorMatrix in="SourceAlpha" type="matrix" values="0 0 0 0 0 0 0 0 0 0 0 0 0 0 0 0 0 0 127 0" result="hardAlpha"/>
<feOffset dy="4"/>
<feGaussianBlur stdDeviation="2"/>
<feComposite in2="hardAlpha" operator="arithmetic" k2="-1" k3="1"/>
<feColorMatrix type="matrix" values="0 0 0 0 0 0 0 0 0 0 0 0 0 0 0 0 0 0 0.25 0"/>
<feBlend mode="normal" in2="shape" result="effect1_innerShadow_59_283"/>
</filter>
</defs>
</svg>
