<svg width="64" height="64" viewBox="0 0 64 64" fill="none" xmlns="http://www.w3.org/2000/svg">
<g filter="url(#filter0_i_93_425)">
<mask id="mask0_93_425" style="mask-type:luminance" maskUnits="userSpaceOnUse" x="5" y="5" width="52" height="52">
<path d="M56.8299 5.31116H5.3112V56.8298H56.8299V5.31116Z" fill="white"/>
</mask>
<g mask="url(#mask0_93_425)">
<path fill-rule="evenodd" clip-rule="evenodd" d="M31.0705 56.8298C45.2971 56.8298 56.8299 45.2971 56.8299 31.0705C56.8299 16.844 45.2971 5.31116 31.0705 5.31116C16.8441 5.31116 5.3112 16.844 5.3112 31.0705C5.3112 45.2971 16.8441 56.8298 31.0705 56.8298Z" fill="#7B7070"/>
<g filter="url(#filter1_d_93_425)">
<path fill-rule="evenodd" clip-rule="evenodd" d="M38.5203 40.9773C38.3341 40.9719 38.1485 40.9167 37.9801 40.8105C37.9783 40.8105 37.7629 40.6713 37.3208 40.4305C36.8778 40.1888 36.2256 39.8563 35.4127 39.5074C33.7888 38.8044 31.5156 38.0264 28.975 37.7279C28.1951 37.6368 27.4443 37.581 26.7262 37.5574C23.4975 37.4493 20.9599 37.9379 19.9257 38.1793C19.5795 38.26 19.4196 38.3092 19.4196 38.3092C18.8436 38.481 18.2409 38.1443 18.0714 37.559C17.9037 36.9729 18.2331 36.3586 18.8084 36.1873C18.8819 36.1661 22.1553 35.1957 26.7948 35.3479C27.5683 35.3747 28.3817 35.4337 29.222 35.5325C34.8588 36.2033 39.0543 38.895 39.1319 38.9356C39.6418 39.2604 39.7955 39.9426 39.4768 40.4591C39.2657 40.8062 38.895 40.99 38.5203 40.9773ZM42.4724 34.4596C42.206 34.8911 41.7442 35.123 41.2757 35.1065C41.0429 35.0985 40.8108 35.0295 40.6007 34.8959C40.5996 34.8978 40.5518 34.8643 40.4236 34.7884C40.294 34.7119 40.0993 34.5996 39.8462 34.462C39.3366 34.184 38.5896 33.8016 37.6532 33.3979C35.785 32.5901 33.1706 31.6981 30.2497 31.3557C29.3558 31.2501 28.4909 31.1876 27.6645 31.1603C23.9493 31.0352 21.0292 31.5966 19.8421 31.8746C19.4458 31.9681 19.2662 32.0215 19.265 32.0234C18.5458 32.2358 17.7903 31.8157 17.5802 31.083C17.369 30.3501 17.7814 29.5821 18.5023 29.3709C18.5936 29.3425 22.3821 28.2203 27.7521 28.3987C28.6473 28.4285 29.5866 28.4951 30.5601 28.6104C37.0916 29.3885 41.9471 32.5003 42.0437 32.5555C42.6782 32.9621 42.8715 33.8138 42.4724 34.4596ZM45.683 28.3775C45.3627 28.8959 44.8064 29.1726 44.246 29.1537C43.9685 29.1447 43.6886 29.0626 43.4374 28.9012C43.4374 28.9012 43.3787 28.8635 43.2274 28.7732C43.0768 28.6845 42.8484 28.5517 42.5475 28.3878C41.9484 28.0631 41.0668 27.6132 39.9639 27.1363C37.7619 26.1852 34.6816 25.1322 31.2424 24.7285C30.187 24.6047 29.1673 24.5319 28.1943 24.5003C23.0875 24.3267 19.256 25.2547 18.4522 25.4714C18.3376 25.5018 18.297 25.5139 18.297 25.5139C17.4334 25.7706 16.5286 25.2657 16.2756 24.3881C16.0226 23.5092 16.5167 22.5873 17.3821 22.3306C17.4919 22.3002 21.9632 20.9747 28.3005 21.1859C29.3574 21.2205 30.4653 21.2982 31.6141 21.4341C39.326 22.3536 45.0512 26.0249 45.1675 26.0911C45.9297 26.5767 46.1605 27.6018 45.683 28.3775Z" fill="#EAEAEA"/>
</g>
</g>
</g>
<defs>
<filter id="filter0_i_93_425" x="5.3112" y="5.31116" width="51.5187" height="55.5187" filterUnits="userSpaceOnUse" color-interpolation-filters="sRGB">
<feFlood flood-opacity="0" result="BackgroundImageFix"/>
<feBlend mode="normal" in="SourceGraphic" in2="BackgroundImageFix" result="shape"/>
<feColorMatrix in="SourceAlpha" type="matrix" values="0 0 0 0 0 0 0 0 0 0 0 0 0 0 0 0 0 0 127 0" result="hardAlpha"/>
<feOffset dy="4"/>
<feGaussianBlur stdDeviation="2"/>
<feComposite in2="hardAlpha" operator="arithmetic" k2="-1" k3="1"/>
<feColorMatrix type="matrix" values="0 0 0 0 0 0 0 0 0 0 0 0 0 0 0 0 0 0 0.25 0"/>
<feBlend mode="normal" in2="shape" result="effect1_innerShadow_93_425"/>
</filter>
<filter id="filter1_d_93_425" x="12.2094" y="21.1631" width="37.7223" height="27.8148" filterUnits="userSpaceOnUse" color-interpolation-filters="sRGB">
<feFlood flood-opacity="0" result="BackgroundImageFix"/>
<feColorMatrix in="SourceAlpha" type="matrix" values="0 0 0 0 0 0 0 0 0 0 0 0 0 0 0 0 0 0 127 0" result="hardAlpha"/>
<feOffset dy="4"/>
<feGaussianBlur stdDeviation="2"/>
<feComposite in2="hardAlpha" operator="out"/>
<feColorMatrix type="matrix" values="0 0 0 0 0 0 0 0 0 0 0 0 0 0 0 0 0 0 0.25 0"/>
<feBlend mode="normal" in2="BackgroundImageFix" result="effect1_dropShadow_93_425"/>
<feBlend mode="normal" in="SourceGraphic" in2="effect1_dropShadow_93_425" result="shape"/>
</filter>
</defs>
</svg>
