<svg width="64" height="64" viewBox="0 0 64 64" fill="none" xmlns="http://www.w3.org/2000/svg">
<g filter="url(#filter0_i_145_80)">
<mask id="mask0_145_80" style="mask-type:luminance" maskUnits="userSpaceOnUse" x="5" y="5" width="52" height="52">
<path d="M56.83 5.31116H5.31128V56.8298H56.83V5.31116Z" fill="white"/>
</mask>
<g mask="url(#mask0_145_80)">
<path fill-rule="evenodd" clip-rule="evenodd" d="M31.0706 56.8298C45.2972 56.8298 56.83 45.2971 56.83 31.0705C56.83 16.844 45.2972 5.31116 31.0706 5.31116C16.8441 5.31116 5.31128 16.844 5.31128 31.0705C5.31128 45.2971 16.8441 56.8298 31.0706 56.8298Z" fill="#FF0000"/>
<g filter="url(#filter1_d_145_80)">
<path fill-rule="evenodd" clip-rule="evenodd" d="M38.5204 40.9773C38.3342 40.9719 38.1486 40.9167 37.9802 40.8105C37.9784 40.8105 37.763 40.6713 37.3209 40.4305C36.8779 40.1888 36.2257 39.8563 35.4128 39.5074C33.7889 38.8044 31.5157 38.0264 28.9751 37.7279C28.1951 37.6368 27.4444 37.581 26.7263 37.5574C23.4976 37.4493 20.96 37.9379 19.9258 38.1793C19.5796 38.26 19.4197 38.3092 19.4197 38.3092C18.8437 38.481 18.241 38.1443 18.0715 37.559C17.9038 36.9729 18.2332 36.3586 18.8085 36.1873C18.8819 36.1661 22.1554 35.1957 26.7948 35.3479C27.5684 35.3747 28.3818 35.4337 29.2221 35.5325C34.8588 36.2033 39.0544 38.895 39.132 38.9356C39.6418 39.2604 39.7956 39.9426 39.4769 40.4591C39.2658 40.8062 38.8951 40.99 38.5204 40.9773ZM42.4725 34.4596C42.2061 34.8911 41.7443 35.123 41.2758 35.1065C41.0429 35.0985 40.8108 35.0295 40.6008 34.8959C40.5997 34.8978 40.5519 34.8643 40.4237 34.7884C40.2941 34.7119 40.0994 34.5996 39.8463 34.462C39.3367 34.184 38.5897 33.8016 37.6533 33.3979C35.7851 32.5901 33.1707 31.6981 30.2498 31.3557C29.3559 31.2501 28.491 31.1876 27.6646 31.1603C23.9494 31.0352 21.0292 31.5966 19.8422 31.8746C19.4459 31.9681 19.2663 32.0215 19.2651 32.0234C18.5459 32.2358 17.7904 31.8157 17.5803 31.083C17.3691 30.3501 17.7814 29.5821 18.5024 29.3709C18.5937 29.3425 22.3822 28.2203 27.7522 28.3987C28.6474 28.4285 29.5867 28.4951 30.5602 28.6104C37.0917 29.3885 41.9472 32.5003 42.0438 32.5555C42.6783 32.9621 42.8716 33.8138 42.4725 34.4596ZM45.6831 28.3775C45.3628 28.8959 44.8065 29.1726 44.2461 29.1537C43.9686 29.1447 43.6887 29.0626 43.4375 28.9012C43.4375 28.9012 43.3788 28.8635 43.2274 28.7732C43.0769 28.6845 42.8485 28.5517 42.5476 28.3878C41.9485 28.0631 41.0668 27.6132 39.964 27.1363C37.7619 26.1852 34.6817 25.1322 31.2424 24.7285C30.1871 24.6047 29.1674 24.5319 28.1943 24.5003C23.0876 24.3267 19.2561 25.2547 18.4522 25.4714C18.3377 25.5018 18.2971 25.5139 18.2971 25.5139C17.4335 25.7706 16.5287 25.2657 16.2757 24.3881C16.0227 23.5092 16.5168 22.5873 17.3822 22.3306C17.492 22.3002 21.9632 20.9747 28.3006 21.1859C29.3575 21.2205 30.4654 21.2982 31.6142 21.4341C39.3261 22.3536 45.0513 26.0249 45.1676 26.0911C45.9298 26.5767 46.1606 27.6018 45.6831 28.3775Z" fill="#EAEAEA"/>
</g>
</g>
</g>
<defs>
<filter id="filter0_i_145_80" x="5.31128" y="5.31116" width="51.5186" height="55.5187" filterUnits="userSpaceOnUse" color-interpolation-filters="sRGB">
<feFlood flood-opacity="0" result="BackgroundImageFix"/>
<feBlend mode="normal" in="SourceGraphic" in2="BackgroundImageFix" result="shape"/>
<feColorMatrix in="SourceAlpha" type="matrix" values="0 0 0 0 0 0 0 0 0 0 0 0 0 0 0 0 0 0 127 0" result="hardAlpha"/>
<feOffset dy="4"/>
<feGaussianBlur stdDeviation="2"/>
<feComposite in2="hardAlpha" operator="arithmetic" k2="-1" k3="1"/>
<feColorMatrix type="matrix" values="0 0 0 0 0 0 0 0 0 0 0 0 0 0 0 0 0 0 0.25 0"/>
<feBlend mode="normal" in2="shape" result="effect1_innerShadow_145_80"/>
</filter>
<filter id="filter1_d_145_80" x="12.2095" y="21.1631" width="37.7222" height="27.8148" filterUnits="userSpaceOnUse" color-interpolation-filters="sRGB">
<feFlood flood-opacity="0" result="BackgroundImageFix"/>
<feColorMatrix in="SourceAlpha" type="matrix" values="0 0 0 0 0 0 0 0 0 0 0 0 0 0 0 0 0 0 127 0" result="hardAlpha"/>
<feOffset dy="4"/>
<feGaussianBlur stdDeviation="2"/>
<feComposite in2="hardAlpha" operator="out"/>
<feColorMatrix type="matrix" values="0 0 0 0 0 0 0 0 0 0 0 0 0 0 0 0 0 0 0.25 0"/>
<feBlend mode="normal" in2="BackgroundImageFix" result="effect1_dropShadow_145_80"/>
<feBlend mode="normal" in="SourceGraphic" in2="effect1_dropShadow_145_80" result="shape"/>
</filter>
</defs>
</svg>
