<svg width="236" height="161" viewBox="0 0 236 161" fill="none" xmlns="http://www.w3.org/2000/svg">
<g clip-path="url(#clip0_42_152)">
<path d="M128.801 106.382C125.812 106.382 122.891 105.975 120.038 105.159C117.321 104.344 114.535 103.665 111.682 103.122L112.09 102.306C111.682 101.219 110.663 100.54 109.033 100.268C107.538 99.9965 105.908 99.7927 104.142 99.657C102.376 99.657 101.017 99.5212 100.066 99.2494L99.0466 98.0266H98.4352C96.9406 98.0266 95.6501 97.619 94.563 96.8038C93.476 96.1243 92.457 95.3092 91.5061 94.3582L88.4491 94.7658L87.6339 93.3392V92.3203L86.6149 91.3013L85.7997 92.3203C84.4411 92.0484 82.8784 91.437 81.1123 90.4861C79.4819 89.5352 78.5986 88.3124 78.4629 86.8177C77.7834 86.1383 76.6967 84.8478 75.2021 82.9456C73.8436 80.9076 72.417 78.8696 70.9223 76.8317C69.5638 74.658 68.5448 73.0952 67.8653 72.1443L68.8843 70.3101L68.2729 69.0874L67.4577 69.2911C66.6425 68.6117 66.1668 67.6608 66.0311 66.438C66.0311 65.2152 66.0992 64.1281 66.2349 63.1772L64.6045 61.5468H63.9931C63.8574 62.4978 63.4498 63.6529 62.7703 65.0114C62.227 66.3699 61.3437 67.0494 60.1209 67.0494V65.6228L58.8981 63.9924H58.6943C58.151 63.9924 57.6753 64.2643 57.2677 64.8076C56.9958 65.2152 56.9958 65.7585 57.2677 66.438C56.8601 66.9813 56.4525 67.525 56.0449 68.0684C55.6373 68.476 55.4335 69.0193 55.4335 69.6987L56.4525 71.5329L58.0829 71.1253L58.8981 71.5329C58.8981 71.9405 58.0829 73.0276 56.4525 74.7937C54.8221 76.5598 53.1236 78.7339 51.3575 81.3152C49.5914 83.7608 48.5043 86.3421 48.0967 89.0595L45.6511 90.4861L47.2815 91.5051L48.0967 93.1355L46.6701 95.7848L47.4853 96.6C47.6211 97.2795 47.7572 97.9585 47.8929 98.638C48.1648 99.4532 48.5043 100.133 48.9119 100.676L49.9309 101.084C51.2895 101.084 52.8522 100.608 54.6183 99.657C56.5206 98.7061 58.3548 97.5509 60.1209 96.1924C62.0232 94.9696 63.5174 94.0187 64.6045 93.3392L65.4197 94.3582C65.284 94.9016 64.5364 95.9205 63.1779 97.4152C61.9551 99.0456 60.5966 100.608 59.1019 102.103C57.6072 103.597 56.5882 104.752 56.0449 105.567H53.3955C51.3575 105.567 48.9119 105.228 46.0587 104.548C43.2055 104.005 40.6241 102.986 38.3143 101.491C36.1405 100.133 35.0535 98.1623 35.0535 95.581C35.0535 92.456 35.8687 88.6519 37.4991 84.1684C39.1295 79.5491 41.0995 74.7937 43.4093 69.9025C45.8549 65.0114 48.3005 60.3921 50.7461 56.0443C53.3274 51.6965 55.4335 48.0962 57.0639 45.243L56.4525 44.2241C55.2297 44.2241 54.4145 43.4089 54.0069 41.7785C53.735 40.1481 53.5312 38.4498 53.3955 36.6835C53.3955 34.9173 53.056 33.8983 52.3765 33.6266H52.1727L51.7651 32.2L52.5803 29.9582C54.4826 29.2789 56.4525 28.6675 58.4905 28.1241C60.5285 27.4447 62.6346 27.1051 64.8083 27.1051L63.9931 27.5127L67.4577 28.7354L77.4439 13.4506C75.9492 13.4506 73.1641 13.7903 69.0881 14.4696C65.1478 15.149 60.5966 16.0321 55.4335 17.119C50.4066 18.2059 45.4473 19.4966 40.5561 20.9911C35.8008 22.3498 31.7928 23.8443 28.532 25.4747C25.407 26.9692 23.7087 28.4637 23.437 29.9582L25.0674 30.5696C26.0184 30.0262 26.9695 29.7544 27.9206 29.7544C29.0075 29.6186 30.0944 29.5506 31.1814 29.5506L34.0346 28.5316L33.8308 28.9392C30.8417 30.8414 28.1244 33.0152 25.6788 35.4608C23.2332 37.7705 20.7876 40.2161 18.342 42.7975L17.1192 43.2051L16.304 44.6317L14.0622 45.0392L13.8584 45.4468L14.0622 49.1152L7.133 45.6506C6.58954 44.156 5.77435 42.7975 4.6874 41.5747C3.73634 40.3519 3.2608 38.9253 3.2608 37.2949C8.42374 30.9093 14.6056 26.0861 21.8066 22.8253C29.0075 19.4287 36.1405 16.0321 43.2055 12.6354L43.0017 12.8392C43.2736 12.9751 43.6812 13.111 44.2245 13.2468C44.7679 13.3827 45.1755 13.4506 45.4473 13.4506C46.5344 13.4506 47.6211 13.2468 48.7081 12.8392C49.7952 12.2958 50.8819 11.8882 51.9689 11.6165V12.0241C53.1917 11.7523 54.4145 11.4806 55.6373 11.2089C56.8601 10.8013 58.151 10.3257 59.5095 9.78228V10.1899L62.5665 9.17089V8.96709L63.5855 9.17089L63.3817 8.96709L65.6235 7.94811L66.8463 8.3557L66.4387 7.94811H67.0501V8.3557H70.1071L71.5337 7.74431L71.9413 7.13292L77.4439 7.33671L77.6477 7.13292L79.4819 6.31773C80.4328 6.31773 81.3161 6.31773 82.1313 6.31773C83.0822 6.18187 84.0335 6.11393 84.9845 6.11393C85.9354 5.027 86.7506 3.73628 87.4301 2.24177C88.2453 0.747256 89.5361 0 91.3023 0C93.2045 0 94.9026 0.407596 96.3972 1.22279C97.8919 2.03797 99.5223 2.44557 101.288 2.44557C101.56 3.26076 102.647 4.07595 104.549 4.89114C106.451 5.57048 108.557 6.18187 110.867 6.72532C113.313 7.13292 115.622 7.47256 117.796 7.74431C119.97 7.88016 121.533 7.94811 122.484 7.94811L131.247 10.5975L131.858 10.3937C133.081 10.3937 134.78 11.2089 136.953 12.8392C139.127 14.4696 141.233 16.2359 143.271 18.138C145.445 20.0401 147.008 21.4667 147.959 22.4177C148.23 23.3688 148.502 24.3878 148.774 25.4747C149.046 26.5616 149.453 27.5806 149.997 28.5316C149.453 33.6945 148.502 37.5667 147.143 40.1481C145.785 42.5937 143.814 44.3598 141.233 45.4468C138.652 46.5339 135.119 47.6886 130.636 48.9114L127.986 48.7076V49.7266H127.579L126.763 48.9114L118.611 51.357V50.1342C116.03 51.9003 114.06 52.7836 112.701 52.7836C111.478 52.7836 109.508 52.9193 106.791 53.1911L106.587 52.7836C106.044 53.3269 105.5 53.6668 104.957 53.8025C104.413 53.8025 103.802 53.8025 103.123 53.8025C100.949 53.8025 98.9109 54.3459 97.0086 55.4329C95.2425 56.52 93.3402 56.9276 91.3023 56.6557V57.6747L90.2833 57.4709L89.4681 56.6557L89.0605 57.4709V57.6747L88.6529 57.4709C88.381 57.3352 88.1095 57.2671 87.8377 57.2671C87.5658 57.1314 87.2943 57.0633 87.0225 57.0633C86.343 57.0633 85.6639 57.199 84.9845 57.4709C84.305 57.6066 83.6259 57.6747 82.9465 57.6747L83.1503 56.4519L82.7427 56.6557C81.5199 56.3838 80.229 56.3838 78.8705 56.6557C77.6477 56.9276 76.4249 57.199 75.2021 57.4709C78.5986 64.5357 81.7917 70.3782 84.7807 74.9975C87.7696 79.481 91.2342 83.557 95.1744 87.2253C99.2504 90.8937 104.481 94.9696 110.867 99.4532C114.4 99.725 117.932 100.336 121.465 101.287C124.997 102.374 128.598 102.918 132.266 102.918C134.304 102.918 136.342 102.714 138.38 102.306C140.418 101.899 142.456 101.695 144.494 101.695H145.309C144.494 102.374 142.999 103.053 140.826 103.733C138.652 104.548 136.41 105.159 134.1 105.567C131.79 106.11 130.024 106.382 128.801 106.382ZM73.1641 52.7836C81.1803 51.2889 89.0605 49.6585 96.8048 47.8924C104.685 46.1263 112.362 43.8845 119.834 41.1671L120.038 40.9633C122.484 40.0123 125.065 38.9253 127.782 37.7025C130.5 36.3439 132.877 34.6456 134.915 32.6076C136.953 30.5696 137.972 28.1241 137.972 25.2709C137.429 24.0481 136.682 22.7574 135.731 21.3987C134.78 20.0401 133.489 19.2249 131.858 18.9532C130.771 18.4097 129.209 17.7304 127.171 16.9152C125.269 15.9642 123.299 15.081 121.261 14.2658C119.223 13.4506 117.524 12.9751 116.166 12.8392V13.043H115.554C114.739 12.6354 113.992 12.4316 113.313 12.4316C112.769 12.4316 112.226 12.4996 111.682 12.6354C111.139 12.7713 110.527 12.8392 109.848 12.8392L108.218 11.6165H105.772C104.277 11.6165 102.783 11.6165 101.288 11.6165C99.7938 11.4806 98.2995 11.3447 96.8048 11.2089C95.0387 12.8392 92.7969 15.149 90.0795 18.138C87.4981 20.9911 84.9845 23.9802 82.5389 27.1051C80.229 30.0941 78.5986 32.7435 77.6477 35.0532V37.0911C76.153 37.7705 74.9302 38.9253 73.9793 40.5557C73.0284 42.1861 72.2132 43.6807 71.5337 45.0392C72.6208 47.8924 73.1641 50.4737 73.1641 52.7836ZM131.858 18.9532C132.674 19.3608 133.149 19.6325 133.285 19.7684C133.421 19.7684 133.081 19.5646 132.266 19.157L131.858 18.9532ZM66.8463 92.5241L65.4197 92.1165C65.4197 91.437 65.8273 90.8256 66.6425 90.2823C67.5934 89.6028 68.341 89.1952 68.8843 89.0595L69.4957 89.4671L66.8463 92.5241Z" fill="#7B7070"/>
<path d="M131.247 155.701L126.356 155.09C124.725 154.003 123.435 152.576 122.484 150.81C121.668 149.18 120.921 147.549 120.242 145.919H119.223C116.913 145.919 115.419 146.327 114.739 147.142C114.196 148.093 113.652 148.976 113.109 149.791C112.565 150.742 111.207 151.218 109.033 151.218C107.538 151.218 105.976 151.014 104.345 150.606C102.715 150.334 101.085 150.199 99.4542 150.199C98.5033 150.199 97.62 150.334 96.8048 150.606C96.1254 150.878 95.3102 151.014 94.3593 151.014C92.3213 151.014 90.1475 150.674 87.8377 149.995C85.5278 149.315 83.4898 148.229 81.7237 146.734C80.0933 145.24 79.2781 143.338 79.2781 141.028C79.2781 137.767 80.5689 135.186 83.1503 133.284C85.8677 131.246 88.6529 130.023 91.5061 129.615L91.0985 130.023C89.6038 130.974 87.8377 132.196 85.7997 133.691C83.7617 135.05 82.7427 136.816 82.7427 138.99C82.7427 140.892 83.8974 142.386 86.2073 143.473C88.6529 144.56 90.6909 145.104 92.3213 145.104L93.3403 144.696C94.9706 145.104 96.8729 145.308 99.0466 145.308C102.307 145.308 105.704 145.036 109.237 144.492C112.905 143.949 115.962 143.405 118.408 142.862V141.435C117.185 139.669 116.573 137.971 116.573 136.341L118.815 130.838L117.389 128.8L119.223 125.335V124.724L117.592 124.52L116.573 125.335V125.132L117.389 123.909C116.981 122.143 117.253 120.172 118.204 117.999C119.291 115.825 120.378 113.651 121.465 111.477C122.687 109.167 123.299 107.129 123.299 105.363C124.386 104.412 125.609 102.578 126.967 99.8608C128.462 97.0076 129.888 94.0864 131.247 91.0975C132.606 88.1086 133.693 85.8668 134.508 84.3722C137.089 79.2092 140.01 74.2504 143.271 69.4949C146.532 64.6038 149.997 59.8484 153.665 55.2291C152.306 55.6367 150.947 56.0443 149.589 56.4519C148.366 56.8595 147.008 57.0633 145.513 57.0633C144.562 57.7428 142.592 58.4899 139.603 59.3051C136.614 60.1203 133.421 61.0035 130.024 61.9544C126.763 62.7696 123.91 63.6529 121.465 64.6038C119.019 65.419 117.796 66.2342 117.796 67.0494L118.408 68.0684L121.668 65.8266L122.484 66.2342L123.706 65.2152L123.91 66.0304C123.91 67.6608 123.503 69.0873 122.687 70.3101L121.872 68.476L120.038 69.6987L120.446 71.1253L119.223 71.5329C119.902 71.9405 120.446 72.4838 120.853 73.1633C121.397 73.8428 121.872 74.5218 122.28 75.2013C119.155 75.337 116.166 76.4241 113.313 78.462C110.595 80.3643 107.674 81.519 104.549 81.9266C103.87 82.8775 102.987 83.4889 101.9 83.7608C100.813 84.0326 99.7261 84.1684 98.639 84.1684C97.9596 84.1684 96.9406 83.557 95.582 82.3342C94.2235 80.9757 93.0007 79.5491 91.9137 78.0544C90.9627 76.4241 90.4871 75.2693 90.4871 74.5899C90.4871 73.0952 91.3703 71.5329 93.1365 69.9025C94.9026 68.2722 96.2615 67.0494 97.2124 66.2342L94.9706 70.3101C96.601 69.2231 98.9109 68.0684 101.9 66.8456C104.889 65.6228 107.946 64.4681 111.071 63.381C114.332 62.1582 117.253 61.0035 119.834 59.9165C122.416 58.6937 124.182 57.6747 125.133 56.8595C130.432 55.3648 135.799 54.0063 141.233 52.7835C146.804 51.425 152.306 50.4737 157.741 49.9304C158.42 49.1152 159.507 47.8924 161.002 46.262C162.632 44.4959 164.263 42.9332 165.893 41.5747C167.523 40.0802 168.882 39.3329 169.969 39.3329C172.415 39.3329 174.588 39.4688 176.491 39.7405C178.393 39.8764 179.819 41.2352 180.77 43.8165C180.77 45.3111 180.159 46.6696 178.936 47.8924C177.849 48.9795 176.762 49.8623 175.675 50.5418L177.713 50.9494C178.8 50.5418 179.683 49.8623 180.363 48.9114L181.586 48.7076H181.993C182.808 48.7076 183.488 48.9114 184.031 49.319C184.711 49.7266 185.322 50.2023 185.865 50.7456L188.107 49.7266C191.504 49.7266 195.648 50.6098 200.539 52.376C205.43 54.0063 210.253 56.2481 215.009 59.1013C219.9 61.9544 223.908 65.2152 227.033 68.8836C230.294 72.4162 231.924 76.1522 231.924 80.0924C231.924 81.8585 231.788 83.625 231.516 85.3911C231.245 87.0215 230.973 88.6519 230.701 90.2823L229.478 89.8747L228.459 90.6899V91.0975L230.09 92.9317C229.139 95.9205 227.644 98.7737 225.606 101.491C223.704 104.072 221.598 106.382 219.288 108.42C217.115 108.964 214.941 110.39 212.767 112.7C210.593 115.01 208.351 116.708 206.041 117.795C204.547 119.561 202.984 120.784 201.354 121.463C199.724 122.143 198.161 123.637 196.667 125.947L194.832 124.113L194.425 124.724L194.629 125.947C194.629 127.034 193.61 127.577 191.572 127.577C191.028 127.577 190.485 127.577 189.941 127.577C189.534 127.441 189.194 127.373 188.922 127.373L187.903 128.392L188.107 130.023C187.971 130.159 187.292 130.634 186.069 131.449C184.982 132.265 184.439 132.333 184.439 131.653H184.031C181.721 133.012 179.616 134.303 177.713 135.525L176.287 134.506L175.268 136.341C175.132 136.069 174.86 135.661 174.453 135.118C174.045 134.438 173.569 134.031 173.026 133.895L170.784 136.341H170.58L168.135 135.118L165.893 136.748L164.874 135.933L161.409 137.563L161.613 137.767H163.04L164.263 138.99V139.194H163.651L160.39 138.378L158.149 139.194L156.926 138.99C158.284 137.903 159.847 136.952 161.613 136.137L160.39 135.525L157.741 137.563L155.907 136.748V137.563C154.684 137.835 153.801 138.378 153.257 139.194V141.028L152.442 141.232L150.2 140.213C149.521 140.485 148.842 140.756 148.162 141.028C147.619 141.3 147.075 141.639 146.532 142.047C143.814 142.319 141.165 142.998 138.584 144.085C136.002 145.308 133.285 145.919 130.432 145.919L128.801 145.104L128.598 150.199L130.024 153.256H130.228L131.451 155.09V155.294L131.247 155.701ZM129.005 139.805C139.875 136.544 150.404 132.604 160.594 127.985C170.92 123.229 181.042 118.134 190.96 112.7L191.979 112.904L192.998 112.7L192.794 111.885L193.406 111.07L194.425 111.885L196.87 110.051L196.667 109.643L195.444 109.235C195.851 108.148 197.55 106.79 200.539 105.16C203.528 103.393 206.789 101.355 210.321 99.0456C213.99 96.6 217.182 93.8149 219.9 90.6899C222.617 87.4291 223.976 83.6927 223.976 79.481C223.976 74.8617 222.685 71.0573 220.104 68.0684C217.522 64.9433 214.193 62.4301 210.117 60.5279C206.041 58.6256 201.558 57.199 196.667 56.2481C191.911 55.2972 187.292 54.6177 182.808 54.2101C178.325 53.8025 174.453 53.5987 171.192 53.5987C169.833 54.9573 168.814 56.3838 168.135 57.8785C167.591 59.237 166.844 60.3921 165.893 61.343C164.942 62.294 163.312 62.7696 161.002 62.7696L159.371 64.1962V66.2342C157.333 67.1851 155.839 69.0193 154.888 71.7367C153.937 74.318 152.782 76.4921 151.423 78.2582L151.016 79.8886L151.627 80.5L147.755 87.0215L147.347 88.6519L146.532 88.0405C146.532 88.8557 145.989 90.5542 144.902 93.1354C143.814 95.581 142.524 98.3661 141.029 101.491C139.535 104.48 138.176 107.401 136.953 110.254C135.866 113.108 135.187 115.281 134.915 116.776C133.964 117.727 133.081 119.833 132.266 123.094C131.451 126.219 130.771 129.411 130.228 132.672C129.685 135.933 129.277 138.31 129.005 139.805ZM164.059 135.118C165.146 134.71 166.165 134.031 167.116 133.08L166.301 132.672C165.757 132.808 165.213 133.08 164.67 133.487C164.263 133.759 163.787 134.031 163.244 134.303L164.059 135.118Z" fill="#FF0000"/>
</g>
<defs>
<clipPath id="clip0_42_152">
<rect width="236" height="161" fill="white"/>
</clipPath>
</defs>
</svg>
