<svg width="404" height="169" viewBox="0 0 404 169" fill="none" xmlns="http://www.w3.org/2000/svg">
<path d="M32.1481 149.445H6.53369V88.0645H32.9593C40.712 88.0645 47.3699 89.2935 52.9331 91.7516C58.4966 94.1886 62.759 97.6947 65.7211 102.27C68.7086 106.825 70.2025 112.29 70.2025 118.664C70.2025 125.059 68.6959 130.554 65.6824 135.148C62.6946 139.744 58.3676 143.28 52.7013 145.758C47.0349 148.216 40.1839 149.445 32.1481 149.445ZM18.4717 141.353H31.4913C37.5182 141.353 42.5277 140.474 46.52 138.716C50.512 136.936 53.4998 134.369 55.483 131.013C57.4662 127.637 58.4578 123.52 58.4578 118.664C58.4578 113.85 57.4662 109.764 55.483 106.407C53.5256 103.05 50.6022 100.503 46.7131 98.7637C42.8239 97.0247 37.9946 96.1561 32.2254 96.1561H18.4717V141.353ZM85.0478 149.445V88.0645H134.654V96.0366H96.9856V114.738H132.065V122.68H96.9856V141.473H135.118V149.445H85.0478ZM193.754 104.188C193.342 101.352 191.642 99.154 188.655 97.5944C185.667 96.0172 181.906 95.2278 177.373 95.2278C174.128 95.2278 171.321 95.6269 168.951 96.4269C166.582 97.2058 164.74 98.2837 163.426 99.6639C162.139 101.021 161.495 102.57 161.495 104.309C161.495 105.767 161.933 107.026 162.808 108.084C163.71 109.145 164.882 110.033 166.324 110.752C167.792 111.452 169.363 112.041 171.037 112.521C172.712 112.979 174.321 113.359 175.867 113.66L183.593 115.218C186.118 115.698 188.706 116.347 191.359 117.166C194.012 117.985 196.472 119.065 198.738 120.403C201.005 121.741 202.833 123.401 204.224 125.377C205.641 127.357 206.349 129.724 206.349 132.481C206.349 135.959 205.19 139.044 202.872 141.742C200.58 144.439 197.244 146.568 192.866 148.126C188.513 149.684 183.246 150.465 177.064 150.465C171.14 150.465 166.015 149.735 161.688 148.275C157.361 146.818 153.974 144.75 151.527 142.072C149.08 139.375 147.728 136.178 147.471 132.481H159.447C159.679 134.7 160.606 136.548 162.229 138.026C163.877 139.484 165.976 140.574 168.526 141.293C171.102 141.991 173.922 142.341 176.987 142.341C180.361 142.341 183.362 141.932 185.989 141.112C188.642 140.273 190.728 139.115 192.247 137.636C193.767 136.138 194.527 134.388 194.527 132.391C194.527 130.573 193.857 129.084 192.518 127.925C191.204 126.766 189.414 125.808 187.148 125.048C184.907 124.289 182.37 123.619 179.537 123.04L170.188 121.062C163.851 119.724 158.829 117.755 155.12 115.158C151.437 112.561 149.595 109.124 149.595 104.847C149.595 101.311 150.832 98.2239 153.304 95.5864C155.777 92.949 159.125 90.9024 163.349 89.443C167.573 87.9643 172.338 87.2258 177.644 87.2258C183.001 87.2258 187.727 87.9537 191.822 89.4131C195.943 90.8725 199.189 92.8804 201.558 95.437C203.928 97.9742 205.164 100.891 205.267 104.188H193.754ZM232.552 88.0645V149.445H220.615V88.0645H232.552ZM303.485 107.455C302.737 105.637 301.733 104.009 300.47 102.57C299.235 101.111 297.753 99.8732 296.028 98.8533C294.303 97.8142 292.331 97.0248 290.117 96.4867C287.927 95.9469 285.52 95.6762 282.893 95.6762C278.437 95.6762 274.419 96.5658 270.838 98.3452C267.259 100.123 264.426 102.73 262.338 106.166C260.278 109.584 259.249 113.769 259.249 118.724C259.249 123.7 260.292 127.906 262.377 131.343C264.464 134.779 267.322 137.386 270.956 139.164C274.587 140.943 278.721 141.831 283.356 141.831C287.658 141.831 291.404 141.153 294.598 139.793C297.819 138.436 300.303 136.518 302.055 134.04C303.832 131.542 304.72 128.605 304.72 125.228L307.812 125.678H285.171V118.035H316.273V125.019C316.273 130.174 314.856 134.649 312.023 138.445C309.215 142.222 305.325 145.139 300.355 147.198C295.409 149.255 289.743 150.283 283.356 150.283C276.196 150.283 269.911 149.005 264.503 146.447C259.12 143.89 254.922 140.263 251.908 135.568C248.896 130.853 247.388 125.258 247.388 118.784C247.388 113.889 248.263 109.493 250.015 105.596C251.767 101.702 254.226 98.3945 257.395 95.6762C260.589 92.9403 264.335 90.8514 268.637 89.4131C272.964 87.9537 277.69 87.2258 282.816 87.2258C287.091 87.2258 291.071 87.7146 294.754 88.694C298.462 89.6733 301.758 91.0606 304.643 92.8593C307.553 94.6581 309.963 96.7962 311.869 99.2736C313.775 101.732 315.062 104.459 315.731 107.455H303.485ZM395.288 88.0645V149.445H384.316L344.099 104.429H343.364V149.445H331.427V88.0645H342.476L382.732 133.14H383.466V88.0645H395.288Z" fill="#7B7070"/>
<path d="M5.57059 67.5548V16.7975H23.6439C27.5723 16.7975 30.832 17.4751 33.4234 18.8302C36.0311 20.1839 37.9788 22.0595 39.2662 24.4557C40.5537 26.8344 41.1973 29.5853 41.1973 32.7085C41.1973 35.8142 40.5454 38.5492 39.2414 40.9119C37.9541 43.2586 36.0065 45.0834 33.3985 46.3891C30.8072 47.6947 27.5474 48.3476 23.6192 48.3476H9.92799V41.7552H22.926C25.4017 41.7552 27.4154 41.399 28.9669 40.6895C30.5349 39.9785 31.682 38.9461 32.4083 37.591C33.1345 36.2359 33.4976 34.6089 33.4976 32.7085C33.4976 30.7921 33.1262 29.1317 32.3836 27.7271C31.6573 26.3226 30.5102 25.2481 28.9421 24.5051C27.3907 23.7447 25.3522 23.3652 22.8269 23.3652H13.2208V67.5548H5.57059ZM30.6009 44.6545L43.1285 67.5548H34.4137L22.1336 44.6545H30.6009ZM87.6443 16.7975H95.3193V50.1811C95.3193 53.7332 94.4858 56.8811 92.8188 59.6233C91.1518 62.3495 88.8079 64.4985 85.7875 66.0673C82.767 67.6202 79.2266 68.3981 75.1663 68.3981C71.1225 68.3981 67.5904 67.6202 64.5698 66.0673C61.5494 64.4985 59.2056 62.3495 57.5386 59.6233C55.8716 56.8811 55.038 53.7332 55.038 50.1811V16.7975H62.6883V49.5617C62.6883 51.859 63.1917 53.8989 64.1984 55.6829C65.2219 57.467 66.666 58.8716 68.5312 59.8966C70.3963 60.9042 72.6079 61.4088 75.1663 61.4088C77.7411 61.4088 79.9611 60.9042 81.8262 59.8966C83.7079 58.8716 85.1438 57.467 86.1341 55.6829C87.1409 53.8989 87.6443 51.859 87.6443 49.5617V16.7975ZM151.898 16.7975V67.5548H144.867L119.094 30.3298H118.624V67.5548H110.974V16.7975H118.054L143.852 54.0719H144.323V16.7975H151.898ZM175.24 16.7975V67.5548H167.59V16.7975H175.24ZM233.027 33.3032H225.301C225.005 31.6514 224.452 30.1974 223.643 28.9412C222.833 27.6864 221.844 26.6206 220.672 25.7439C219.5 24.8686 218.188 24.207 216.736 23.7621C215.3 23.3158 213.773 23.0918 212.155 23.0918C209.234 23.0918 206.618 23.8275 204.307 25.299C202.012 26.7689 200.197 28.9252 198.86 31.7663C197.54 34.6088 196.879 38.0781 196.879 42.1754C196.879 46.3062 197.54 49.7929 198.86 52.6354C200.197 55.4765 202.021 57.6241 204.332 59.078C206.643 60.532 209.243 61.259 212.13 61.259C213.731 61.259 215.25 61.0453 216.687 60.6149C218.139 60.1685 219.451 59.5171 220.623 58.6578C221.795 57.7985 222.784 56.7487 223.593 55.5099C224.418 54.2537 224.987 52.8171 225.301 51.1974L233.027 51.2221C232.613 53.7172 231.813 56.013 230.625 58.1126C229.452 60.1947 227.943 61.9947 226.094 63.5156C224.261 65.019 222.165 66.1837 219.805 67.0095C217.445 67.8354 214.871 68.2483 212.081 68.2483C207.69 68.2483 203.779 67.2072 200.346 65.1266C196.913 63.027 194.205 60.0289 192.226 56.1293C190.26 52.2297 189.279 47.5784 189.279 42.1754C189.279 36.7564 190.269 32.1051 192.25 28.223C194.23 24.3234 196.937 21.3325 200.371 19.2504C203.803 17.1523 207.707 16.104 212.081 16.104C214.771 16.104 217.281 16.4922 219.608 17.2686C221.952 18.0276 224.055 19.1515 225.92 20.6389C227.786 22.1089 229.329 23.9104 230.55 26.042C231.772 28.1561 232.597 30.5769 233.027 33.3032ZM290.757 42.1754C290.757 47.5959 289.766 52.2544 287.786 56.154C285.805 60.0376 283.091 63.027 279.641 65.1266C276.207 67.2072 272.303 68.2483 267.93 68.2483C263.539 68.2483 259.619 67.2072 256.169 65.1266C252.737 63.027 250.03 60.0289 248.05 56.1293C246.069 52.2297 245.078 47.5784 245.078 42.1754C245.078 36.7564 246.069 32.1051 248.05 28.223C250.03 24.3234 252.737 21.3325 256.169 19.2504C259.619 17.1523 263.539 16.104 267.93 16.104C272.303 16.104 276.207 17.1523 279.641 19.2504C283.091 21.3325 285.805 24.3234 287.786 28.223C289.766 32.1051 290.757 36.7564 290.757 42.1754ZM283.181 42.1754C283.181 38.0461 282.513 34.5667 281.175 31.7416C279.855 28.9005 278.039 26.7529 275.728 25.299C273.435 23.8275 270.835 23.0918 267.93 23.0918C265.009 23.0918 262.4 23.8275 260.107 25.299C257.812 26.7529 255.996 28.9005 254.66 31.7416C253.34 34.5667 252.679 38.0461 252.679 42.1754C252.679 46.3062 253.34 49.7929 254.66 52.6354C255.996 55.4605 257.812 57.6081 260.107 59.078C262.4 60.532 265.009 61.259 267.93 61.259C270.835 61.259 273.435 60.532 275.728 59.078C278.039 57.6081 279.855 55.4605 281.175 52.6354C282.513 49.7929 283.181 46.3062 283.181 42.1754ZM304.827 67.5548V16.7975H322.9C326.827 16.7975 330.088 17.4751 332.679 18.8302C335.287 20.1839 337.234 22.0595 338.523 24.4557C339.81 26.8344 340.453 29.5853 340.453 32.7085C340.453 35.8142 339.801 38.5492 338.498 40.9119C337.21 43.2586 335.262 45.0834 332.655 46.3891C330.063 47.6947 326.803 48.3476 322.875 48.3476H309.184V41.7552H322.182C324.657 41.7552 326.672 41.399 328.223 40.6895C329.79 39.9785 330.938 38.9461 331.664 37.591C332.39 36.2359 332.753 34.6089 332.753 32.7085C332.753 30.7921 332.382 29.1317 331.639 27.7271C330.913 26.3226 329.766 25.2481 328.198 24.5051C326.646 23.7447 324.608 23.3652 322.082 23.3652H312.477V67.5548H304.827ZM329.857 44.6545L342.385 67.5548H333.67L321.389 44.6545H329.857ZM395.218 16.7975V67.5548H388.187L362.414 30.3298H361.944V67.5548H354.294V16.7975H361.374L387.173 54.0719H387.642V16.7975H395.218Z" fill="#FF0000"/>
</svg>
