<svg width="664" height="169" viewBox="0 0 664 169" fill="none" xmlns="http://www.w3.org/2000/svg">
<path d="M292.148 149.445H266.534V88.0645H292.959C300.712 88.0645 307.37 89.2935 312.933 91.7516C318.497 94.1886 322.759 97.6947 325.721 102.27C328.709 106.825 330.203 112.29 330.203 118.664C330.203 125.059 328.696 130.554 325.682 135.148C322.695 139.744 318.368 143.28 312.701 145.758C307.035 148.216 300.184 149.445 292.148 149.445ZM278.472 141.353H291.491C297.518 141.353 302.528 140.474 306.52 138.716C310.512 136.936 313.5 134.369 315.483 131.013C317.466 127.637 318.458 123.52 318.458 118.664C318.458 113.85 317.466 109.764 315.483 106.407C313.526 103.05 310.602 100.503 306.713 98.7637C302.824 97.0247 297.995 96.1561 292.225 96.1561H278.472V141.353ZM345.048 149.445V88.0645H394.654V96.0366H356.986V114.738H392.065V122.68H356.986V141.473H395.118V149.445H345.048ZM453.754 104.188C453.342 101.352 451.642 99.154 448.655 97.5944C445.667 96.0172 441.906 95.2278 437.373 95.2278C434.128 95.2278 431.321 95.6269 428.951 96.4269C426.582 97.2058 424.74 98.2837 423.426 99.6639C422.139 101.021 421.495 102.57 421.495 104.309C421.495 105.767 421.933 107.026 422.808 108.084C423.71 109.145 424.882 110.033 426.324 110.752C427.792 111.452 429.363 112.041 431.037 112.521C432.712 112.979 434.321 113.359 435.867 113.66L443.593 115.218C446.118 115.698 448.706 116.347 451.359 117.166C454.012 117.985 456.472 119.065 458.738 120.403C461.005 121.741 462.833 123.401 464.224 125.377C465.641 127.357 466.349 129.724 466.349 132.481C466.349 135.959 465.19 139.044 462.872 141.742C460.58 144.439 457.244 146.568 452.866 148.126C448.513 149.684 443.246 150.465 437.064 150.465C431.14 150.465 426.015 149.735 421.688 148.275C417.361 146.818 413.974 144.75 411.527 142.072C409.08 139.375 407.728 136.178 407.471 132.481H419.447C419.679 134.7 420.606 136.548 422.229 138.026C423.877 139.484 425.976 140.574 428.526 141.293C431.102 141.991 433.922 142.341 436.987 142.341C440.361 142.341 443.362 141.932 445.989 141.112C448.642 140.273 450.728 139.115 452.247 137.636C453.767 136.138 454.527 134.388 454.527 132.391C454.527 130.573 453.857 129.084 452.518 127.925C451.204 126.766 449.414 125.808 447.148 125.048C444.907 124.289 442.37 123.619 439.537 123.04L430.188 121.062C423.851 119.724 418.829 117.755 415.12 115.158C411.437 112.561 409.595 109.124 409.595 104.847C409.595 101.311 410.832 98.2239 413.304 95.5864C415.777 92.949 419.125 90.9024 423.349 89.443C427.573 87.9643 432.338 87.2258 437.644 87.2258C443.001 87.2258 447.727 87.9537 451.822 89.4131C455.943 90.8725 459.189 92.8804 461.558 95.437C463.928 97.9742 465.164 100.891 465.267 104.188H453.754ZM492.552 88.0645V149.445H480.615V88.0645H492.552ZM563.485 107.455C562.737 105.637 561.733 104.009 560.47 102.57C559.235 101.111 557.753 99.8732 556.028 98.8533C554.303 97.8142 552.331 97.0248 550.117 96.4867C547.927 95.9469 545.52 95.6762 542.893 95.6762C538.437 95.6762 534.419 96.5658 530.838 98.3452C527.259 100.123 524.426 102.73 522.338 106.166C520.278 109.584 519.249 113.769 519.249 118.724C519.249 123.7 520.292 127.906 522.377 131.343C524.464 134.779 527.322 137.386 530.956 139.164C534.587 140.943 538.721 141.831 543.356 141.831C547.658 141.831 551.404 141.153 554.598 139.793C557.819 138.436 560.303 136.518 562.055 134.04C563.832 131.542 564.72 128.605 564.72 125.228L567.812 125.678H545.171V118.035H576.273V125.019C576.273 130.174 574.856 134.649 572.023 138.445C569.215 142.222 565.325 145.139 560.355 147.198C555.409 149.255 549.743 150.283 543.356 150.283C536.196 150.283 529.911 149.005 524.503 146.447C519.12 143.89 514.922 140.263 511.908 135.568C508.896 130.853 507.388 125.258 507.388 118.784C507.388 113.889 508.263 109.493 510.015 105.596C511.767 101.702 514.226 98.3945 517.395 95.6762C520.589 92.9403 524.335 90.8514 528.637 89.4131C532.964 87.9537 537.69 87.2258 542.816 87.2258C547.091 87.2258 551.071 87.7146 554.754 88.694C558.462 89.6733 561.758 91.0606 564.643 92.8593C567.553 94.6581 569.963 96.7962 571.869 99.2736C573.775 101.732 575.062 104.459 575.731 107.455H563.485ZM655.288 88.0645V149.445H644.316L604.099 104.429H603.364V149.445H591.427V88.0645H602.476L642.732 133.14H643.466V88.0645H655.288Z" fill="#7B7070"/>
<path d="M265.571 67.5548V16.7975H283.644C287.572 16.7975 290.832 17.4751 293.423 18.8302C296.031 20.1839 297.979 22.0595 299.266 24.4557C300.554 26.8344 301.197 29.5853 301.197 32.7085C301.197 35.8142 300.545 38.5492 299.241 40.9119C297.954 43.2586 296.006 45.0834 293.399 46.3891C290.807 47.6947 287.547 48.3476 283.619 48.3476H269.928V41.7552H282.926C285.402 41.7552 287.415 41.399 288.967 40.6895C290.535 39.9785 291.682 38.9461 292.408 37.591C293.134 36.2359 293.498 34.6089 293.498 32.7085C293.498 30.7921 293.126 29.1317 292.384 27.7271C291.657 26.3226 290.51 25.2481 288.942 24.5051C287.391 23.7447 285.352 23.3652 282.827 23.3652H273.221V67.5548H265.571ZM290.601 44.6545L303.128 67.5548H294.414L282.134 44.6545H290.601ZM347.644 16.7975H355.319V50.1811C355.319 53.7332 354.486 56.8811 352.819 59.6233C351.152 62.3495 348.808 64.4985 345.788 66.0673C342.767 67.6202 339.227 68.3981 335.166 68.3981C331.123 68.3981 327.59 67.6202 324.57 66.0673C321.549 64.4985 319.206 62.3495 317.539 59.6233C315.872 56.8811 315.038 53.7332 315.038 50.1811V16.7975H322.688V49.5617C322.688 51.859 323.192 53.8989 324.198 55.6829C325.222 57.467 326.666 58.8716 328.531 59.8966C330.396 60.9042 332.608 61.4088 335.166 61.4088C337.741 61.4088 339.961 60.9042 341.826 59.8966C343.708 58.8716 345.144 57.467 346.134 55.6829C347.141 53.8989 347.644 51.859 347.644 49.5617V16.7975ZM411.898 16.7975V67.5548H404.867L379.094 30.3298H378.624V67.5548H370.974V16.7975H378.054L403.852 54.0719H404.323V16.7975H411.898ZM435.24 16.7975V67.5548H427.59V16.7975H435.24ZM493.027 33.3032H485.301C485.005 31.6514 484.452 30.1974 483.643 28.9412C482.833 27.6864 481.844 26.6206 480.672 25.7439C479.5 24.8686 478.188 24.207 476.736 23.7621C475.3 23.3158 473.773 23.0918 472.155 23.0918C469.234 23.0918 466.618 23.8275 464.307 25.299C462.012 26.7689 460.197 28.9252 458.86 31.7663C457.54 34.6088 456.879 38.0781 456.879 42.1754C456.879 46.3062 457.54 49.7929 458.86 52.6354C460.197 55.4765 462.021 57.6241 464.332 59.078C466.643 60.532 469.243 61.259 472.13 61.259C473.731 61.259 475.25 61.0453 476.687 60.6149C478.139 60.1685 479.451 59.5171 480.623 58.6578C481.795 57.7985 482.784 56.7487 483.593 55.5099C484.418 54.2537 484.987 52.8171 485.301 51.1974L493.027 51.2221C492.613 53.7172 491.813 56.013 490.625 58.1126C489.452 60.1947 487.943 61.9947 486.094 63.5156C484.261 65.019 482.165 66.1837 479.805 67.0095C477.445 67.8354 474.871 68.2483 472.081 68.2483C467.69 68.2483 463.779 67.2072 460.346 65.1266C456.913 63.027 454.205 60.0289 452.226 56.1293C450.26 52.2297 449.279 47.5784 449.279 42.1754C449.279 36.7564 450.269 32.1051 452.25 28.223C454.23 24.3234 456.937 21.3325 460.371 19.2504C463.803 17.1523 467.707 16.104 472.081 16.104C474.771 16.104 477.281 16.4922 479.608 17.2686C481.952 18.0276 484.055 19.1515 485.92 20.6389C487.786 22.1089 489.329 23.9104 490.55 26.042C491.772 28.1561 492.597 30.5769 493.027 33.3032ZM550.757 42.1754C550.757 47.5959 549.766 52.2544 547.786 56.154C545.805 60.0376 543.091 63.027 539.641 65.1266C536.207 67.2072 532.303 68.2483 527.93 68.2483C523.539 68.2483 519.619 67.2072 516.169 65.1266C512.737 63.027 510.03 60.0289 508.05 56.1293C506.069 52.2297 505.078 47.5784 505.078 42.1754C505.078 36.7564 506.069 32.1051 508.05 28.223C510.03 24.3234 512.737 21.3325 516.169 19.2504C519.619 17.1523 523.539 16.104 527.93 16.104C532.303 16.104 536.207 17.1523 539.641 19.2504C543.091 21.3325 545.805 24.3234 547.786 28.223C549.766 32.1051 550.757 36.7564 550.757 42.1754ZM543.181 42.1754C543.181 38.0461 542.513 34.5667 541.175 31.7416C539.855 28.9005 538.039 26.7529 535.728 25.299C533.435 23.8275 530.835 23.0918 527.93 23.0918C525.009 23.0918 522.4 23.8275 520.107 25.299C517.812 26.7529 515.996 28.9005 514.66 31.7416C513.34 34.5667 512.679 38.0461 512.679 42.1754C512.679 46.3062 513.34 49.7929 514.66 52.6354C515.996 55.4605 517.812 57.6081 520.107 59.078C522.4 60.532 525.009 61.259 527.93 61.259C530.835 61.259 533.435 60.532 535.728 59.078C538.039 57.6081 539.855 55.4605 541.175 52.6354C542.513 49.7929 543.181 46.3062 543.181 42.1754ZM564.827 67.5548V16.7975H582.9C586.827 16.7975 590.088 17.4751 592.679 18.8302C595.287 20.1839 597.234 22.0595 598.523 24.4557C599.81 26.8344 600.453 29.5853 600.453 32.7085C600.453 35.8142 599.801 38.5492 598.498 40.9119C597.21 43.2586 595.262 45.0834 592.655 46.3891C590.063 47.6947 586.803 48.3476 582.875 48.3476H569.184V41.7552H582.182C584.657 41.7552 586.672 41.399 588.223 40.6895C589.79 39.9785 590.938 38.9461 591.664 37.591C592.39 36.2359 592.753 34.6089 592.753 32.7085C592.753 30.7921 592.382 29.1317 591.639 27.7271C590.913 26.3226 589.766 25.2481 588.198 24.5051C586.646 23.7447 584.608 23.3652 582.082 23.3652H572.477V67.5548H564.827ZM589.857 44.6545L602.385 67.5548H593.67L581.389 44.6545H589.857ZM655.218 16.7975V67.5548H648.187L622.414 30.3298H621.944V67.5548H614.294V16.7975H621.374L647.173 54.0719H647.642V16.7975H655.218Z" fill="#FF0000"/>
<g clip-path="url(#clip0_117_435)">
<path d="M128.801 110.382C125.812 110.382 122.891 109.975 120.038 109.159C117.321 108.344 114.535 107.665 111.682 107.122L112.09 106.306C111.682 105.219 110.663 104.54 109.033 104.268C107.538 103.996 105.908 103.793 104.142 103.657C102.376 103.657 101.017 103.521 100.066 103.249L99.0466 102.027H98.4352C96.9406 102.027 95.6501 101.619 94.563 100.804C93.476 100.124 92.457 99.3092 91.5061 98.3582L88.4491 98.7658L87.6339 97.3392V96.3203L86.6149 95.3013L85.7997 96.3203C84.4411 96.0484 82.8784 95.437 81.1123 94.4861C79.4819 93.5352 78.5986 92.3124 78.4629 90.8177C77.7834 90.1383 76.6967 88.8478 75.2021 86.9456C73.8436 84.9076 72.417 82.8696 70.9223 80.8317C69.5638 78.658 68.5448 77.0952 67.8653 76.1443L68.8843 74.3101L68.2729 73.0874L67.4577 73.2911C66.6425 72.6117 66.1668 71.6608 66.0311 70.438C66.0311 69.2152 66.0992 68.1281 66.2349 67.1772L64.6045 65.5468H63.9931C63.8574 66.4978 63.4498 67.6529 62.7703 69.0114C62.227 70.3699 61.3437 71.0494 60.1209 71.0494V69.6228L58.8981 67.9924H58.6943C58.151 67.9924 57.6753 68.2643 57.2677 68.8076C56.9958 69.2152 56.9958 69.7585 57.2677 70.438C56.8601 70.9813 56.4525 71.525 56.0449 72.0684C55.6373 72.476 55.4335 73.0193 55.4335 73.6987L56.4525 75.5329L58.0829 75.1253L58.8981 75.5329C58.8981 75.9405 58.0829 77.0276 56.4525 78.7937C54.8221 80.5598 53.1236 82.7339 51.3575 85.3152C49.5914 87.7608 48.5043 90.3421 48.0967 93.0595L45.6511 94.4861L47.2815 95.5051L48.0967 97.1355L46.6701 99.7848L47.4853 100.6C47.6211 101.279 47.7572 101.959 47.8929 102.638C48.1648 103.453 48.5043 104.133 48.9119 104.676L49.9309 105.084C51.2895 105.084 52.8522 104.608 54.6183 103.657C56.5206 102.706 58.3548 101.551 60.1209 100.192C62.0232 98.9696 63.5174 98.0187 64.6045 97.3392L65.4197 98.3582C65.284 98.9016 64.5364 99.9205 63.1779 101.415C61.9551 103.046 60.5966 104.608 59.1019 106.103C57.6072 107.597 56.5882 108.752 56.0449 109.567H53.3955C51.3575 109.567 48.9119 109.228 46.0587 108.548C43.2055 108.005 40.6241 106.986 38.3143 105.491C36.1405 104.133 35.0535 102.162 35.0535 99.581C35.0535 96.456 35.8687 92.6519 37.4991 88.1684C39.1295 83.5491 41.0995 78.7937 43.4093 73.9025C45.8549 69.0114 48.3005 64.3921 50.7461 60.0443C53.3274 55.6965 55.4335 52.0962 57.0639 49.243L56.4525 48.2241C55.2297 48.2241 54.4145 47.4089 54.0069 45.7785C53.735 44.1481 53.5312 42.4498 53.3955 40.6835C53.3955 38.9173 53.056 37.8983 52.3765 37.6266H52.1727L51.7651 36.2L52.5803 33.9582C54.4826 33.2789 56.4525 32.6675 58.4905 32.1241C60.5285 31.4447 62.6346 31.1051 64.8083 31.1051L63.9931 31.5127L67.4577 32.7354L77.4439 17.4506C75.9492 17.4506 73.1641 17.7903 69.0881 18.4696C65.1478 19.149 60.5966 20.0321 55.4335 21.119C50.4066 22.2059 45.4473 23.4966 40.5561 24.9911C35.8008 26.3498 31.7928 27.8443 28.532 29.4747C25.407 30.9692 23.7087 32.4637 23.437 33.9582L25.0674 34.5696C26.0184 34.0262 26.9695 33.7544 27.9206 33.7544C29.0075 33.6186 30.0944 33.5506 31.1814 33.5506L34.0346 32.5316L33.8308 32.9392C30.8417 34.8414 28.1244 37.0152 25.6788 39.4608C23.2332 41.7705 20.7876 44.2161 18.342 46.7975L17.1192 47.2051L16.304 48.6317L14.0622 49.0392L13.8584 49.4468L14.0622 53.1152L7.133 49.6506C6.58954 48.156 5.77435 46.7975 4.6874 45.5747C3.73634 44.3519 3.2608 42.9253 3.2608 41.2949C8.42374 34.9093 14.6056 30.0861 21.8066 26.8253C29.0075 23.4287 36.1405 20.0321 43.2055 16.6354L43.0017 16.8392C43.2736 16.9751 43.6812 17.111 44.2245 17.2468C44.7679 17.3827 45.1755 17.4506 45.4473 17.4506C46.5344 17.4506 47.6211 17.2468 48.7081 16.8392C49.7952 16.2958 50.8819 15.8882 51.9689 15.6165V16.0241C53.1917 15.7523 54.4145 15.4806 55.6373 15.2089C56.8601 14.8013 58.151 14.3257 59.5095 13.7823V14.1899L62.5665 13.1709V12.9671L63.5855 13.1709L63.3817 12.9671L65.6235 11.9481L66.8463 12.3557L66.4387 11.9481H67.0501V12.3557H70.1071L71.5337 11.7443L71.9413 11.1329L77.4439 11.3367L77.6477 11.1329L79.4819 10.3177C80.4328 10.3177 81.3161 10.3177 82.1313 10.3177C83.0822 10.1819 84.0335 10.1139 84.9845 10.1139C85.9354 9.027 86.7506 7.73628 87.4301 6.24177C88.2453 4.74726 89.5361 4 91.3023 4C93.2045 4 94.9026 4.4076 96.3972 5.22279C97.8919 6.03797 99.5223 6.44557 101.288 6.44557C101.56 7.26076 102.647 8.07595 104.549 8.89114C106.451 9.57048 108.557 10.1819 110.867 10.7253C113.313 11.1329 115.622 11.4726 117.796 11.7443C119.97 11.8802 121.533 11.9481 122.484 11.9481L131.247 14.5975L131.858 14.3937C133.081 14.3937 134.78 15.2089 136.953 16.8392C139.127 18.4696 141.233 20.2359 143.271 22.138C145.445 24.0401 147.008 25.4667 147.959 26.4177C148.23 27.3688 148.502 28.3878 148.774 29.4747C149.046 30.5616 149.453 31.5806 149.997 32.5316C149.453 37.6945 148.502 41.5667 147.143 44.1481C145.785 46.5937 143.814 48.3598 141.233 49.4468C138.652 50.5339 135.119 51.6886 130.636 52.9114L127.986 52.7076V53.7266H127.579L126.763 52.9114L118.611 55.357V54.1342C116.03 55.9003 114.06 56.7836 112.701 56.7836C111.478 56.7836 109.508 56.9193 106.791 57.1911L106.587 56.7836C106.044 57.3269 105.5 57.6668 104.957 57.8025C104.413 57.8025 103.802 57.8025 103.123 57.8025C100.949 57.8025 98.9109 58.3459 97.0086 59.4329C95.2425 60.52 93.3402 60.9276 91.3023 60.6557V61.6747L90.2833 61.4709L89.4681 60.6557L89.0605 61.4709V61.6747L88.6529 61.4709C88.381 61.3352 88.1095 61.2671 87.8377 61.2671C87.5658 61.1314 87.2943 61.0633 87.0225 61.0633C86.343 61.0633 85.6639 61.199 84.9845 61.4709C84.305 61.6066 83.6259 61.6747 82.9465 61.6747L83.1503 60.4519L82.7427 60.6557C81.5199 60.3838 80.229 60.3838 78.8705 60.6557C77.6477 60.9276 76.4249 61.199 75.2021 61.4709C78.5986 68.5357 81.7917 74.3782 84.7807 78.9975C87.7696 83.481 91.2342 87.557 95.1744 91.2253C99.2504 94.8937 104.481 98.9696 110.867 103.453C114.4 103.725 117.932 104.336 121.465 105.287C124.997 106.374 128.598 106.918 132.266 106.918C134.304 106.918 136.342 106.714 138.38 106.306C140.418 105.899 142.456 105.695 144.494 105.695H145.309C144.494 106.374 142.999 107.053 140.826 107.733C138.652 108.548 136.41 109.159 134.1 109.567C131.79 110.11 130.024 110.382 128.801 110.382ZM73.1641 56.7836C81.1803 55.2889 89.0605 53.6585 96.8048 51.8924C104.685 50.1263 112.362 47.8845 119.834 45.1671L120.038 44.9633C122.484 44.0123 125.065 42.9253 127.782 41.7025C130.5 40.3439 132.877 38.6456 134.915 36.6076C136.953 34.5696 137.972 32.1241 137.972 29.2709C137.429 28.0481 136.682 26.7574 135.731 25.3987C134.78 24.0401 133.489 23.2249 131.858 22.9532C130.771 22.4097 129.209 21.7304 127.171 20.9152C125.269 19.9642 123.299 19.081 121.261 18.2658C119.223 17.4506 117.524 16.9751 116.166 16.8392V17.043H115.554C114.739 16.6354 113.992 16.4316 113.313 16.4316C112.769 16.4316 112.226 16.4996 111.682 16.6354C111.139 16.7713 110.527 16.8392 109.848 16.8392L108.218 15.6165H105.772C104.277 15.6165 102.783 15.6165 101.288 15.6165C99.7938 15.4806 98.2995 15.3447 96.8048 15.2089C95.0387 16.8392 92.7969 19.149 90.0795 22.138C87.4981 24.9911 84.9845 27.9802 82.5389 31.1051C80.229 34.0941 78.5986 36.7435 77.6477 39.0532V41.0911C76.153 41.7705 74.9302 42.9253 73.9793 44.5557C73.0284 46.1861 72.2132 47.6807 71.5337 49.0392C72.6208 51.8924 73.1641 54.4737 73.1641 56.7836ZM131.858 22.9532C132.674 23.3608 133.149 23.6325 133.285 23.7684C133.421 23.7684 133.081 23.5646 132.266 23.157L131.858 22.9532ZM66.8463 96.5241L65.4197 96.1165C65.4197 95.437 65.8273 94.8256 66.6425 94.2823C67.5934 93.6028 68.341 93.1952 68.8843 93.0595L69.4957 93.4671L66.8463 96.5241Z" fill="#7B7070"/>
<path d="M131.247 159.701L126.356 159.09C124.725 158.003 123.435 156.576 122.484 154.81C121.668 153.18 120.921 151.549 120.242 149.919H119.223C116.913 149.919 115.419 150.327 114.739 151.142C114.196 152.093 113.652 152.976 113.109 153.791C112.565 154.742 111.207 155.218 109.033 155.218C107.538 155.218 105.976 155.014 104.345 154.606C102.715 154.334 101.085 154.199 99.4542 154.199C98.5033 154.199 97.62 154.334 96.8048 154.606C96.1254 154.878 95.3102 155.014 94.3593 155.014C92.3213 155.014 90.1475 154.674 87.8377 153.995C85.5278 153.315 83.4898 152.229 81.7237 150.734C80.0933 149.24 79.2781 147.338 79.2781 145.028C79.2781 141.767 80.5689 139.186 83.1503 137.284C85.8677 135.246 88.6529 134.023 91.5061 133.615L91.0985 134.023C89.6038 134.974 87.8377 136.196 85.7997 137.691C83.7617 139.05 82.7427 140.816 82.7427 142.99C82.7427 144.892 83.8974 146.386 86.2073 147.473C88.6529 148.56 90.6909 149.104 92.3213 149.104L93.3403 148.696C94.9706 149.104 96.8729 149.308 99.0466 149.308C102.307 149.308 105.704 149.036 109.237 148.492C112.905 147.949 115.962 147.405 118.408 146.862V145.435C117.185 143.669 116.573 141.971 116.573 140.341L118.815 134.838L117.389 132.8L119.223 129.335V128.724L117.592 128.52L116.573 129.335V129.132L117.389 127.909C116.981 126.143 117.253 124.172 118.204 121.999C119.291 119.825 120.378 117.651 121.465 115.477C122.687 113.167 123.299 111.129 123.299 109.363C124.386 108.412 125.609 106.578 126.967 103.861C128.462 101.008 129.888 98.0864 131.247 95.0975C132.606 92.1086 133.693 89.8668 134.508 88.3722C137.089 83.2092 140.01 78.2504 143.271 73.4949C146.532 68.6038 149.997 63.8484 153.665 59.2291C152.306 59.6367 150.947 60.0443 149.589 60.4519C148.366 60.8595 147.008 61.0633 145.513 61.0633C144.562 61.7428 142.592 62.4899 139.603 63.3051C136.614 64.1203 133.421 65.0035 130.024 65.9544C126.763 66.7696 123.91 67.6529 121.465 68.6038C119.019 69.419 117.796 70.2342 117.796 71.0494L118.408 72.0684L121.668 69.8266L122.484 70.2342L123.706 69.2152L123.91 70.0304C123.91 71.6608 123.503 73.0873 122.687 74.3101L121.872 72.476L120.038 73.6987L120.446 75.1253L119.223 75.5329C119.902 75.9405 120.446 76.4838 120.853 77.1633C121.397 77.8428 121.872 78.5218 122.28 79.2013C119.155 79.337 116.166 80.4241 113.313 82.462C110.595 84.3643 107.674 85.519 104.549 85.9266C103.87 86.8775 102.987 87.4889 101.9 87.7608C100.813 88.0326 99.7261 88.1684 98.639 88.1684C97.9596 88.1684 96.9406 87.557 95.582 86.3342C94.2235 84.9757 93.0007 83.5491 91.9137 82.0544C90.9627 80.4241 90.4871 79.2693 90.4871 78.5899C90.4871 77.0952 91.3703 75.5329 93.1365 73.9025C94.9026 72.2722 96.2615 71.0494 97.2124 70.2342L94.9706 74.3101C96.601 73.2231 98.9109 72.0684 101.9 70.8456C104.889 69.6228 107.946 68.4681 111.071 67.381C114.332 66.1582 117.253 65.0035 119.834 63.9165C122.416 62.6937 124.182 61.6747 125.133 60.8595C130.432 59.3648 135.799 58.0063 141.233 56.7835C146.804 55.425 152.306 54.4737 157.741 53.9304C158.42 53.1152 159.507 51.8924 161.002 50.262C162.632 48.4959 164.263 46.9332 165.893 45.5747C167.523 44.0802 168.882 43.3329 169.969 43.3329C172.415 43.3329 174.588 43.4688 176.491 43.7405C178.393 43.8764 179.819 45.2352 180.77 47.8165C180.77 49.3111 180.159 50.6696 178.936 51.8924C177.849 52.9795 176.762 53.8623 175.675 54.5418L177.713 54.9494C178.8 54.5418 179.683 53.8623 180.363 52.9114L181.586 52.7076H181.993C182.808 52.7076 183.488 52.9114 184.031 53.319C184.711 53.7266 185.322 54.2023 185.865 54.7456L188.107 53.7266C191.504 53.7266 195.648 54.6098 200.539 56.376C205.43 58.0063 210.253 60.2481 215.009 63.1013C219.9 65.9544 223.908 69.2152 227.033 72.8836C230.294 76.4162 231.924 80.1522 231.924 84.0924C231.924 85.8585 231.788 87.625 231.516 89.3911C231.245 91.0215 230.973 92.6519 230.701 94.2823L229.478 93.8747L228.459 94.6899V95.0975L230.09 96.9317C229.139 99.9205 227.644 102.774 225.606 105.491C223.704 108.072 221.598 110.382 219.288 112.42C217.115 112.964 214.941 114.39 212.767 116.7C210.593 119.01 208.351 120.708 206.041 121.795C204.547 123.561 202.984 124.784 201.354 125.463C199.724 126.143 198.161 127.637 196.667 129.947L194.832 128.113L194.425 128.724L194.629 129.947C194.629 131.034 193.61 131.577 191.572 131.577C191.028 131.577 190.485 131.577 189.941 131.577C189.534 131.441 189.194 131.373 188.922 131.373L187.903 132.392L188.107 134.023C187.971 134.159 187.292 134.634 186.069 135.449C184.982 136.265 184.439 136.333 184.439 135.653H184.031C181.721 137.012 179.616 138.303 177.713 139.525L176.287 138.506L175.268 140.341C175.132 140.069 174.86 139.661 174.453 139.118C174.045 138.438 173.569 138.031 173.026 137.895L170.784 140.341H170.58L168.135 139.118L165.893 140.748L164.874 139.933L161.409 141.563L161.613 141.767H163.04L164.263 142.99V143.194H163.651L160.39 142.378L158.149 143.194L156.926 142.99C158.284 141.903 159.847 140.952 161.613 140.137L160.39 139.525L157.741 141.563L155.907 140.748V141.563C154.684 141.835 153.801 142.378 153.257 143.194V145.028L152.442 145.232L150.2 144.213C149.521 144.485 148.842 144.756 148.162 145.028C147.619 145.3 147.075 145.639 146.532 146.047C143.814 146.319 141.165 146.998 138.584 148.085C136.002 149.308 133.285 149.919 130.432 149.919L128.801 149.104L128.598 154.199L130.024 157.256H130.228L131.451 159.09V159.294L131.247 159.701ZM129.005 143.805C139.875 140.544 150.404 136.604 160.594 131.985C170.92 127.229 181.042 122.134 190.96 116.7L191.979 116.904L192.998 116.7L192.794 115.885L193.406 115.07L194.425 115.885L196.87 114.051L196.667 113.643L195.444 113.235C195.851 112.148 197.55 110.79 200.539 109.16C203.528 107.393 206.789 105.355 210.321 103.046C213.99 100.6 217.182 97.8149 219.9 94.6899C222.617 91.4291 223.976 87.6927 223.976 83.481C223.976 78.8617 222.685 75.0573 220.104 72.0684C217.522 68.9433 214.193 66.4301 210.117 64.5279C206.041 62.6256 201.558 61.199 196.667 60.2481C191.911 59.2972 187.292 58.6177 182.808 58.2101C178.325 57.8025 174.453 57.5987 171.192 57.5987C169.833 58.9573 168.814 60.3838 168.135 61.8785C167.591 63.237 166.844 64.3921 165.893 65.343C164.942 66.294 163.312 66.7696 161.002 66.7696L159.371 68.1962V70.2342C157.333 71.1851 155.839 73.0193 154.888 75.7367C153.937 78.318 152.782 80.4921 151.423 82.2582L151.016 83.8886L151.627 84.5L147.755 91.0215L147.347 92.6519L146.532 92.0405C146.532 92.8557 145.989 94.5542 144.902 97.1354C143.814 99.581 142.524 102.366 141.029 105.491C139.535 108.48 138.176 111.401 136.953 114.254C135.866 117.108 135.187 119.281 134.915 120.776C133.964 121.727 133.081 123.833 132.266 127.094C131.451 130.219 130.771 133.411 130.228 136.672C129.685 139.933 129.277 142.31 129.005 143.805ZM164.059 139.118C165.146 138.71 166.165 138.031 167.116 137.08L166.301 136.672C165.757 136.808 165.213 137.08 164.67 137.487C164.263 137.759 163.787 138.031 163.244 138.303L164.059 139.118Z" fill="#FF0000"/>
</g>
<defs>
<clipPath id="clip0_117_435">
<rect width="236" height="161" fill="white" transform="translate(0 4)"/>
</clipPath>
</defs>
</svg>
