<svg width="580" height="395" viewBox="0 0 580 395" fill="none" xmlns="http://www.w3.org/2000/svg">
<line x1="2" y1="311.5" x2="262" y2="311.5" stroke="black"/>
<g filter="url(#filter0_d_370_19)">
<path d="M3.25 301V266.091H18.3182C20.9091 266.091 23.1761 266.562 25.1193 267.506C27.0625 268.449 28.5739 269.807 29.6534 271.58C30.733 273.352 31.2727 275.477 31.2727 277.955C31.2727 280.455 30.7159 282.562 29.6023 284.278C28.5 285.994 26.9489 287.29 24.9489 288.165C22.9602 289.04 20.6364 289.477 17.9773 289.477H8.97727V282.114H16.0682C17.1818 282.114 18.1307 281.977 18.9148 281.705C19.7102 281.42 20.3182 280.972 20.7386 280.358C21.1705 279.744 21.3864 278.943 21.3864 277.955C21.3864 276.955 21.1705 276.142 20.7386 275.517C20.3182 274.881 19.7102 274.415 18.9148 274.119C18.1307 273.812 17.1818 273.659 16.0682 273.659H12.7273V301H3.25ZM23.7045 284.977L32.4318 301H22.1364L13.6136 284.977H23.7045ZM67.4916 266.091H76.9689V288.455C76.9689 291.114 76.3325 293.415 75.0598 295.358C73.7984 297.29 72.037 298.784 69.7757 299.841C67.5143 300.886 64.8893 301.409 61.9007 301.409C58.8893 301.409 56.253 300.886 53.9916 299.841C51.7302 298.784 49.9689 297.29 48.7075 295.358C47.4575 293.415 46.8325 291.114 46.8325 288.455V266.091H56.3098V287.636C56.3098 288.716 56.5484 289.682 57.0257 290.534C57.503 291.375 58.162 292.034 59.003 292.511C59.8552 292.989 60.8211 293.227 61.9007 293.227C62.9916 293.227 63.9575 292.989 64.7984 292.511C65.6393 292.034 66.2984 291.375 66.7757 290.534C67.253 289.682 67.4916 288.716 67.4916 287.636V266.091ZM123.198 266.091V301H115.289L102.675 282.659H102.47V301H92.9931V266.091H101.039L113.448 284.364H113.72V266.091H123.198Z" fill="#FF0000"/>
<path d="M152.632 301H139.201V266.091H152.496C156.087 266.091 159.189 266.79 161.803 268.188C164.428 269.574 166.451 271.574 167.871 274.188C169.303 276.79 170.019 279.909 170.019 283.545C170.019 287.182 169.309 290.307 167.888 292.92C166.468 295.523 164.456 297.523 161.854 298.92C159.252 300.307 156.178 301 152.632 301ZM148.678 292.955H152.292C154.019 292.955 155.49 292.676 156.706 292.119C157.934 291.562 158.865 290.602 159.502 289.239C160.149 287.875 160.473 285.977 160.473 283.545C160.473 281.114 160.144 279.216 159.485 277.852C158.837 276.489 157.882 275.528 156.621 274.972C155.371 274.415 153.837 274.136 152.019 274.136H148.678V292.955ZM185.924 301V266.091H211.083V273.727H195.401V279.727H209.787V287.364H195.401V293.364H211.015V301H185.924ZM236.849 266.091L244.008 290.705H244.28L251.439 266.091H262.144L250.621 301H237.667L226.144 266.091H236.849Z" fill="black"/>
</g>
<g filter="url(#filter1_d_370_19)">
<path d="M317 261C309.667 261 302.5 260 295.5 258C288.833 256 282 254.333 275 253L276 251C275 248.333 272.5 246.667 268.5 246C264.833 245.333 260.833 244.833 256.5 244.5C252.167 244.5 248.833 244.167 246.5 243.5L244 240.5H242.5C238.833 240.5 235.667 239.5 233 237.5C230.333 235.833 227.833 233.833 225.5 231.5L218 232.5L216 229V226.5L213.5 224L211.5 226.5C208.167 225.833 204.333 224.333 200 222C196 219.667 193.833 216.667 193.5 213C191.833 211.333 189.167 208.167 185.5 203.5C182.167 198.5 178.667 193.5 175 188.5C171.667 183.167 169.167 179.333 167.5 177L170 172.5L168.5 169.5L166.5 170C164.5 168.333 163.333 166 163 163C163 160 163.167 157.333 163.5 155L159.5 151H158C157.667 153.333 156.667 156.167 155 159.5C153.667 162.833 151.5 164.5 148.5 164.5V161L145.5 157H145C143.667 157 142.5 157.667 141.5 159C140.833 160 140.833 161.333 141.5 163C140.5 164.333 139.5 165.667 138.5 167C137.5 168 137 169.333 137 171L139.5 175.5L143.5 174.5L145.5 175.5C145.5 176.5 143.5 179.167 139.5 183.5C135.5 187.833 131.333 193.167 127 199.5C122.667 205.5 120 211.833 119 218.5L113 222L117 224.5L119 228.5L115.5 235L117.5 237C117.833 238.667 118.167 240.333 118.5 242C119.167 244 120 245.667 121 247L123.5 248C126.833 248 130.667 246.833 135 244.5C139.667 242.167 144.167 239.333 148.5 236C153.167 233 156.833 230.667 159.5 229L161.5 231.5C161.167 232.833 159.333 235.333 156 239C153 243 149.667 246.833 146 250.5C142.333 254.167 139.833 257 138.5 259H132C127 259 121 258.167 114 256.5C107 255.167 100.667 252.667 95 249C89.6667 245.667 87 240.833 87 234.5C87 226.833 89 217.5 93 206.5C97 195.167 101.833 183.5 107.5 171.5C113.5 159.5 119.5 148.167 125.5 137.5C131.833 126.833 137 118 141 111L139.5 108.5C136.5 108.5 134.5 106.5 133.5 102.5C132.833 98.5 132.333 94.3333 132 90C132 85.6667 131.167 83.1667 129.5 82.5H129L128 79L130 73.5C134.667 71.8333 139.5 70.3333 144.5 69C149.5 67.3333 154.667 66.5 160 66.5L158 67.5L166.5 70.5L191 33C187.333 33 180.5 33.8333 170.5 35.5C160.833 37.1667 149.667 39.3333 137 42C124.667 44.6667 112.5 47.8333 100.5 51.5C88.8333 54.8333 79 58.5 71 62.5C63.3333 66.1667 59.1667 69.8333 58.5 73.5L62.5 75C64.8333 73.6667 67.1667 73 69.5 73C72.1667 72.6667 74.8333 72.5 77.5 72.5L84.5 70L84 71C76.6667 75.6667 70 81 64 87C58 92.6667 52 98.6667 46 105L43 106L41 109.5L35.5 110.5L35 111.5L35.5 120.5L18.5 112C17.1667 108.333 15.1667 105 12.5 102C10.1667 99 9 95.5 9 91.5C21.6667 75.8333 36.8333 64 54.5 56C72.1667 47.6667 89.6667 39.3333 107 31L106.5 31.5C107.167 31.8333 108.167 32.1667 109.5 32.5C110.833 32.8333 111.833 33 112.5 33C115.167 33 117.833 32.5 120.5 31.5C123.167 30.1667 125.833 29.1667 128.5 28.5V29.5C131.5 28.8333 134.5 28.1667 137.5 27.5C140.5 26.5 143.667 25.3333 147 24V25L154.5 22.5V22L157 22.5L156.5 22L162 19.5L165 20.5L164 19.5H165.5V20.5H173L176.5 19L177.5 17.5L191 18L191.5 17.5L196 15.5C198.333 15.5 200.5 15.5 202.5 15.5C204.833 15.1667 207.167 15 209.5 15C211.833 12.3333 213.833 9.16665 215.5 5.49999C217.5 1.83332 220.667 -1.0252e-05 225 -1.0252e-05C229.667 -1.0252e-05 233.833 0.999992 237.5 3C241.167 4.99999 245.167 5.99999 249.5 5.99999C250.167 7.99999 252.833 9.99999 257.5 12C262.167 13.6667 267.333 15.1667 273 16.5C279 17.5 284.667 18.3333 290 19C295.333 19.3333 299.167 19.5 301.5 19.5L323 26L324.5 25.5C327.5 25.5 331.667 27.5 337 31.5C342.333 35.5 347.5 39.8333 352.5 44.5C357.833 49.1667 361.667 52.6667 364 55C364.667 57.3333 365.333 59.8333 366 62.5C366.667 65.1667 367.667 67.6667 369 70C367.667 82.6667 365.333 92.1667 362 98.5C358.667 104.5 353.833 108.833 347.5 111.5C341.167 114.167 332.5 117 321.5 120L315 119.5V122H314L312 120L292 126V123C285.667 127.333 280.833 129.5 277.5 129.5C274.5 129.5 269.667 129.833 263 130.5L262.5 129.5C261.167 130.833 259.833 131.667 258.5 132C257.167 132 255.667 132 254 132C248.667 132 243.667 133.333 239 136C234.667 138.667 230 139.667 225 139V141.5L222.5 141L220.5 139L219.5 141V141.5L218.5 141C217.833 140.667 217.167 140.5 216.5 140.5C215.833 140.167 215.167 140 214.5 140C212.833 140 211.167 140.333 209.5 141C207.833 141.333 206.167 141.5 204.5 141.5L205 138.5L204 139C201 138.333 197.833 138.333 194.5 139C191.5 139.667 188.5 140.333 185.5 141C193.833 158.333 201.667 172.667 209 184C216.333 195 224.833 205 234.5 214C244.5 223 257.333 233 273 244C281.667 244.667 290.333 246.167 299 248.5C307.667 251.167 316.5 252.5 325.5 252.5C330.5 252.5 335.5 252 340.5 251C345.5 250 350.5 249.5 355.5 249.5H357.5C355.5 251.167 351.833 252.833 346.5 254.5C341.167 256.5 335.667 258 330 259C324.333 260.333 320 261 317 261ZM180.5 129.5C200.167 125.833 219.5 121.833 238.5 117.5C257.833 113.167 276.667 107.667 295 101L295.5 100.5C301.5 98.1667 307.833 95.5 314.5 92.5C321.167 89.1667 327 85 332 80C337 75 339.5 69 339.5 62C338.167 59 336.333 55.8333 334 52.5C331.667 49.1667 328.5 47.1667 324.5 46.5C321.833 45.1667 318 43.5 313 41.5C308.333 39.1667 303.5 37 298.5 35C293.5 33 289.333 31.8333 286 31.5V32H284.5C282.5 31 280.667 30.5 279 30.5C277.667 30.5 276.333 30.6667 275 31C273.667 31.3333 272.167 31.5 270.5 31.5L266.5 28.5H260.5C256.833 28.5 253.167 28.5 249.5 28.5C245.833 28.1667 242.167 27.8333 238.5 27.5C234.167 31.5 228.667 37.1667 222 44.5C215.667 51.5 209.5 58.8333 203.5 66.5C197.833 73.8333 193.833 80.3333 191.5 86V91C187.833 92.6667 184.833 95.5 182.5 99.5C180.167 103.5 178.167 107.167 176.5 110.5C179.167 117.5 180.5 123.833 180.5 129.5ZM324.5 46.5C326.5 47.5 327.667 48.1667 328 48.5C328.333 48.5 327.5 48 325.5 47L324.5 46.5ZM165 227L161.5 226C161.5 224.333 162.5 222.833 164.5 221.5C166.833 219.833 168.667 218.833 170 218.5L171.5 219.5L165 227Z" fill="black"/>
</g>
<path d="M323 382L311 380.5C307 377.833 303.833 374.333 301.5 370C299.5 366 297.667 362 296 358H293.5C287.833 358 284.167 359 282.5 361C281.167 363.333 279.833 365.5 278.5 367.5C277.167 369.833 273.833 371 268.5 371C264.833 371 261 370.5 257 369.5C253 368.833 249 368.5 245 368.5C242.667 368.5 240.5 368.833 238.5 369.5C236.833 370.167 234.833 370.5 232.5 370.5C227.5 370.5 222.167 369.667 216.5 368C210.833 366.333 205.833 363.667 201.5 360C197.5 356.333 195.5 351.667 195.5 346C195.5 338 198.667 331.667 205 327C211.667 322 218.5 319 225.5 318L224.5 319C220.833 321.333 216.5 324.333 211.5 328C206.5 331.333 204 335.667 204 341C204 345.667 206.833 349.333 212.5 352C218.5 354.667 223.5 356 227.5 356L230 355C234 356 238.667 356.5 244 356.5C252 356.5 260.333 355.833 269 354.5C278 353.167 285.5 351.833 291.5 350.5V347C288.5 342.667 287 338.5 287 334.5L292.5 321L289 316L293.5 307.5V306L289.5 305.5L287 307.5V307L289 304C288 299.667 288.667 294.833 291 289.5C293.667 284.167 296.333 278.833 299 273.5C302 267.833 303.5 262.833 303.5 258.5C306.167 256.167 309.167 251.667 312.5 245C316.167 238 319.667 230.833 323 223.5C326.333 216.167 329 210.667 331 207C337.333 194.333 344.5 182.167 352.5 170.5C360.5 158.5 369 146.833 378 135.5C374.667 136.5 371.333 137.5 368 138.5C365 139.5 361.667 140 358 140C355.667 141.667 350.833 143.5 343.5 145.5C336.167 147.5 328.333 149.667 320 152C312 154 305 156.167 299 158.5C293 160.5 290 162.5 290 164.5L291.5 167L299.5 161.5L301.5 162.5L304.5 160L305 162C305 166 304 169.5 302 172.5L300 168L295.5 171L296.5 174.5L293.5 175.5C295.167 176.5 296.5 177.833 297.5 179.5C298.833 181.167 300 182.833 301 184.5C293.333 184.833 286 187.5 279 192.5C272.333 197.167 265.167 200 257.5 201C255.833 203.333 253.667 204.833 251 205.5C248.333 206.167 245.667 206.5 243 206.5C241.333 206.5 238.833 205 235.5 202C232.167 198.667 229.167 195.167 226.5 191.5C224.167 187.5 223 184.667 223 183C223 179.333 225.167 175.5 229.5 171.5C233.833 167.5 237.167 164.5 239.5 162.5L234 172.5C238 169.833 243.667 167 251 164C258.333 161 265.833 158.167 273.5 155.5C281.5 152.5 288.667 149.667 295 147C301.333 144 305.667 141.5 308 139.5C321 135.833 334.167 132.5 347.5 129.5C361.167 126.167 374.667 123.833 388 122.5C389.667 120.5 392.333 117.5 396 113.5C400 109.167 404 105.333 408 102C412 98.3333 415.333 96.5 418 96.5C424 96.5 429.333 96.8333 434 97.5C438.667 97.8333 442.167 101.167 444.5 107.5C444.5 111.167 443 114.5 440 117.5C437.333 120.167 434.667 122.333 432 124L437 125C439.667 124 441.833 122.333 443.5 120L446.5 119.5H447.5C449.5 119.5 451.167 120 452.5 121C454.167 122 455.667 123.167 457 124.5L462.5 122C470.833 122 481 124.167 493 128.5C505 132.5 516.833 138 528.5 145C540.5 152 550.333 160 558 169C566 177.667 570 186.833 570 196.5C570 200.833 569.667 205.167 569 209.5C568.333 213.5 567.667 217.5 567 221.5L564 220.5L561.5 222.5V223.5L565.5 228C563.167 235.333 559.5 242.333 554.5 249C549.833 255.333 544.667 261 539 266C533.667 267.333 528.333 270.833 523 276.5C517.667 282.167 512.167 286.333 506.5 289C502.833 293.333 499 296.333 495 298C491 299.667 487.167 303.333 483.5 309L479 304.5L478 306L478.5 309C478.5 311.667 476 313 471 313C469.667 313 468.333 313 467 313C466 312.667 465.167 312.5 464.5 312.5L462 315L462.5 319C462.167 319.333 460.5 320.5 457.5 322.5C454.833 324.5 453.5 324.667 453.5 323H452.5C446.833 326.333 441.667 329.5 437 332.5L433.5 330L431 334.5C430.667 333.833 430 332.833 429 331.5C428 329.833 426.833 328.833 425.5 328.5L420 334.5H419.5L413.5 331.5L408 335.5L405.5 333.5L397 337.5L397.5 338H401L404 341V341.5H402.5L394.5 339.5L389 341.5L386 341C389.333 338.333 393.167 336 397.5 334L394.5 332.5L388 337.5L383.5 335.5V337.5C380.5 338.167 378.333 339.5 377 341.5V346L375 346.5L369.5 344C367.833 344.667 366.167 345.333 364.5 346C363.167 346.667 361.833 347.5 360.5 348.5C353.833 349.167 347.333 350.833 341 353.5C334.667 356.5 328 358 321 358L317 356L316.5 368.5L320 376H320.5L323.5 380.5V381L323 382ZM317.5 343C344.167 335 370 325.333 395 314C420.333 302.333 445.167 289.833 469.5 276.5L472 277L474.5 276.5L474 274.5L475.5 272.5L478 274.5L484 270L483.5 269L480.5 268C481.5 265.333 485.667 262 493 258C500.333 253.667 508.333 248.667 517 243C526 237 533.833 230.167 540.5 222.5C547.167 214.5 550.5 205.333 550.5 195C550.5 183.667 547.333 174.333 541 167C534.667 159.333 526.5 153.167 516.5 148.5C506.5 143.833 495.5 140.333 483.5 138C471.833 135.667 460.5 134 449.5 133C438.5 132 429 131.5 421 131.5C417.667 134.833 415.167 138.333 413.5 142C412.167 145.333 410.333 148.167 408 150.5C405.667 152.833 401.667 154 396 154L392 157.5V162.5C387 164.833 383.333 169.333 381 176C378.667 182.333 375.833 187.667 372.5 192L371.5 196L373 197.5L363.5 213.5L362.5 217.5L360.5 216C360.5 218 359.167 222.167 356.5 228.5C353.833 234.5 350.667 241.333 347 249C343.333 256.333 340 263.5 337 270.5C334.333 277.5 332.667 282.833 332 286.5C329.667 288.833 327.5 294 325.5 302C323.5 309.667 321.833 317.5 320.5 325.5C319.167 333.5 318.167 339.333 317.5 343ZM403.5 331.5C406.167 330.5 408.667 328.833 411 326.5L409 325.5C407.667 325.833 406.333 326.5 405 327.5C404 328.167 402.833 328.833 401.5 329.5L403.5 331.5Z" fill="#FF0000"/>
<path d="M2.11364 341V323.545H8.01136C9.375 323.545 10.4943 323.778 11.3693 324.244C12.2443 324.705 12.892 325.338 13.3125 326.145C13.733 326.952 13.9432 327.869 13.9432 328.898C13.9432 329.926 13.733 330.838 13.3125 331.634C12.892 332.429 12.2472 333.054 11.3778 333.509C10.5085 333.957 9.39773 334.182 8.04545 334.182H3.27273V332.273H7.97727C8.90909 332.273 9.65909 332.136 10.2273 331.864C10.8011 331.591 11.2159 331.205 11.4716 330.705C11.733 330.199 11.8636 329.597 11.8636 328.898C11.8636 328.199 11.733 327.588 11.4716 327.065C11.2102 326.543 10.7926 326.139 10.2188 325.855C9.64489 325.565 8.88636 325.42 7.94318 325.42H4.22727V341H2.11364ZM10.3295 333.159L14.625 341H12.1705L7.94318 333.159H10.3295ZM29.2825 335.648V327.909H31.2938V341H29.2825V338.784H29.1461C28.8393 339.449 28.362 340.014 27.7143 340.48C27.0666 340.94 26.2484 341.17 25.2597 341.17C24.4416 341.17 23.7143 340.991 23.0779 340.634C22.4416 340.27 21.9416 339.724 21.5779 338.997C21.2143 338.264 21.0325 337.341 21.0325 336.227V327.909H23.0438V336.091C23.0438 337.045 23.3109 337.807 23.845 338.375C24.3847 338.943 25.0722 339.227 25.9075 339.227C26.4075 339.227 26.916 339.099 27.433 338.844C27.9558 338.588 28.3933 338.196 28.7455 337.668C29.1035 337.139 29.2825 336.466 29.2825 335.648ZM40.8291 333.125V341H38.8178V327.909H40.761V329.955H40.9314C41.2382 329.29 41.7041 328.756 42.3291 328.352C42.9541 327.943 43.761 327.739 44.7496 327.739C45.636 327.739 46.4115 327.92 47.0763 328.284C47.7411 328.642 48.2581 329.188 48.6274 329.92C48.9968 330.648 49.1814 331.568 49.1814 332.682V341H47.1701V332.818C47.1701 331.79 46.903 330.989 46.3689 330.415C45.8348 329.835 45.1019 329.545 44.1701 329.545C43.528 329.545 42.9541 329.685 42.4485 329.963C41.9485 330.241 41.5536 330.648 41.2638 331.182C40.974 331.716 40.8291 332.364 40.8291 333.125ZM62.1855 341.273C60.9241 341.273 59.8361 340.994 58.9213 340.438C58.0122 339.875 57.3105 339.091 56.8162 338.085C56.3275 337.074 56.0832 335.898 56.0832 334.557C56.0832 333.216 56.3275 332.034 56.8162 331.011C57.3105 329.983 57.998 329.182 58.8787 328.608C59.765 328.028 60.7991 327.739 61.9809 327.739C62.6628 327.739 63.3361 327.852 64.0008 328.08C64.6656 328.307 65.2707 328.676 65.8162 329.188C66.3616 329.693 66.7963 330.364 67.1201 331.199C67.444 332.034 67.6059 333.062 67.6059 334.284V335.136H57.515V333.398H65.5605C65.5605 332.659 65.4128 332 65.1173 331.42C64.8275 330.841 64.4128 330.384 63.873 330.048C63.3389 329.713 62.7082 329.545 61.9809 329.545C61.1798 329.545 60.4866 329.744 59.9014 330.142C59.3218 330.534 58.8758 331.045 58.5633 331.676C58.2508 332.307 58.0946 332.983 58.0946 333.705V334.864C58.0946 335.852 58.265 336.69 58.6059 337.378C58.9525 338.06 59.4326 338.58 60.0463 338.938C60.6599 339.29 61.373 339.466 62.1855 339.466C62.7139 339.466 63.1912 339.392 63.6173 339.244C64.0491 339.091 64.4213 338.864 64.7338 338.562C65.0463 338.256 65.2878 337.875 65.4582 337.42L67.4014 337.966C67.1968 338.625 66.8531 339.205 66.3701 339.705C65.8872 340.199 65.2906 340.585 64.5804 340.864C63.8701 341.136 63.0718 341.273 62.1855 341.273ZM96.8229 323.545H98.9365V335.102C98.9365 336.295 98.6553 337.361 98.0928 338.298C97.5359 339.23 96.749 339.966 95.732 340.506C94.7149 341.04 93.5217 341.307 92.1524 341.307C90.7831 341.307 89.5899 341.04 88.5729 340.506C87.5558 339.966 86.766 339.23 86.2035 338.298C85.6467 337.361 85.3683 336.295 85.3683 335.102V323.545H87.482V334.932C87.482 335.784 87.6695 336.543 88.0445 337.207C88.4195 337.866 88.9535 338.386 89.6467 338.767C90.3456 339.142 91.1808 339.33 92.1524 339.33C93.124 339.33 93.9592 339.142 94.6581 338.767C95.357 338.386 95.891 337.866 96.2604 337.207C96.6354 336.543 96.8229 335.784 96.8229 334.932V323.545ZM108.736 333.125V341H106.725V327.909H108.668V329.955H108.838C109.145 329.29 109.611 328.756 110.236 328.352C110.861 327.943 111.668 327.739 112.656 327.739C113.543 327.739 114.318 327.92 114.983 328.284C115.648 328.642 116.165 329.188 116.534 329.92C116.904 330.648 117.088 331.568 117.088 332.682V341H115.077V332.818C115.077 331.79 114.81 330.989 114.276 330.415C113.742 329.835 113.009 329.545 112.077 329.545C111.435 329.545 110.861 329.685 110.355 329.963C109.855 330.241 109.46 330.648 109.171 331.182C108.881 331.716 108.736 332.364 108.736 333.125ZM126.615 333.125V341H124.604V323.545H126.615V329.955H126.786C127.092 329.278 127.553 328.741 128.166 328.344C128.786 327.94 129.609 327.739 130.638 327.739C131.53 327.739 132.311 327.918 132.982 328.276C133.652 328.628 134.172 329.17 134.541 329.903C134.916 330.631 135.104 331.557 135.104 332.682V341H133.092V332.818C133.092 331.778 132.822 330.974 132.283 330.406C131.749 329.832 131.007 329.545 130.058 329.545C129.399 329.545 128.808 329.685 128.286 329.963C127.768 330.241 127.359 330.648 127.058 331.182C126.763 331.716 126.615 332.364 126.615 333.125ZM142.623 327.909H144.635V341.955C144.635 342.761 144.496 343.46 144.217 344.051C143.944 344.642 143.53 345.099 142.973 345.423C142.422 345.747 141.726 345.909 140.885 345.909C140.817 345.909 140.748 345.909 140.68 345.909C140.612 345.909 140.544 345.909 140.476 345.909V344.034C140.544 344.034 140.606 344.034 140.663 344.034C140.72 344.034 140.783 344.034 140.851 344.034C141.464 344.034 141.913 343.852 142.197 343.489C142.481 343.131 142.623 342.619 142.623 341.955V327.909ZM143.612 325.727C143.22 325.727 142.882 325.594 142.598 325.327C142.319 325.06 142.18 324.739 142.18 324.364C142.18 323.989 142.319 323.668 142.598 323.401C142.882 323.134 143.22 323 143.612 323C144.004 323 144.339 323.134 144.618 323.401C144.902 323.668 145.044 323.989 145.044 324.364C145.044 324.739 144.902 325.06 144.618 325.327C144.339 325.594 144.004 325.727 143.612 325.727ZM157.647 341.273C156.386 341.273 155.298 340.994 154.383 340.438C153.474 339.875 152.772 339.091 152.278 338.085C151.789 337.074 151.545 335.898 151.545 334.557C151.545 333.216 151.789 332.034 152.278 331.011C152.772 329.983 153.46 329.182 154.341 328.608C155.227 328.028 156.261 327.739 157.443 327.739C158.125 327.739 158.798 327.852 159.463 328.08C160.127 328.307 160.733 328.676 161.278 329.188C161.823 329.693 162.258 330.364 162.582 331.199C162.906 332.034 163.068 333.062 163.068 334.284V335.136H152.977V333.398H161.022C161.022 332.659 160.875 332 160.579 331.42C160.289 330.841 159.875 330.384 159.335 330.048C158.801 329.713 158.17 329.545 157.443 329.545C156.642 329.545 155.948 329.744 155.363 330.142C154.784 330.534 154.338 331.045 154.025 331.676C153.713 332.307 153.556 332.983 153.556 333.705V334.864C153.556 335.852 153.727 336.69 154.068 337.378C154.414 338.06 154.895 338.58 155.508 338.938C156.122 339.29 156.835 339.466 157.647 339.466C158.176 339.466 158.653 339.392 159.079 339.244C159.511 339.091 159.883 338.864 160.196 338.562C160.508 338.256 160.75 337.875 160.92 337.42L162.863 337.966C162.659 338.625 162.315 339.205 161.832 339.705C161.349 340.199 160.752 340.585 160.042 340.864C159.332 341.136 158.534 341.273 157.647 341.273ZM169.967 341V327.909H171.911V329.955H172.081C172.354 329.256 172.794 328.713 173.402 328.327C174.01 327.935 174.74 327.739 175.592 327.739C176.456 327.739 177.175 327.935 177.749 328.327C178.328 328.713 178.78 329.256 179.104 329.955H179.24C179.575 329.278 180.078 328.741 180.749 328.344C181.419 327.94 182.223 327.739 183.161 327.739C184.331 327.739 185.288 328.105 186.033 328.838C186.777 329.565 187.149 330.699 187.149 332.239V341H185.138V332.239C185.138 331.273 184.874 330.582 184.345 330.168C183.817 329.753 183.195 329.545 182.479 329.545C181.558 329.545 180.845 329.824 180.34 330.381C179.834 330.932 179.581 331.631 179.581 332.477V341H177.536V332.034C177.536 331.29 177.294 330.69 176.811 330.236C176.328 329.776 175.706 329.545 174.945 329.545C174.422 329.545 173.933 329.685 173.479 329.963C173.03 330.241 172.666 330.628 172.388 331.122C172.115 331.611 171.979 332.176 171.979 332.818V341H169.967Z" fill="black"/>
<path d="M5.13636 368H1.01136V356.364H5.17045C6.34091 356.364 7.34848 356.597 8.19318 357.062C9.03788 357.525 9.6875 358.189 10.142 359.057C10.6004 359.924 10.8295 360.962 10.8295 362.17C10.8295 363.383 10.6004 364.424 10.142 365.295C9.6875 366.167 9.03409 366.835 8.18182 367.301C7.33333 367.767 6.31818 368 5.13636 368ZM3.47159 365.892H5.03409C5.76136 365.892 6.37311 365.763 6.86932 365.506C7.36932 365.244 7.74432 364.841 7.99432 364.295C8.24811 363.746 8.375 363.038 8.375 362.17C8.375 361.311 8.24811 360.608 7.99432 360.062C7.74432 359.517 7.37121 359.116 6.875 358.858C6.37879 358.6 5.76705 358.472 5.03977 358.472H3.47159V365.892ZM15.532 368V356.364H23.3729V358.392H17.9922V361.165H22.9695V363.193H17.9922V365.972H23.3956V368H15.532ZM30.3111 356.364L33.1236 365.205H33.2316L36.0498 356.364H38.777L34.7657 368H31.5952L27.5782 356.364H30.3111ZM43.0576 368V356.364H50.8985V358.392H45.5178V361.165H50.4951V363.193H45.5178V365.972H50.9212V368H43.0576ZM55.7345 368V356.364H58.1947V365.972H63.1834V368H55.7345ZM77.9327 362.182C77.9327 363.451 77.6921 364.53 77.2111 365.42C76.7338 366.311 76.0823 366.991 75.2565 367.46C74.4346 367.926 73.5103 368.159 72.4838 368.159C71.4497 368.159 70.5217 367.924 69.6997 367.455C68.8777 366.985 68.2281 366.305 67.7509 365.415C67.2736 364.525 67.0349 363.447 67.0349 362.182C67.0349 360.913 67.2736 359.833 67.7509 358.943C68.2281 358.053 68.8777 357.375 69.6997 356.909C70.5217 356.439 71.4497 356.205 72.4838 356.205C73.5103 356.205 74.4346 356.439 75.2565 356.909C76.0823 357.375 76.7338 358.053 77.2111 358.943C77.6921 359.833 77.9327 360.913 77.9327 362.182ZM75.4384 362.182C75.4384 361.36 75.3152 360.667 75.069 360.102C74.8266 359.538 74.4838 359.11 74.0406 358.818C73.5974 358.527 73.0785 358.381 72.4838 358.381C71.8891 358.381 71.3702 358.527 70.927 358.818C70.4838 359.11 70.1391 359.538 69.8929 360.102C69.6505 360.667 69.5293 361.36 69.5293 362.182C69.5293 363.004 69.6505 363.697 69.8929 364.261C70.1391 364.826 70.4838 365.254 70.927 365.545C71.3702 365.837 71.8891 365.983 72.4838 365.983C73.0785 365.983 73.5974 365.837 74.0406 365.545C74.4838 365.254 74.8266 364.826 75.069 364.261C75.3152 363.697 75.4384 363.004 75.4384 362.182ZM82.6351 368V356.364H87.226C88.1086 356.364 88.8605 356.532 89.4817 356.869C90.1029 357.203 90.5764 357.667 90.9022 358.261C91.2317 358.852 91.3965 359.534 91.3965 360.307C91.3965 361.08 91.2298 361.761 90.8965 362.352C90.5631 362.943 90.0802 363.403 89.4476 363.733C88.8188 364.062 88.0575 364.227 87.1635 364.227H84.2374V362.256H86.7658C87.2393 362.256 87.6294 362.174 87.9362 362.011C88.2469 361.845 88.4779 361.616 88.6294 361.324C88.7847 361.028 88.8624 360.689 88.8624 360.307C88.8624 359.92 88.7847 359.583 88.6294 359.295C88.4779 359.004 88.2469 358.778 87.9362 358.619C87.6256 358.456 87.2317 358.375 86.7544 358.375H85.0953V368H82.6351ZM95.8745 368V356.364H103.715V358.392H98.3347V361.165H103.312V363.193H98.3347V365.972H103.738V368H95.8745ZM108.551 368V356.364H113.142C114.021 356.364 114.771 356.521 115.392 356.835C116.017 357.146 116.493 357.587 116.818 358.159C117.148 358.727 117.313 359.396 117.313 360.165C117.313 360.937 117.146 361.602 116.813 362.159C116.479 362.712 115.996 363.136 115.364 363.432C114.735 363.727 113.974 363.875 113.08 363.875H110.006V361.898H112.682C113.152 361.898 113.542 361.833 113.853 361.705C114.163 361.576 114.394 361.383 114.546 361.125C114.701 360.867 114.779 360.547 114.779 360.165C114.779 359.778 114.701 359.453 114.546 359.188C114.394 358.922 114.161 358.722 113.847 358.585C113.536 358.445 113.144 358.375 112.671 358.375H111.012V368H108.551ZM114.835 362.705L117.728 368H115.012L112.182 362.705H114.835Z" fill="#FF0000"/>
<defs>
<filter id="filter0_d_370_19" x="2.25" y="266.091" width="266.894" height="43.3184" filterUnits="userSpaceOnUse" color-interpolation-filters="sRGB">
<feFlood flood-opacity="0" result="BackgroundImageFix"/>
<feColorMatrix in="SourceAlpha" type="matrix" values="0 0 0 0 0 0 0 0 0 0 0 0 0 0 0 0 0 0 127 0" result="hardAlpha"/>
<feOffset dx="3" dy="4"/>
<feGaussianBlur stdDeviation="2"/>
<feComposite in2="hardAlpha" operator="out"/>
<feColorMatrix type="matrix" values="0 0 0 0 0 0 0 0 0 0 0 0 0 0 0 0 0 0 0.25 0"/>
<feBlend mode="normal" in2="BackgroundImageFix" result="effect1_dropShadow_370_19"/>
<feBlend mode="normal" in="SourceGraphic" in2="effect1_dropShadow_370_19" result="shape"/>
</filter>
<filter id="filter1_d_370_19" x="5" y="0" width="368" height="269" filterUnits="userSpaceOnUse" color-interpolation-filters="sRGB">
<feFlood flood-opacity="0" result="BackgroundImageFix"/>
<feColorMatrix in="SourceAlpha" type="matrix" values="0 0 0 0 0 0 0 0 0 0 0 0 0 0 0 0 0 0 127 0" result="hardAlpha"/>
<feOffset dy="4"/>
<feGaussianBlur stdDeviation="2"/>
<feComposite in2="hardAlpha" operator="out"/>
<feColorMatrix type="matrix" values="0 0 0 0 0 0 0 0 0 0 0 0 0 0 0 0 0 0 0.25 0"/>
<feBlend mode="normal" in2="BackgroundImageFix" result="effect1_dropShadow_370_19"/>
<feBlend mode="normal" in="SourceGraphic" in2="effect1_dropShadow_370_19" result="shape"/>
</filter>
</defs>
</svg>
