<svg width="580" height="395" viewBox="0 0 580 395" fill="none" xmlns="http://www.w3.org/2000/svg">
<g filter="url(#filter0_d_373_88)">
<path d="M17.6818 371H4.25V336.091H17.5455C21.1364 336.091 24.2386 336.79 26.8523 338.188C29.4773 339.574 31.5 341.574 32.9205 344.188C34.3523 346.79 35.0682 349.909 35.0682 353.545C35.0682 357.182 34.358 360.307 32.9375 362.92C31.517 365.523 29.5057 367.523 26.9034 368.92C24.3011 370.307 21.2273 371 17.6818 371ZM13.7273 362.955H17.3409C19.0682 362.955 20.5398 362.676 21.7557 362.119C22.983 361.562 23.9148 360.602 24.5511 359.239C25.1989 357.875 25.5227 355.977 25.5227 353.545C25.5227 351.114 25.1932 349.216 24.5341 347.852C23.8864 346.489 22.9318 345.528 21.6705 344.972C20.4205 344.415 18.8864 344.136 17.0682 344.136H13.7273V362.955ZM68.7331 371V336.091H93.8922V343.727H78.2104V349.727H92.5968V357.364H78.2104V363.364H93.824V371H68.7331ZM137.418 336.091L144.577 360.705H144.85L152.009 336.091H162.713L151.191 371H138.236L126.713 336.091H137.418Z" fill="black"/>
</g>
<g filter="url(#filter1_d_373_88)">
<path d="M59.6705 293.614V291.057C61.5909 291.057 62.9318 290.665 63.6932 289.881C64.4545 289.085 64.8352 287.773 64.8352 285.943V281.051C64.8352 279.312 65.0284 277.852 65.4148 276.67C65.8125 275.477 66.4148 274.523 67.2216 273.807C68.0284 273.091 69.0511 272.574 70.2898 272.256C71.5284 271.937 72.9886 271.778 74.6705 271.778V275.818C73.3523 275.818 72.3239 276.011 71.5852 276.398C70.8466 276.784 70.3295 277.386 70.0341 278.205C69.75 279.011 69.608 280.045 69.608 281.307V287.511C69.608 288.386 69.4773 289.199 69.2159 289.949C68.9545 290.687 68.4716 291.33 67.767 291.875C67.0625 292.42 66.0568 292.847 64.75 293.153C63.4432 293.46 61.75 293.614 59.6705 293.614ZM74.6705 315.261C72.9886 315.261 71.5284 315.102 70.2898 314.784C69.0511 314.466 68.0284 313.949 67.2216 313.233C66.4148 312.517 65.8125 311.562 65.4148 310.369C65.0284 309.188 64.8352 307.727 64.8352 305.989V301.08C64.8352 299.261 64.4545 297.955 63.6932 297.159C62.9318 296.364 61.5909 295.966 59.6705 295.966V293.426C61.75 293.426 63.4432 293.58 64.75 293.886C66.0568 294.182 67.0625 294.608 67.767 295.165C68.4716 295.71 68.9545 296.358 69.2159 297.108C69.4773 297.847 69.608 298.653 69.608 299.528V305.733C69.608 306.983 69.75 308.011 70.0341 308.818C70.3295 309.636 70.8466 310.239 71.5852 310.625C72.3239 311.023 73.3523 311.222 74.6705 311.222V315.261ZM59.6705 295.966V291.057H64.392V295.966H59.6705ZM270.317 293.426V295.966C268.397 295.966 267.056 296.364 266.294 297.159C265.533 297.955 265.152 299.261 265.152 301.08V305.989C265.152 307.727 264.954 309.188 264.556 310.369C264.169 311.562 263.573 312.517 262.766 313.233C261.959 313.949 260.936 314.466 259.698 314.784C258.459 315.102 256.999 315.261 255.317 315.261V311.222C256.635 311.222 257.664 311.023 258.402 310.625C259.141 310.239 259.652 309.636 259.936 308.818C260.232 308.011 260.38 306.983 260.38 305.733V299.528C260.38 298.653 260.51 297.847 260.772 297.108C261.033 296.358 261.516 295.71 262.221 295.165C262.925 294.608 263.931 294.182 265.238 293.886C266.544 293.58 268.238 293.426 270.317 293.426ZM255.317 271.778C256.999 271.778 258.459 271.937 259.698 272.256C260.936 272.574 261.959 273.091 262.766 273.807C263.573 274.523 264.169 275.477 264.556 276.67C264.954 277.852 265.152 279.312 265.152 281.051V285.943C265.152 287.773 265.533 289.085 266.294 289.881C267.056 290.665 268.397 291.057 270.317 291.057V293.614C268.238 293.614 266.544 293.46 265.238 293.153C263.931 292.847 262.925 292.42 262.221 291.875C261.516 291.33 261.033 290.687 260.772 289.949C260.51 289.199 260.38 288.386 260.38 287.511V281.307C260.38 280.045 260.232 279.011 259.936 278.205C259.652 277.386 259.141 276.784 258.402 276.398C257.664 276.011 256.635 275.818 255.317 275.818V271.778ZM270.317 291.057V295.966H265.596V291.057H270.317Z" fill="black"/>
<path d="M87.9906 308V273.091H103.059C105.65 273.091 107.917 273.562 109.86 274.506C111.803 275.449 113.314 276.807 114.394 278.58C115.474 280.352 116.013 282.477 116.013 284.955C116.013 287.455 115.457 289.562 114.343 291.278C113.241 292.994 111.689 294.29 109.689 295.165C107.701 296.04 105.377 296.477 102.718 296.477H93.7179V289.114H100.809C101.922 289.114 102.871 288.977 103.655 288.705C104.451 288.42 105.059 287.972 105.479 287.358C105.911 286.744 106.127 285.943 106.127 284.955C106.127 283.955 105.911 283.142 105.479 282.517C105.059 281.881 104.451 281.415 103.655 281.119C102.871 280.812 101.922 280.659 100.809 280.659H97.4679V308H87.9906ZM108.445 291.977L117.172 308H106.877L98.3543 291.977H108.445ZM169.992 273.091H179.469V295.455C179.469 298.114 178.833 300.415 177.56 302.358C176.299 304.29 174.538 305.784 172.276 306.841C170.015 307.886 167.39 308.409 164.401 308.409C161.39 308.409 158.754 307.886 156.492 306.841C154.231 305.784 152.469 304.29 151.208 302.358C149.958 300.415 149.333 298.114 149.333 295.455V273.091H158.81V294.636C158.81 295.716 159.049 296.682 159.526 297.534C160.004 298.375 160.663 299.034 161.504 299.511C162.356 299.989 163.322 300.227 164.401 300.227C165.492 300.227 166.458 299.989 167.299 299.511C168.14 299.034 168.799 298.375 169.276 297.534C169.754 296.682 169.992 295.716 169.992 294.636V273.091ZM243.458 273.091V308H235.549L222.936 289.659H222.731V308H213.254V273.091H221.299L233.708 291.364H233.981V273.091H243.458Z" fill="#FF0000"/>
</g>
<g filter="url(#filter2_d_373_88)">
<path d="M317 261C309.667 261 302.5 260 295.5 258C288.833 256 282 254.333 275 253L276 251C275 248.333 272.5 246.667 268.5 246C264.833 245.333 260.833 244.833 256.5 244.5C252.167 244.5 248.833 244.167 246.5 243.5L244 240.5H242.5C238.833 240.5 235.667 239.5 233 237.5C230.333 235.833 227.833 233.833 225.5 231.5L218 232.5L216 229V226.5L213.5 224L211.5 226.5C208.167 225.833 204.333 224.333 200 222C196 219.667 193.833 216.667 193.5 213C191.833 211.333 189.167 208.167 185.5 203.5C182.167 198.5 178.667 193.5 175 188.5C171.667 183.167 169.167 179.333 167.5 177L170 172.5L168.5 169.5L166.5 170C164.5 168.333 163.333 166 163 163C163 160 163.167 157.333 163.5 155L159.5 151H158C157.667 153.333 156.667 156.167 155 159.5C153.667 162.833 151.5 164.5 148.5 164.5V161L145.5 157H145C143.667 157 142.5 157.667 141.5 159C140.833 160 140.833 161.333 141.5 163C140.5 164.333 139.5 165.667 138.5 167C137.5 168 137 169.333 137 171L139.5 175.5L143.5 174.5L145.5 175.5C145.5 176.5 143.5 179.167 139.5 183.5C135.5 187.833 131.333 193.167 127 199.5C122.667 205.5 120 211.833 119 218.5L113 222L117 224.5L119 228.5L115.5 235L117.5 237C117.833 238.667 118.167 240.333 118.5 242C119.167 244 120 245.667 121 247L123.5 248C126.833 248 130.667 246.833 135 244.5C139.667 242.167 144.167 239.333 148.5 236C153.167 233 156.833 230.667 159.5 229L161.5 231.5C161.167 232.833 159.333 235.333 156 239C153 243 149.667 246.833 146 250.5C142.333 254.167 139.833 257 138.5 259H132C127 259 121 258.167 114 256.5C107 255.167 100.667 252.667 95 249C89.6667 245.667 87 240.833 87 234.5C87 226.833 89 217.5 93 206.5C97 195.167 101.833 183.5 107.5 171.5C113.5 159.5 119.5 148.167 125.5 137.5C131.833 126.833 137 118 141 111L139.5 108.5C136.5 108.5 134.5 106.5 133.5 102.5C132.833 98.5 132.333 94.3333 132 90C132 85.6667 131.167 83.1667 129.5 82.5H129L128 79L130 73.5C134.667 71.8333 139.5 70.3333 144.5 69C149.5 67.3333 154.667 66.5 160 66.5L158 67.5L166.5 70.5L191 33C187.333 33 180.5 33.8333 170.5 35.5C160.833 37.1667 149.667 39.3333 137 42C124.667 44.6667 112.5 47.8333 100.5 51.5C88.8333 54.8333 79 58.5 71 62.5C63.3333 66.1667 59.1667 69.8333 58.5 73.5L62.5 75C64.8333 73.6667 67.1667 73 69.5 73C72.1667 72.6667 74.8333 72.5 77.5 72.5L84.5 70L84 71C76.6667 75.6667 70 81 64 87C58 92.6667 52 98.6667 46 105L43 106L41 109.5L35.5 110.5L35 111.5L35.5 120.5L18.5 112C17.1667 108.333 15.1667 105 12.5 102C10.1667 99 9 95.5 9 91.5C21.6667 75.8333 36.8333 64 54.5 56C72.1667 47.6667 89.6667 39.3333 107 31L106.5 31.5C107.167 31.8333 108.167 32.1667 109.5 32.5C110.833 32.8333 111.833 33 112.5 33C115.167 33 117.833 32.5 120.5 31.5C123.167 30.1667 125.833 29.1667 128.5 28.5V29.5C131.5 28.8333 134.5 28.1667 137.5 27.5C140.5 26.5 143.667 25.3333 147 24V25L154.5 22.5V22L157 22.5L156.5 22L162 19.5L165 20.5L164 19.5H165.5V20.5H173L176.5 19L177.5 17.5L191 18L191.5 17.5L196 15.5C198.333 15.5 200.5 15.5 202.5 15.5C204.833 15.1667 207.167 15 209.5 15C211.833 12.3333 213.833 9.16665 215.5 5.49999C217.5 1.83332 220.667 -1.0252e-05 225 -1.0252e-05C229.667 -1.0252e-05 233.833 0.999992 237.5 3C241.167 4.99999 245.167 5.99999 249.5 5.99999C250.167 7.99999 252.833 9.99999 257.5 12C262.167 13.6667 267.333 15.1667 273 16.5C279 17.5 284.667 18.3333 290 19C295.333 19.3333 299.167 19.5 301.5 19.5L323 26L324.5 25.5C327.5 25.5 331.667 27.5 337 31.5C342.333 35.5 347.5 39.8333 352.5 44.5C357.833 49.1667 361.667 52.6667 364 55C364.667 57.3333 365.333 59.8333 366 62.5C366.667 65.1667 367.667 67.6667 369 70C367.667 82.6667 365.333 92.1667 362 98.5C358.667 104.5 353.833 108.833 347.5 111.5C341.167 114.167 332.5 117 321.5 120L315 119.5V122H314L312 120L292 126V123C285.667 127.333 280.833 129.5 277.5 129.5C274.5 129.5 269.667 129.833 263 130.5L262.5 129.5C261.167 130.833 259.833 131.667 258.5 132C257.167 132 255.667 132 254 132C248.667 132 243.667 133.333 239 136C234.667 138.667 230 139.667 225 139V141.5L222.5 141L220.5 139L219.5 141V141.5L218.5 141C217.833 140.667 217.167 140.5 216.5 140.5C215.833 140.167 215.167 140 214.5 140C212.833 140 211.167 140.333 209.5 141C207.833 141.333 206.167 141.5 204.5 141.5L205 138.5L204 139C201 138.333 197.833 138.333 194.5 139C191.5 139.667 188.5 140.333 185.5 141C193.833 158.333 201.667 172.667 209 184C216.333 195 224.833 205 234.5 214C244.5 223 257.333 233 273 244C281.667 244.667 290.333 246.167 299 248.5C307.667 251.167 316.5 252.5 325.5 252.5C330.5 252.5 335.5 252 340.5 251C345.5 250 350.5 249.5 355.5 249.5H357.5C355.5 251.167 351.833 252.833 346.5 254.5C341.167 256.5 335.667 258 330 259C324.333 260.333 320 261 317 261ZM180.5 129.5C200.167 125.833 219.5 121.833 238.5 117.5C257.833 113.167 276.667 107.667 295 101L295.5 100.5C301.5 98.1667 307.833 95.5 314.5 92.5C321.167 89.1667 327 85 332 80C337 75 339.5 69 339.5 62C338.167 59 336.333 55.8333 334 52.5C331.667 49.1667 328.5 47.1667 324.5 46.5C321.833 45.1667 318 43.5 313 41.5C308.333 39.1667 303.5 37 298.5 35C293.5 33 289.333 31.8333 286 31.5V32H284.5C282.5 31 280.667 30.5 279 30.5C277.667 30.5 276.333 30.6667 275 31C273.667 31.3333 272.167 31.5 270.5 31.5L266.5 28.5H260.5C256.833 28.5 253.167 28.5 249.5 28.5C245.833 28.1667 242.167 27.8333 238.5 27.5C234.167 31.5 228.667 37.1667 222 44.5C215.667 51.5 209.5 58.8333 203.5 66.5C197.833 73.8333 193.833 80.3333 191.5 86V91C187.833 92.6667 184.833 95.5 182.5 99.5C180.167 103.5 178.167 107.167 176.5 110.5C179.167 117.5 180.5 123.833 180.5 129.5ZM324.5 46.5C326.5 47.5 327.667 48.1667 328 48.5C328.333 48.5 327.5 48 325.5 47L324.5 46.5ZM165 227L161.5 226C161.5 224.333 162.5 222.833 164.5 221.5C166.833 219.833 168.667 218.833 170 218.5L171.5 219.5L165 227Z" fill="black"/>
</g>
<path d="M323 382L311 380.5C307 377.833 303.833 374.333 301.5 370C299.5 366 297.667 362 296 358H293.5C287.833 358 284.167 359 282.5 361C281.167 363.333 279.833 365.5 278.5 367.5C277.167 369.833 273.833 371 268.5 371C264.833 371 261 370.5 257 369.5C253 368.833 249 368.5 245 368.5C242.667 368.5 240.5 368.833 238.5 369.5C236.833 370.167 234.833 370.5 232.5 370.5C227.5 370.5 222.167 369.667 216.5 368C210.833 366.333 205.833 363.667 201.5 360C197.5 356.333 195.5 351.667 195.5 346C195.5 338 198.667 331.667 205 327C211.667 322 218.5 319 225.5 318L224.5 319C220.833 321.333 216.5 324.333 211.5 328C206.5 331.333 204 335.667 204 341C204 345.667 206.833 349.333 212.5 352C218.5 354.667 223.5 356 227.5 356L230 355C234 356 238.667 356.5 244 356.5C252 356.5 260.333 355.833 269 354.5C278 353.167 285.5 351.833 291.5 350.5V347C288.5 342.667 287 338.5 287 334.5L292.5 321L289 316L293.5 307.5V306L289.5 305.5L287 307.5V307L289 304C288 299.667 288.667 294.833 291 289.5C293.667 284.167 296.333 278.833 299 273.5C302 267.833 303.5 262.833 303.5 258.5C306.167 256.167 309.167 251.667 312.5 245C316.167 238 319.667 230.833 323 223.5C326.333 216.167 329 210.667 331 207C337.333 194.333 344.5 182.167 352.5 170.5C360.5 158.5 369 146.833 378 135.5C374.667 136.5 371.333 137.5 368 138.5C365 139.5 361.667 140 358 140C355.667 141.667 350.833 143.5 343.5 145.5C336.167 147.5 328.333 149.667 320 152C312 154 305 156.167 299 158.5C293 160.5 290 162.5 290 164.5L291.5 167L299.5 161.5L301.5 162.5L304.5 160L305 162C305 166 304 169.5 302 172.5L300 168L295.5 171L296.5 174.5L293.5 175.5C295.167 176.5 296.5 177.833 297.5 179.5C298.833 181.167 300 182.833 301 184.5C293.333 184.833 286 187.5 279 192.5C272.333 197.167 265.167 200 257.5 201C255.833 203.333 253.667 204.833 251 205.5C248.333 206.167 245.667 206.5 243 206.5C241.333 206.5 238.833 205 235.5 202C232.167 198.667 229.167 195.167 226.5 191.5C224.167 187.5 223 184.667 223 183C223 179.333 225.167 175.5 229.5 171.5C233.833 167.5 237.167 164.5 239.5 162.5L234 172.5C238 169.833 243.667 167 251 164C258.333 161 265.833 158.167 273.5 155.5C281.5 152.5 288.667 149.667 295 147C301.333 144 305.667 141.5 308 139.5C321 135.833 334.167 132.5 347.5 129.5C361.167 126.167 374.667 123.833 388 122.5C389.667 120.5 392.333 117.5 396 113.5C400 109.167 404 105.333 408 102C412 98.3333 415.333 96.5 418 96.5C424 96.5 429.333 96.8333 434 97.5C438.667 97.8333 442.167 101.167 444.5 107.5C444.5 111.167 443 114.5 440 117.5C437.333 120.167 434.667 122.333 432 124L437 125C439.667 124 441.833 122.333 443.5 120L446.5 119.5H447.5C449.5 119.5 451.167 120 452.5 121C454.167 122 455.667 123.167 457 124.5L462.5 122C470.833 122 481 124.167 493 128.5C505 132.5 516.833 138 528.5 145C540.5 152 550.333 160 558 169C566 177.667 570 186.833 570 196.5C570 200.833 569.667 205.167 569 209.5C568.333 213.5 567.667 217.5 567 221.5L564 220.5L561.5 222.5V223.5L565.5 228C563.167 235.333 559.5 242.333 554.5 249C549.833 255.333 544.667 261 539 266C533.667 267.333 528.333 270.833 523 276.5C517.667 282.167 512.167 286.333 506.5 289C502.833 293.333 499 296.333 495 298C491 299.667 487.167 303.333 483.5 309L479 304.5L478 306L478.5 309C478.5 311.667 476 313 471 313C469.667 313 468.333 313 467 313C466 312.667 465.167 312.5 464.5 312.5L462 315L462.5 319C462.167 319.333 460.5 320.5 457.5 322.5C454.833 324.5 453.5 324.667 453.5 323H452.5C446.833 326.333 441.667 329.5 437 332.5L433.5 330L431 334.5C430.667 333.833 430 332.833 429 331.5C428 329.833 426.833 328.833 425.5 328.5L420 334.5H419.5L413.5 331.5L408 335.5L405.5 333.5L397 337.5L397.5 338H401L404 341V341.5H402.5L394.5 339.5L389 341.5L386 341C389.333 338.333 393.167 336 397.5 334L394.5 332.5L388 337.5L383.5 335.5V337.5C380.5 338.167 378.333 339.5 377 341.5V346L375 346.5L369.5 344C367.833 344.667 366.167 345.333 364.5 346C363.167 346.667 361.833 347.5 360.5 348.5C353.833 349.167 347.333 350.833 341 353.5C334.667 356.5 328 358 321 358L317 356L316.5 368.5L320 376H320.5L323.5 380.5V381L323 382ZM317.5 343C344.167 335 370 325.333 395 314C420.333 302.333 445.167 289.833 469.5 276.5L472 277L474.5 276.5L474 274.5L475.5 272.5L478 274.5L484 270L483.5 269L480.5 268C481.5 265.333 485.667 262 493 258C500.333 253.667 508.333 248.667 517 243C526 237 533.833 230.167 540.5 222.5C547.167 214.5 550.5 205.333 550.5 195C550.5 183.667 547.333 174.333 541 167C534.667 159.333 526.5 153.167 516.5 148.5C506.5 143.833 495.5 140.333 483.5 138C471.833 135.667 460.5 134 449.5 133C438.5 132 429 131.5 421 131.5C417.667 134.833 415.167 138.333 413.5 142C412.167 145.333 410.333 148.167 408 150.5C405.667 152.833 401.667 154 396 154L392 157.5V162.5C387 164.833 383.333 169.333 381 176C378.667 182.333 375.833 187.667 372.5 192L371.5 196L373 197.5L363.5 213.5L362.5 217.5L360.5 216C360.5 218 359.167 222.167 356.5 228.5C353.833 234.5 350.667 241.333 347 249C343.333 256.333 340 263.5 337 270.5C334.333 277.5 332.667 282.833 332 286.5C329.667 288.833 327.5 294 325.5 302C323.5 309.667 321.833 317.5 320.5 325.5C319.167 333.5 318.167 339.333 317.5 343ZM403.5 331.5C406.167 330.5 408.667 328.833 411 326.5L409 325.5C407.667 325.833 406.333 326.5 405 327.5C404 328.167 402.833 328.833 401.5 329.5L403.5 331.5Z" fill="#FF0000"/>
<defs>
<filter id="filter0_d_373_88" x="0.25" y="336.091" width="166.463" height="42.9092" filterUnits="userSpaceOnUse" color-interpolation-filters="sRGB">
<feFlood flood-opacity="0" result="BackgroundImageFix"/>
<feColorMatrix in="SourceAlpha" type="matrix" values="0 0 0 0 0 0 0 0 0 0 0 0 0 0 0 0 0 0 127 0" result="hardAlpha"/>
<feOffset dy="4"/>
<feGaussianBlur stdDeviation="2"/>
<feComposite in2="hardAlpha" operator="out"/>
<feColorMatrix type="matrix" values="0 0 0 0 0 0 0 0 0 0 0 0 0 0 0 0 0 0 0.25 0"/>
<feBlend mode="normal" in2="BackgroundImageFix" result="effect1_dropShadow_373_88"/>
<feBlend mode="normal" in="SourceGraphic" in2="effect1_dropShadow_373_88" result="shape"/>
</filter>
<filter id="filter1_d_373_88" x="58.6705" y="271.778" width="218.647" height="51.4832" filterUnits="userSpaceOnUse" color-interpolation-filters="sRGB">
<feFlood flood-opacity="0" result="BackgroundImageFix"/>
<feColorMatrix in="SourceAlpha" type="matrix" values="0 0 0 0 0 0 0 0 0 0 0 0 0 0 0 0 0 0 127 0" result="hardAlpha"/>
<feOffset dx="3" dy="4"/>
<feGaussianBlur stdDeviation="2"/>
<feComposite in2="hardAlpha" operator="out"/>
<feColorMatrix type="matrix" values="0 0 0 0 0 0 0 0 0 0 0 0 0 0 0 0 0 0 0.25 0"/>
<feBlend mode="normal" in2="BackgroundImageFix" result="effect1_dropShadow_373_88"/>
<feBlend mode="normal" in="SourceGraphic" in2="effect1_dropShadow_373_88" result="shape"/>
</filter>
<filter id="filter2_d_373_88" x="5" y="0" width="368" height="269" filterUnits="userSpaceOnUse" color-interpolation-filters="sRGB">
<feFlood flood-opacity="0" result="BackgroundImageFix"/>
<feColorMatrix in="SourceAlpha" type="matrix" values="0 0 0 0 0 0 0 0 0 0 0 0 0 0 0 0 0 0 127 0" result="hardAlpha"/>
<feOffset dy="4"/>
<feGaussianBlur stdDeviation="2"/>
<feComposite in2="hardAlpha" operator="out"/>
<feColorMatrix type="matrix" values="0 0 0 0 0 0 0 0 0 0 0 0 0 0 0 0 0 0 0.25 0"/>
<feBlend mode="normal" in2="BackgroundImageFix" result="effect1_dropShadow_373_88"/>
<feBlend mode="normal" in="SourceGraphic" in2="effect1_dropShadow_373_88" result="shape"/>
</filter>
</defs>
</svg>
