<svg width="874" height="363" viewBox="0 0 874 363" fill="none" xmlns="http://www.w3.org/2000/svg">
<g clip-path="url(#clip0_383_855)">
<g filter="url(#filter0_d_383_855)">
<path d="M669.463 37.123C668.261 38.7493 666.846 41.5777 666.422 43.4162C665.856 45.2547 665.503 54.8006 665.361 64.5587C665.291 74.2461 665.149 82.4485 665.008 82.5899C664.866 82.7313 657.937 85.8426 649.664 89.4489C641.037 93.2672 634.39 96.5199 634.037 97.1563C632.976 99.2069 633.612 102.106 636.724 109.319L639.835 116.39L632.834 123.107L625.834 129.825L618.127 126.926C610.278 123.885 608.086 123.673 606.318 125.441C605.752 126.006 602.217 133.926 598.54 143.118C591.681 159.877 590.903 162.917 593.095 165.109C593.661 165.675 597.621 167.513 601.792 169.281L609.429 172.392V181.868C609.359 187.03 609.146 191.484 608.722 191.626C608.439 191.767 604.833 193.394 600.732 195.091L593.237 198.343L592.459 200.818C591.61 203.222 592.034 204.071 598.964 220.334C602.924 229.668 606.672 237.8 607.167 238.295C609.146 240.275 611.48 239.921 619.329 236.598L626.965 233.345L633.824 240.204L640.683 247.063L637.855 254.134C632.905 266.579 632.34 265.872 650.229 273.014C657.937 276.196 664.584 278.883 664.796 279.095C665.008 279.307 665.291 283.974 665.22 289.419L665.22 299.318L676.463 321.733C683.605 336.088 688.06 344.502 688.979 344.997C690.817 346.129 693.999 345.916 695.413 344.502C696.05 343.866 701.495 333.613 707.364 321.663L718.112 300.025L718.182 289.489L718.253 279.095L733.244 272.731C741.517 269.266 748.588 266.013 749.154 265.448C751.063 263.539 750.709 261.064 747.386 253.356L744.062 245.649L750.921 238.79L757.78 232.072L765.205 234.971C773.478 238.153 775.458 238.436 777.438 236.456C779.276 234.759 792.358 202.303 792.146 199.97C791.863 197.283 790.59 196.293 781.963 192.899L774.114 189.717L774.256 183.918C774.256 180.666 774.185 176.494 774.044 174.514L773.69 170.908L781.185 167.655C789.671 164.119 791.509 162.564 791.297 159.523C791.085 156.624 777.791 125.653 776.094 124.097C774.044 122.188 771.286 122.541 763.366 125.936L756.295 129.047L749.578 122.046L742.86 115.046L745.759 107.339C748.871 99.4191 749.012 97.2977 747.174 95.4593C746.608 94.8936 739.82 91.9237 732.183 88.9539L718.253 83.5092L718.182 64.3466C718.182 43.699 717.829 41.507 713.515 36.0623C710.899 32.7389 705.949 29.769 701.495 28.7084C697.747 27.9306 684.807 28.2841 680.847 29.2741C676.817 30.0519 672.362 33.2339 669.463 37.123ZM691.736 38.7493C704.677 38.82 707.434 41.2949 707.859 53.0329L708 59.6797L692.019 59.6797L676.109 59.7504L676.109 53.8107C675.968 47.4467 676.322 45.9618 677.948 43.3455C680.352 39.6685 683.11 38.7493 691.736 38.7493ZM680.847 70.1448C683.393 70.0034 685.655 70.2863 686.08 70.7105C686.433 71.0641 686.787 104.51 686.857 145.027L686.999 218.567H681.342H675.685L675.614 144.815C675.544 104.157 675.827 70.7812 675.968 70.6398C676.18 70.4277 678.372 70.2156 680.847 70.1448ZM655.462 98.6412C660.2 96.5906 664.23 94.9643 664.654 94.9643C665.008 94.8936 665.291 103.945 665.361 114.905L665.291 134.916L661.826 137.391C647.754 147.361 639.764 162.139 639.198 178.969C638.633 194.384 643.936 207.465 654.755 218.284C660.341 223.87 664.513 226.628 671.655 229.527C683.463 234.264 695.767 234.689 707.576 230.941C715.707 228.325 719.596 226.274 725.607 221.536C739.113 210.859 746.396 193.394 744.628 176.069C743.992 169.918 740.81 159.806 737.769 154.644C734.87 149.624 727.445 141.633 722.354 137.956L718.253 134.987V114.905L718.253 94.8229L727.092 98.2877C731.971 100.197 735.931 102.035 736.001 102.389C736.143 102.672 735.082 105.712 733.597 109.036C730.132 117.309 730.132 118.157 733.809 121.269C737.486 124.38 746.749 133.643 750.002 137.461C752.336 140.219 752.689 140.431 754.881 140.219C756.083 140.148 759.972 138.805 763.437 137.32C766.902 135.835 769.872 134.845 770.084 135.199C771.145 137.674 779.064 156.341 779.064 156.483C779.064 156.624 775.953 158.038 772.064 159.665C767.538 161.503 764.639 163.129 764.144 164.049C763.437 165.039 763.437 168.008 764.003 173.382C764.498 177.696 764.498 184.343 764.215 188.02C763.508 196.363 763.791 196.929 773.124 200.606C776.589 201.95 779.559 203.364 779.559 203.505C779.63 204.142 771.286 225.355 771.003 225.355C770.862 225.355 767.68 224.153 763.791 222.526C754.881 218.991 753.679 219.203 749.719 224.577C748.022 226.84 743.992 231.012 739.82 234.901C734.163 240.133 732.607 241.83 732.395 243.174C732.254 244.022 733.385 247.841 735.082 251.659C736.779 255.478 737.911 258.73 737.769 258.872C737.345 259.296 717.263 267.923 716.627 267.993C716.273 268.064 714.859 265.236 713.515 261.771C710.333 254.205 708.636 252.225 705.384 252.508C703.969 252.649 700.505 253.003 697.393 253.285C694.282 253.568 688.696 253.498 685.019 253.215C681.13 252.861 677.524 253.073 676.675 253.498C675.614 254.134 674.412 256.326 672.291 261.417C670.735 265.377 669.18 268.488 668.968 268.559C668.331 268.63 647.118 260.286 647.189 260.074C647.189 259.932 648.462 256.538 650.017 252.578C653.482 243.598 653.341 242.75 647.896 238.719C645.775 237.163 641.461 232.992 637.643 228.89C632.41 223.233 630.713 221.678 629.37 221.466C628.521 221.324 624.703 222.456 620.884 224.153C617.137 225.779 613.813 226.981 613.672 226.84C613.248 226.415 604.621 206.334 604.55 205.697C604.479 205.344 607.308 203.929 610.773 202.586C614.167 201.172 617.702 199.333 618.622 198.414C620.389 196.646 620.389 196.222 619.47 187.666C619.117 184.343 619.187 178.898 619.541 175.574C619.965 172.18 620.177 168.716 620.177 168.008C619.965 165.816 617.278 163.836 610.843 161.362C607.379 160.018 604.55 158.604 604.692 158.18C604.692 156.341 612.894 136.825 613.601 136.825C614.025 136.825 617.278 137.956 620.672 139.371C628.804 142.694 630.147 142.482 634.037 137.037C635.734 134.633 639.128 131.239 643.017 127.774C651.644 120.137 651.573 120.208 651.361 117.733C651.29 116.531 650.017 112.713 648.532 109.248C647.047 105.783 646.057 102.813 646.482 102.672C646.552 102.46 650.795 100.621 655.462 98.6412ZM702.343 70.1448L707.434 70.1448V144.391L707.434 218.637H702.343L697.252 218.637L696.969 144.674C696.969 103.945 696.898 70.4984 697.04 70.357C697.181 70.2155 699.444 70.0741 702.343 70.1448ZM665.008 148.917C665.22 149.129 665.361 163.836 665.22 181.656L665.079 214.182L662.392 211.778C658.785 208.596 654.118 201.384 652.209 196.222C647.472 183.565 649.239 168.928 656.947 157.26C658.785 154.291 664.513 148.422 665.008 148.917ZM727.728 158.745C730.91 164.049 733.739 172.817 734.021 178.615C734.446 184.979 732.749 193.323 729.991 199.192C728.365 202.657 726.668 205.061 723.132 208.879C720.516 211.637 718.394 213.758 718.394 213.475C718.394 213.193 718.324 198.414 718.324 180.595L718.324 148.209L722.001 151.604C724.122 153.725 726.526 156.553 727.728 158.745ZM684.665 263.044C686.292 262.973 686.362 263.468 686.362 277.751V292.601L680.988 292.601L675.614 292.601L675.544 286.307C675.614 282.843 675.827 279.661 676.18 279.166C676.534 278.812 678.16 275.064 679.786 271.034C681.413 267.003 682.756 263.539 682.898 263.397C682.968 263.185 683.746 263.114 684.665 263.044ZM700.151 263.114L702.202 263.185L704.818 269.337C707.222 274.994 707.434 276.054 707.505 284.045L707.505 292.671L702.414 292.671L697.323 292.671L697.323 278.388C697.323 270.468 697.605 263.821 697.888 263.539C698.171 263.256 699.09 263.044 700.151 263.114ZM704.04 303.631C704.111 304.268 692.019 328.097 691.666 328.027C691.524 328.027 688.696 322.511 685.302 315.723L679.291 303.349L691.595 303.349C698.525 303.349 704.111 303.419 704.04 303.631Z" fill="black"/>
</g>
</g>
<g filter="url(#filter1_i_383_855)">
<path d="M4.5 174.019V104.201H34.6364C39.8182 104.201 44.3523 105.144 48.2386 107.031C52.125 108.917 55.1477 111.633 57.3068 115.178C59.4659 118.724 60.5455 122.974 60.5455 127.928C60.5455 132.928 59.4318 137.144 57.2045 140.576C55 144.008 51.8977 146.599 47.8977 148.349C43.9205 150.099 39.2727 150.974 33.9545 150.974H15.9545V136.247H30.1364C32.3636 136.247 34.2614 135.974 35.8295 135.428C37.4205 134.86 38.6364 133.962 39.4773 132.735C40.3409 131.508 40.7727 129.906 40.7727 127.928C40.7727 125.928 40.3409 124.303 39.4773 123.053C38.6364 121.781 37.4205 120.849 35.8295 120.258C34.2614 119.644 32.3636 119.337 30.1364 119.337H23.4545V174.019H4.5ZM45.4091 141.974L62.8636 174.019H42.2727L25.2273 141.974H45.4091ZM141.623 104.201H160.578V148.928C160.578 154.247 159.305 158.849 156.76 162.735C154.237 166.599 150.714 169.587 146.191 171.701C141.669 173.792 136.419 174.837 130.441 174.837C124.419 174.837 119.146 173.792 114.623 171.701C110.1 169.587 106.578 166.599 104.055 162.735C101.555 158.849 100.305 154.247 100.305 148.928V104.201H119.26V147.292C119.26 149.451 119.737 151.383 120.691 153.087C121.646 154.769 122.964 156.087 124.646 157.042C126.35 157.997 128.282 158.474 130.441 158.474C132.623 158.474 134.555 157.997 136.237 157.042C137.919 156.087 139.237 154.769 140.191 153.087C141.146 151.383 141.623 149.451 141.623 147.292V104.201ZM261.675 104.201V174.019H245.857L220.63 137.337H220.221V174.019H201.266V104.201H217.357L242.175 140.747H242.721V104.201H261.675Z" fill="black"/>
<path d="M329.185 174.019H302.321V104.201H328.912C336.094 104.201 342.299 105.599 347.526 108.394C352.776 111.167 356.821 115.167 359.662 120.394C362.526 125.599 363.958 131.837 363.958 139.11C363.958 146.383 362.537 152.633 359.696 157.86C356.855 163.065 352.833 167.065 347.628 169.86C342.424 172.633 336.276 174.019 329.185 174.019ZM321.276 157.928H328.503C331.958 157.928 334.901 157.372 337.333 156.258C339.787 155.144 341.651 153.224 342.924 150.497C344.219 147.769 344.867 143.974 344.867 139.11C344.867 134.247 344.208 130.451 342.889 127.724C341.594 124.997 339.685 123.076 337.162 121.962C334.662 120.849 331.594 120.292 327.958 120.292H321.276V157.928ZM404.408 174.019V104.201H454.726V119.474H423.362V131.474H452.135V146.747H423.362V158.747H454.589V174.019H404.408ZM514.897 104.201L529.215 153.428H529.761L544.079 104.201H565.488L542.443 174.019H516.534L493.488 104.201H514.897Z" fill="#FF0000"/>
</g>
<path d="M9.52273 242.019V212.928H19.3523C21.625 212.928 23.4905 213.317 24.9489 214.093C26.4072 214.86 27.4867 215.916 28.1875 217.261C28.8883 218.605 29.2386 220.135 29.2386 221.849C29.2386 223.563 28.8883 225.083 28.1875 226.408C27.4867 227.734 26.4119 228.776 24.9631 229.533C23.5142 230.282 21.6629 230.656 19.4091 230.656H11.4545V227.474H19.2955C20.8485 227.474 22.0985 227.247 23.0455 226.792C24.0019 226.337 24.6932 225.694 25.1193 224.86C25.5549 224.017 25.7727 223.014 25.7727 221.849C25.7727 220.684 25.5549 219.666 25.1193 218.795C24.6837 217.924 23.9877 217.251 23.0312 216.778C22.0748 216.295 20.8106 216.053 19.2386 216.053H13.0455V242.019H9.52273ZM23.2159 228.951L30.375 242.019H26.2841L19.2386 228.951H23.2159ZM58.0041 233.099V220.201H61.3564V242.019H58.0041V238.326H57.7768C57.2655 239.434 56.47 240.376 55.3905 241.153C54.3109 241.92 52.9473 242.303 51.2996 242.303C49.9359 242.303 48.7238 242.005 47.6632 241.408C46.6026 240.802 45.7693 239.893 45.1632 238.681C44.5571 237.46 44.2541 235.921 44.2541 234.065V220.201H47.6064V233.837C47.6064 235.428 48.0515 236.697 48.9416 237.644C49.8412 238.591 50.9871 239.065 52.3791 239.065C53.2125 239.065 54.06 238.852 54.9217 238.426C55.7929 237.999 56.5221 237.346 57.1092 236.465C57.7058 235.585 58.0041 234.462 58.0041 233.099ZM80.4486 228.894V242.019H77.0963V220.201H80.3349V223.61H80.619C81.1304 222.502 81.9069 221.612 82.9486 220.94C83.9902 220.258 85.3349 219.917 86.9827 219.917C88.4599 219.917 89.7526 220.22 90.8605 220.826C91.9685 221.423 92.8302 222.332 93.4457 223.553C94.0613 224.765 94.369 226.3 94.369 228.156V242.019H91.0168V228.383C91.0168 226.669 90.5717 225.334 89.6815 224.377C88.7914 223.411 87.5698 222.928 86.0168 222.928C84.9467 222.928 83.9902 223.16 83.1474 223.624C82.3141 224.088 81.656 224.765 81.173 225.656C80.6901 226.546 80.4486 227.625 80.4486 228.894ZM119.242 242.474C117.14 242.474 115.327 242.01 113.802 241.082C112.287 240.144 111.117 238.837 110.294 237.161C109.479 235.476 109.072 233.515 109.072 231.281C109.072 229.046 109.479 227.076 110.294 225.372C111.117 223.658 112.263 222.322 113.731 221.366C115.208 220.4 116.932 219.917 118.902 219.917C120.038 219.917 121.16 220.106 122.268 220.485C123.376 220.864 124.385 221.48 125.294 222.332C126.203 223.175 126.927 224.292 127.467 225.684C128.007 227.076 128.277 228.79 128.277 230.826V232.247H111.458V229.349H124.867C124.867 228.118 124.621 227.019 124.129 226.053C123.646 225.087 122.955 224.325 122.055 223.766C121.165 223.208 120.114 222.928 118.902 222.928C117.566 222.928 116.411 223.26 115.436 223.923C114.47 224.576 113.726 225.428 113.206 226.48C112.685 227.531 112.424 228.658 112.424 229.86V231.792C112.424 233.44 112.708 234.837 113.277 235.982C113.854 237.119 114.654 237.985 115.677 238.582C116.7 239.169 117.888 239.462 119.242 239.462C120.123 239.462 120.919 239.339 121.629 239.093C122.349 238.837 122.969 238.459 123.49 237.957C124.01 237.445 124.413 236.811 124.697 236.053L127.936 236.962C127.595 238.061 127.022 239.027 126.217 239.86C125.412 240.684 124.418 241.328 123.234 241.792C122.05 242.247 120.72 242.474 119.242 242.474ZM183.371 212.928H186.894V232.19C186.894 234.178 186.425 235.954 185.488 237.516C184.56 239.069 183.248 240.296 181.553 241.195C179.858 242.086 177.87 242.531 175.587 242.531C173.305 242.531 171.317 242.086 169.621 241.195C167.926 240.296 166.61 239.069 165.673 237.516C164.745 235.954 164.281 234.178 164.281 232.19V212.928H167.803V231.906C167.803 233.326 168.116 234.59 168.741 235.698C169.366 236.797 170.256 237.663 171.411 238.298C172.576 238.923 173.968 239.235 175.587 239.235C177.207 239.235 178.599 238.923 179.763 238.298C180.928 237.663 181.818 236.797 182.434 235.698C183.059 234.59 183.371 233.326 183.371 231.906V212.928ZM206.427 228.894V242.019H203.074V220.201H206.313V223.61H206.597C207.109 222.502 207.885 221.612 208.927 220.94C209.968 220.258 211.313 219.917 212.961 219.917C214.438 219.917 215.731 220.22 216.839 220.826C217.947 221.423 218.808 222.332 219.424 223.553C220.039 224.765 220.347 226.3 220.347 228.156V242.019H216.995V228.383C216.995 226.669 216.55 225.334 215.66 224.377C214.77 223.411 213.548 222.928 211.995 222.928C210.925 222.928 209.968 223.16 209.126 223.624C208.292 224.088 207.634 224.765 207.151 225.656C206.668 226.546 206.427 227.625 206.427 228.894ZM239.425 228.894V242.019H236.073V212.928H239.425V223.61H239.709C240.221 222.483 240.988 221.588 242.01 220.926C243.043 220.253 244.416 219.917 246.13 219.917C247.616 219.917 248.919 220.215 250.036 220.812C251.153 221.399 252.02 222.303 252.635 223.525C253.26 224.737 253.573 226.281 253.573 228.156V242.019H250.221V228.383C250.221 226.65 249.771 225.31 248.871 224.363C247.981 223.407 246.745 222.928 245.164 222.928C244.065 222.928 243.08 223.16 242.209 223.624C241.347 224.088 240.666 224.765 240.164 225.656C239.671 226.546 239.425 227.625 239.425 228.894ZM269.306 220.201H272.658V243.61C272.658 244.955 272.426 246.12 271.962 247.105C271.507 248.089 270.816 248.852 269.888 249.391C268.969 249.931 267.809 250.201 266.408 250.201C266.294 250.201 266.181 250.201 266.067 250.201C265.953 250.201 265.84 250.201 265.726 250.201V247.076C265.84 247.076 265.944 247.076 266.039 247.076C266.133 247.076 266.237 247.076 266.351 247.076C267.374 247.076 268.122 246.773 268.595 246.167C269.069 245.57 269.306 244.718 269.306 243.61V220.201ZM270.953 216.565C270.3 216.565 269.737 216.342 269.263 215.897C268.799 215.452 268.567 214.917 268.567 214.292C268.567 213.667 268.799 213.132 269.263 212.687C269.737 212.242 270.3 212.019 270.953 212.019C271.607 212.019 272.166 212.242 272.63 212.687C273.103 213.132 273.34 213.667 273.34 214.292C273.34 214.917 273.103 215.452 272.63 215.897C272.166 216.342 271.607 216.565 270.953 216.565ZM297.546 242.474C295.443 242.474 293.63 242.01 292.105 241.082C290.59 240.144 289.421 238.837 288.597 237.161C287.782 235.476 287.375 233.515 287.375 231.281C287.375 229.046 287.782 227.076 288.597 225.372C289.421 223.658 290.566 222.322 292.034 221.366C293.511 220.4 295.235 219.917 297.205 219.917C298.341 219.917 299.463 220.106 300.571 220.485C301.679 220.864 302.688 221.48 303.597 222.332C304.506 223.175 305.23 224.292 305.77 225.684C306.31 227.076 306.58 228.79 306.58 230.826V232.247H289.761V229.349H303.171C303.171 228.118 302.924 227.019 302.432 226.053C301.949 225.087 301.258 224.325 300.358 223.766C299.468 223.208 298.417 222.928 297.205 222.928C295.869 222.928 294.714 223.26 293.739 223.923C292.773 224.576 292.029 225.428 291.509 226.48C290.988 227.531 290.727 228.658 290.727 229.86V231.792C290.727 233.44 291.011 234.837 291.58 235.982C292.157 237.119 292.958 237.985 293.98 238.582C295.003 239.169 296.191 239.462 297.546 239.462C298.426 239.462 299.222 239.339 299.932 239.093C300.652 238.837 301.272 238.459 301.793 237.957C302.314 237.445 302.716 236.811 303 236.053L306.239 236.962C305.898 238.061 305.325 239.027 304.52 239.86C303.715 240.684 302.721 241.328 301.537 241.792C300.353 242.247 299.023 242.474 297.546 242.474ZM321.279 242.019V220.201H324.518V223.61H324.802C325.256 222.445 325.99 221.541 327.004 220.897C328.017 220.244 329.234 219.917 330.654 219.917C332.094 219.917 333.291 220.244 334.248 220.897C335.214 221.541 335.967 222.445 336.506 223.61H336.734C337.292 222.483 338.13 221.588 339.248 220.926C340.365 220.253 341.705 219.917 343.268 219.917C345.219 219.917 346.814 220.528 348.055 221.749C349.295 222.962 349.915 224.851 349.915 227.417V242.019H346.563V227.417C346.563 225.807 346.123 224.657 345.242 223.965C344.362 223.274 343.325 222.928 342.131 222.928C340.597 222.928 339.409 223.392 338.566 224.32C337.723 225.239 337.302 226.404 337.302 227.815V242.019H333.893V227.076C333.893 225.836 333.49 224.837 332.685 224.079C331.88 223.312 330.844 222.928 329.575 222.928C328.703 222.928 327.889 223.16 327.131 223.624C326.383 224.088 325.777 224.732 325.313 225.556C324.859 226.371 324.631 227.313 324.631 228.383V242.019H321.279Z" fill="black"/>
<g filter="url(#filter2_i_383_855)">
<path d="M15.7045 276.02H9.51705V258.565H15.7557C17.5114 258.565 19.0227 258.914 20.2898 259.613C21.5568 260.306 22.5313 261.304 23.2131 262.605C23.9006 263.906 24.2443 265.463 24.2443 267.275C24.2443 269.093 23.9006 270.656 23.2131 271.963C22.5313 273.27 21.5511 274.272 20.2727 274.971C19 275.67 17.4773 276.02 15.7045 276.02ZM13.2074 272.858H15.5511C16.642 272.858 17.5597 272.664 18.304 272.278C19.054 271.886 19.6165 271.281 19.9915 270.463C20.3722 269.639 20.5625 268.576 20.5625 267.275C20.5625 265.985 20.3722 264.931 19.9915 264.113C19.6165 263.295 19.0568 262.693 18.3125 262.306C17.5682 261.92 16.6506 261.727 15.5597 261.727H13.2074V272.858ZM35.858 276.02V258.565H47.6193V261.608H39.5483V265.767H47.0142V268.809H39.5483V272.977H47.6534V276.02H35.858ZM62.5867 258.565L66.8055 271.826H66.9674L71.1947 258.565H75.2856L69.2685 276.02H64.5128L58.4873 258.565H62.5867ZM86.2664 276.02V258.565H98.0278V261.608H89.9568V265.767H97.4227V268.809H89.9568V272.977H98.0619V276.02H86.2664ZM109.842 276.02V258.565H113.532V272.977H121.015V276.02H109.842ZM147.699 267.292C147.699 269.196 147.338 270.815 146.617 272.15C145.901 273.485 144.923 274.505 143.685 275.21C142.452 275.909 141.065 276.258 139.526 276.258C137.975 276.258 136.583 275.906 135.35 275.201C134.117 274.497 133.142 273.477 132.426 272.142C131.71 270.806 131.352 269.19 131.352 267.292C131.352 265.389 131.71 263.77 132.426 262.434C133.142 261.099 134.117 260.082 135.35 259.383C136.583 258.679 137.975 258.326 139.526 258.326C141.065 258.326 142.452 258.679 143.685 259.383C144.923 260.082 145.901 261.099 146.617 262.434C147.338 263.77 147.699 265.389 147.699 267.292ZM143.958 267.292C143.958 266.059 143.773 265.02 143.404 264.173C143.04 263.326 142.526 262.684 141.861 262.247C141.196 261.809 140.418 261.591 139.526 261.591C138.634 261.591 137.855 261.809 137.19 262.247C136.526 262.684 136.009 263.326 135.639 264.173C135.276 265.02 135.094 266.059 135.094 267.292C135.094 268.525 135.276 269.565 135.639 270.412C136.009 271.258 136.526 271.9 137.19 272.338C137.855 272.775 138.634 272.994 139.526 272.994C140.418 272.994 141.196 272.775 141.861 272.338C142.526 271.9 143.04 271.258 143.404 270.412C143.773 269.565 143.958 268.525 143.958 267.292ZM159.313 276.02V258.565H166.199C167.523 258.565 168.651 258.818 169.583 259.324C170.514 259.824 171.225 260.52 171.713 261.412C172.208 262.298 172.455 263.321 172.455 264.48C172.455 265.639 172.205 266.662 171.705 267.548C171.205 268.434 170.48 269.125 169.531 269.619C168.588 270.113 167.446 270.36 166.105 270.36H161.716V267.403H165.509C166.219 267.403 166.804 267.281 167.264 267.037C167.73 266.787 168.077 266.443 168.304 266.005C168.537 265.562 168.654 265.054 168.654 264.48C168.654 263.9 168.537 263.395 168.304 262.963C168.077 262.525 167.73 262.187 167.264 261.949C166.798 261.704 166.208 261.582 165.492 261.582H163.003V276.02H159.313ZM183.732 276.02V258.565H195.493V261.608H187.422V265.767H194.888V268.809H187.422V272.977H195.527V276.02H183.732ZM207.307 276.02V258.565H214.193C215.512 258.565 216.637 258.801 217.568 259.272C218.506 259.738 219.219 260.4 219.708 261.258C220.202 262.11 220.449 263.113 220.449 264.267C220.449 265.426 220.199 266.423 219.699 267.258C219.199 268.088 218.475 268.724 217.526 269.167C216.583 269.61 215.441 269.832 214.1 269.832H209.489V266.866H213.503C214.208 266.866 214.793 266.77 215.259 266.576C215.725 266.383 216.071 266.093 216.299 265.707C216.531 265.321 216.648 264.841 216.648 264.267C216.648 263.687 216.531 263.199 216.299 262.801C216.071 262.403 215.722 262.102 215.25 261.897C214.784 261.687 214.196 261.582 213.486 261.582H210.997V276.02H207.307ZM216.733 268.076L221.071 276.02H216.997L212.753 268.076H216.733Z" fill="#FF0000"/>
</g>
<line y1="196.519" x2="568" y2="196.519" stroke="#FF0000"/>
<defs>
<filter id="filter0_d_383_855" x="591.005" y="28.2844" width="208.143" height="325.438" filterUnits="userSpaceOnUse" color-interpolation-filters="sRGB">
<feFlood flood-opacity="0" result="BackgroundImageFix"/>
<feColorMatrix in="SourceAlpha" type="matrix" values="0 0 0 0 0 0 0 0 0 0 0 0 0 0 0 0 0 0 127 0" result="hardAlpha"/>
<feOffset dx="3" dy="4"/>
<feGaussianBlur stdDeviation="2"/>
<feComposite in2="hardAlpha" operator="out"/>
<feColorMatrix type="matrix" values="0 0 0 0 0 0 0 0 0 0 0 0 0 0 0 0 0 0 0.25 0"/>
<feBlend mode="normal" in2="BackgroundImageFix" result="effect1_dropShadow_383_855"/>
<feBlend mode="normal" in="SourceGraphic" in2="effect1_dropShadow_383_855" result="shape"/>
</filter>
<filter id="filter1_i_383_855" x="4.5" y="104.201" width="563.988" height="74.6362" filterUnits="userSpaceOnUse" color-interpolation-filters="sRGB">
<feFlood flood-opacity="0" result="BackgroundImageFix"/>
<feBlend mode="normal" in="SourceGraphic" in2="BackgroundImageFix" result="shape"/>
<feColorMatrix in="SourceAlpha" type="matrix" values="0 0 0 0 0 0 0 0 0 0 0 0 0 0 0 0 0 0 127 0" result="hardAlpha"/>
<feOffset dx="3" dy="4"/>
<feGaussianBlur stdDeviation="2"/>
<feComposite in2="hardAlpha" operator="arithmetic" k2="-1" k3="1"/>
<feColorMatrix type="matrix" values="0 0 0 0 0 0 0 0 0 0 0 0 0 0 0 0 0 0 0.25 0"/>
<feBlend mode="normal" in2="shape" result="effect1_innerShadow_383_855"/>
</filter>
<filter id="filter2_i_383_855" x="9.51704" y="258.326" width="211.554" height="21.9321" filterUnits="userSpaceOnUse" color-interpolation-filters="sRGB">
<feFlood flood-opacity="0" result="BackgroundImageFix"/>
<feBlend mode="normal" in="SourceGraphic" in2="BackgroundImageFix" result="shape"/>
<feColorMatrix in="SourceAlpha" type="matrix" values="0 0 0 0 0 0 0 0 0 0 0 0 0 0 0 0 0 0 127 0" result="hardAlpha"/>
<feOffset dy="4"/>
<feGaussianBlur stdDeviation="2"/>
<feComposite in2="hardAlpha" operator="arithmetic" k2="-1" k3="1"/>
<feColorMatrix type="matrix" values="0 0 0 0 0 0 0 0 0 0 0 0 0 0 0 0 0 0 0.25 0"/>
<feBlend mode="normal" in2="shape" result="effect1_innerShadow_383_855"/>
</filter>
<clipPath id="clip0_383_855">
<rect width="256" height="256" fill="white" transform="translate(511 181.019) rotate(-45)"/>
</clipPath>
</defs>
</svg>
