<svg width="729" height="212" viewBox="0 0 729 212" fill="none" xmlns="http://www.w3.org/2000/svg">
<g filter="url(#filter0_d_383_866)">
<path d="M719.758 112.388V104.946C713.077 104.946 708.416 103.546 705.775 100.745C703.094 97.9444 701.754 93.2633 701.754 86.7017V67.4972C701.754 61.9758 701.234 57.1947 700.194 53.1538C699.114 49.1128 697.373 45.772 694.973 43.1314C692.572 40.4908 689.371 38.5303 685.37 37.25C681.369 35.9697 676.428 35.3295 670.547 35.3295V47.0923C675.188 47.0923 678.849 47.8125 681.529 49.2528C684.17 50.6932 686.05 52.9337 687.171 55.9744C688.251 58.9751 688.791 62.816 688.791 67.4972V91.5028C688.791 94.6236 689.211 97.4643 690.051 100.025C690.852 102.585 692.352 104.786 694.552 106.626C696.753 108.467 699.894 109.887 703.975 110.887C708.016 111.888 713.277 112.388 719.758 112.388ZM670.547 188.966C676.428 188.966 681.369 188.326 685.37 187.045C689.371 185.765 692.572 183.805 694.973 181.164C697.373 178.523 699.114 175.183 700.194 171.142C701.234 167.101 701.754 162.32 701.754 156.798V137.594C701.754 131.032 703.094 126.351 705.775 123.55C708.416 120.75 713.077 119.349 719.758 119.349V111.908C713.277 111.908 708.016 112.408 703.975 113.408C699.894 114.408 696.753 115.829 694.552 117.669C692.352 119.509 690.852 121.71 690.051 124.271C689.211 126.831 688.791 129.672 688.791 132.793V156.798C688.791 161.479 688.251 165.32 687.171 168.321C686.05 171.322 684.17 173.542 681.529 174.983C678.849 176.463 675.188 177.203 670.547 177.203V188.966ZM719.758 119.349V104.946H705.595V119.349H719.758Z" fill="black"/>
</g>
<g filter="url(#filter1_d_383_866)">
<path d="M584.241 112.388V104.946C590.923 104.946 595.584 103.546 598.225 100.745C600.905 97.9444 602.246 93.2633 602.246 86.7017V67.4972C602.246 61.9758 602.766 57.1947 603.806 53.1538C604.886 49.1128 606.627 45.772 609.027 43.1314C611.428 40.4908 614.629 38.5303 618.63 37.25C622.631 35.9697 627.572 35.3295 633.453 35.3295V47.0923C628.812 47.0923 625.151 47.8125 622.471 49.2528C619.83 50.6932 617.949 52.9337 616.829 55.9744C615.749 58.9751 615.209 62.816 615.209 67.4972V91.5028C615.209 94.6236 614.789 97.4643 613.949 100.025C613.148 102.585 611.648 104.786 609.447 106.626C607.247 108.467 604.106 109.887 600.025 110.887C595.984 111.888 590.723 112.388 584.241 112.388ZM633.453 188.966C627.572 188.966 622.631 188.326 618.63 187.045C614.629 185.765 611.428 183.805 609.027 181.164C606.627 178.523 604.886 175.183 603.806 171.142C602.766 167.101 602.246 162.32 602.246 156.798V137.594C602.246 131.032 600.905 126.351 598.225 123.55C595.584 120.75 590.923 119.349 584.241 119.349V111.908C590.723 111.908 595.984 112.408 600.025 113.408C604.106 114.408 607.247 115.829 609.447 117.669C611.648 119.509 613.148 121.71 613.949 124.271C614.789 126.831 615.209 129.672 615.209 132.793V156.798C615.209 161.479 615.749 165.32 616.829 168.321C617.949 171.322 619.83 173.542 622.471 174.983C625.151 176.463 628.812 177.203 633.453 177.203V188.966ZM584.241 119.349V104.946H598.405V119.349H584.241Z" fill="black"/>
</g>
<g filter="url(#filter2_i_383_866)">
<path d="M4.5 103.02V33.2013H34.6364C39.8182 33.2013 44.3523 34.1445 48.2386 36.0309C52.125 37.9173 55.1477 40.6332 57.3068 44.1786C59.4659 47.7241 60.5455 51.9741 60.5455 56.9286C60.5455 61.9286 59.4318 66.1445 57.2045 69.5763C55 73.0082 51.8977 75.5991 47.8977 77.3491C43.9205 79.0991 39.2727 79.9741 33.9545 79.9741H15.9545V65.2468H30.1364C32.3636 65.2468 34.2614 64.9741 35.8295 64.4286C37.4205 63.8604 38.6364 62.9627 39.4773 61.7354C40.3409 60.5082 40.7727 58.9059 40.7727 56.9286C40.7727 54.9286 40.3409 53.3036 39.4773 52.0536C38.6364 50.7809 37.4205 49.8491 35.8295 49.2582C34.2614 48.6445 32.3636 48.3377 30.1364 48.3377H23.4545V103.02H4.5ZM45.4091 70.9741L62.8636 103.02H42.2727L25.2273 70.9741H45.4091ZM141.623 33.2013H160.578V77.9286C160.578 83.2468 159.305 87.8491 156.76 91.7354C154.237 95.5991 150.714 98.5877 146.191 100.701C141.669 102.792 136.419 103.838 130.441 103.838C124.419 103.838 119.146 102.792 114.623 100.701C110.1 98.5877 106.578 95.5991 104.055 91.7354C101.555 87.8491 100.305 83.2468 100.305 77.9286V33.2013H119.26V76.2923C119.26 78.4513 119.737 80.3832 120.691 82.0877C121.646 83.7695 122.964 85.0877 124.646 86.0423C126.35 86.9968 128.282 87.4741 130.441 87.4741C132.623 87.4741 134.555 86.9968 136.237 86.0423C137.919 85.0877 139.237 83.7695 140.191 82.0877C141.146 80.3832 141.623 78.4513 141.623 76.2923V33.2013ZM261.675 33.2013V103.02H245.857L220.63 66.3377H220.221V103.02H201.266V33.2013H217.357L242.175 69.7468H242.721V33.2013H261.675Z" fill="black"/>
<path d="M329.185 103.02H302.321V33.2013H328.912C336.094 33.2013 342.299 34.5991 347.526 37.3945C352.776 40.1673 356.821 44.1673 359.662 49.3945C362.526 54.5991 363.958 60.8377 363.958 68.1104C363.958 75.3832 362.537 81.6332 359.696 86.8604C356.855 92.065 352.833 96.065 347.628 98.8604C342.424 101.633 336.276 103.02 329.185 103.02ZM321.276 86.9286H328.503C331.958 86.9286 334.901 86.3718 337.333 85.2582C339.787 84.1445 341.651 82.2241 342.924 79.4968C344.219 76.7695 344.867 72.9741 344.867 68.1104C344.867 63.2468 344.208 59.4513 342.889 56.7241C341.594 53.9968 339.685 52.0763 337.162 50.9627C334.662 49.8491 331.594 49.2923 327.958 49.2923H321.276V86.9286ZM404.408 103.02V33.2013H454.726V48.4741H423.362V60.4741H452.135V75.7468H423.362V87.7468H454.589V103.02H404.408ZM514.897 33.2013L529.215 82.4286H529.761L544.079 33.2013H565.488L542.443 103.02H516.534L493.488 33.2013H514.897Z" fill="#FF0000"/>
</g>
<path d="M9.52273 171.02V141.929H19.3523C21.625 141.929 23.4905 142.317 24.9489 143.093C26.4072 143.86 27.4867 144.916 28.1875 146.261C28.8883 147.606 29.2386 149.135 29.2386 150.849C29.2386 152.563 28.8883 154.083 28.1875 155.409C27.4867 156.734 26.4119 157.776 24.9631 158.534C23.5142 159.282 21.6629 159.656 19.4091 159.656H11.4545V156.474H19.2955C20.8485 156.474 22.0985 156.247 23.0455 155.792C24.0019 155.338 24.6932 154.694 25.1193 153.86C25.5549 153.018 25.7727 152.014 25.7727 150.849C25.7727 149.684 25.5549 148.666 25.1193 147.795C24.6837 146.924 23.9877 146.252 23.0312 145.778C22.0748 145.295 20.8106 145.054 19.2386 145.054H13.0455V171.02H9.52273ZM23.2159 157.951L30.375 171.02H26.2841L19.2386 157.951H23.2159ZM58.0041 162.099V149.201H61.3564V171.02H58.0041V167.326H57.7768C57.2655 168.434 56.47 169.377 55.3905 170.153C54.3109 170.92 52.9473 171.304 51.2996 171.304C49.9359 171.304 48.7238 171.005 47.6632 170.409C46.6026 169.803 45.7693 168.894 45.1632 167.681C44.5571 166.46 44.2541 164.921 44.2541 163.065V149.201H47.6064V162.838C47.6064 164.429 48.0515 165.698 48.9416 166.645C49.8412 167.592 50.9871 168.065 52.3791 168.065C53.2125 168.065 54.06 167.852 54.9217 167.426C55.7929 167 56.5221 166.346 57.1092 165.466C57.7058 164.585 58.0041 163.463 58.0041 162.099ZM80.4486 157.895V171.02H77.0963V149.201H80.3349V152.61H80.619C81.1304 151.502 81.9069 150.612 82.9486 149.94C83.9902 149.258 85.3349 148.917 86.9827 148.917C88.4599 148.917 89.7526 149.22 90.8605 149.826C91.9685 150.423 92.8302 151.332 93.4457 152.554C94.0613 153.766 94.369 155.3 94.369 157.156V171.02H91.0168V157.383C91.0168 155.669 90.5717 154.334 89.6815 153.377C88.7914 152.412 87.5698 151.929 86.0168 151.929C84.9467 151.929 83.9902 152.161 83.1474 152.625C82.3141 153.089 81.656 153.766 81.173 154.656C80.6901 155.546 80.4486 156.626 80.4486 157.895ZM119.242 171.474C117.14 171.474 115.327 171.01 113.802 170.082C112.287 169.145 111.117 167.838 110.294 166.162C109.479 164.476 109.072 162.516 109.072 160.281C109.072 158.046 109.479 156.076 110.294 154.372C111.117 152.658 112.263 151.323 113.731 150.366C115.208 149.4 116.932 148.917 118.902 148.917C120.038 148.917 121.16 149.107 122.268 149.485C123.376 149.864 124.385 150.48 125.294 151.332C126.203 152.175 126.927 153.292 127.467 154.684C128.007 156.076 128.277 157.79 128.277 159.826V161.247H111.458V158.349H124.867C124.867 157.118 124.621 156.02 124.129 155.054C123.646 154.088 122.955 153.325 122.055 152.767C121.165 152.208 120.114 151.929 118.902 151.929C117.566 151.929 116.411 152.26 115.436 152.923C114.47 153.576 113.726 154.429 113.206 155.48C112.685 156.531 112.424 157.658 112.424 158.86V160.792C112.424 162.44 112.708 163.837 113.277 164.983C113.854 166.119 114.654 166.985 115.677 167.582C116.7 168.169 117.888 168.463 119.242 168.463C120.123 168.463 120.919 168.34 121.629 168.093C122.349 167.838 122.969 167.459 123.49 166.957C124.01 166.446 124.413 165.811 124.697 165.054L127.936 165.963C127.595 167.061 127.022 168.027 126.217 168.86C125.412 169.684 124.418 170.328 123.234 170.792C122.05 171.247 120.72 171.474 119.242 171.474ZM183.371 141.929H186.894V161.19C186.894 163.179 186.425 164.954 185.488 166.517C184.56 168.07 183.248 169.296 181.553 170.196C179.858 171.086 177.87 171.531 175.587 171.531C173.305 171.531 171.317 171.086 169.621 170.196C167.926 169.296 166.61 168.07 165.673 166.517C164.745 164.954 164.281 163.179 164.281 161.19V141.929H167.803V160.906C167.803 162.326 168.116 163.591 168.741 164.699C169.366 165.797 170.256 166.663 171.411 167.298C172.576 167.923 173.968 168.235 175.587 168.235C177.207 168.235 178.599 167.923 179.763 167.298C180.928 166.663 181.818 165.797 182.434 164.699C183.059 163.591 183.371 162.326 183.371 160.906V141.929ZM206.427 157.895V171.02H203.074V149.201H206.313V152.61H206.597C207.109 151.502 207.885 150.612 208.927 149.94C209.968 149.258 211.313 148.917 212.961 148.917C214.438 148.917 215.731 149.22 216.839 149.826C217.947 150.423 218.808 151.332 219.424 152.554C220.039 153.766 220.347 155.3 220.347 157.156V171.02H216.995V157.383C216.995 155.669 216.55 154.334 215.66 153.377C214.77 152.412 213.548 151.929 211.995 151.929C210.925 151.929 209.968 152.161 209.126 152.625C208.292 153.089 207.634 153.766 207.151 154.656C206.668 155.546 206.427 156.626 206.427 157.895ZM239.425 157.895V171.02H236.073V141.929H239.425V152.61H239.709C240.221 151.484 240.988 150.589 242.01 149.926C243.043 149.253 244.416 148.917 246.13 148.917C247.616 148.917 248.919 149.216 250.036 149.812C251.153 150.399 252.02 151.304 252.635 152.525C253.26 153.737 253.573 155.281 253.573 157.156V171.02H250.221V157.383C250.221 155.65 249.771 154.31 248.871 153.363C247.981 152.407 246.745 151.929 245.164 151.929C244.065 151.929 243.08 152.161 242.209 152.625C241.347 153.089 240.666 153.766 240.164 154.656C239.671 155.546 239.425 156.626 239.425 157.895ZM269.306 149.201H272.658V172.61C272.658 173.955 272.426 175.12 271.962 176.105C271.507 177.09 270.816 177.852 269.888 178.392C268.969 178.931 267.809 179.201 266.408 179.201C266.294 179.201 266.181 179.201 266.067 179.201C265.953 179.201 265.84 179.201 265.726 179.201V176.076C265.84 176.076 265.944 176.076 266.039 176.076C266.133 176.076 266.237 176.076 266.351 176.076C267.374 176.076 268.122 175.773 268.595 175.167C269.069 174.571 269.306 173.718 269.306 172.61V149.201ZM270.953 145.565C270.3 145.565 269.737 145.342 269.263 144.897C268.799 144.452 268.567 143.917 268.567 143.292C268.567 142.667 268.799 142.132 269.263 141.687C269.737 141.242 270.3 141.02 270.953 141.02C271.607 141.02 272.166 141.242 272.63 141.687C273.103 142.132 273.34 142.667 273.34 143.292C273.34 143.917 273.103 144.452 272.63 144.897C272.166 145.342 271.607 145.565 270.953 145.565ZM297.546 171.474C295.443 171.474 293.63 171.01 292.105 170.082C290.59 169.145 289.421 167.838 288.597 166.162C287.782 164.476 287.375 162.516 287.375 160.281C287.375 158.046 287.782 156.076 288.597 154.372C289.421 152.658 290.566 151.323 292.034 150.366C293.511 149.4 295.235 148.917 297.205 148.917C298.341 148.917 299.463 149.107 300.571 149.485C301.679 149.864 302.688 150.48 303.597 151.332C304.506 152.175 305.23 153.292 305.77 154.684C306.31 156.076 306.58 157.79 306.58 159.826V161.247H289.761V158.349H303.171C303.171 157.118 302.924 156.02 302.432 155.054C301.949 154.088 301.258 153.325 300.358 152.767C299.468 152.208 298.417 151.929 297.205 151.929C295.869 151.929 294.714 152.26 293.739 152.923C292.773 153.576 292.029 154.429 291.509 155.48C290.988 156.531 290.727 157.658 290.727 158.86V160.792C290.727 162.44 291.011 163.837 291.58 164.983C292.157 166.119 292.958 166.985 293.98 167.582C295.003 168.169 296.191 168.463 297.546 168.463C298.426 168.463 299.222 168.34 299.932 168.093C300.652 167.838 301.272 167.459 301.793 166.957C302.314 166.446 302.716 165.811 303 165.054L306.239 165.963C305.898 167.061 305.325 168.027 304.52 168.86C303.715 169.684 302.721 170.328 301.537 170.792C300.353 171.247 299.023 171.474 297.546 171.474ZM321.279 171.02V149.201H324.518V152.61H324.802C325.256 151.446 325.99 150.541 327.004 149.897C328.017 149.244 329.234 148.917 330.654 148.917C332.094 148.917 333.291 149.244 334.248 149.897C335.214 150.541 335.967 151.446 336.506 152.61H336.734C337.292 151.484 338.13 150.589 339.248 149.926C340.365 149.253 341.705 148.917 343.268 148.917C345.219 148.917 346.814 149.528 348.055 150.75C349.295 151.962 349.915 153.851 349.915 156.417V171.02H346.563V156.417C346.563 154.807 346.123 153.657 345.242 152.966C344.362 152.274 343.325 151.929 342.131 151.929C340.597 151.929 339.409 152.393 338.566 153.321C337.723 154.239 337.302 155.404 337.302 156.815V171.02H333.893V156.076C333.893 154.836 333.49 153.837 332.685 153.079C331.88 152.312 330.844 151.929 329.575 151.929C328.703 151.929 327.889 152.161 327.131 152.625C326.383 153.089 325.777 153.733 325.313 154.556C324.859 155.371 324.631 156.313 324.631 157.383V171.02H321.279Z" fill="black"/>
<g filter="url(#filter3_i_383_866)">
<path d="M15.7045 205.02H9.51705V187.565H15.7557C17.5114 187.565 19.0227 187.914 20.2898 188.613C21.5568 189.306 22.5313 190.304 23.2131 191.605C23.9006 192.906 24.2443 194.463 24.2443 196.275C24.2443 198.093 23.9006 199.656 23.2131 200.963C22.5313 202.27 21.5511 203.272 20.2727 203.971C19 204.67 17.4773 205.02 15.7045 205.02ZM13.2074 201.858H15.5511C16.642 201.858 17.5597 201.664 18.304 201.278C19.054 200.886 19.6165 200.281 19.9915 199.463C20.3722 198.639 20.5625 197.576 20.5625 196.275C20.5625 194.985 20.3722 193.931 19.9915 193.113C19.6165 192.295 19.0568 191.693 18.3125 191.306C17.5682 190.92 16.6506 190.727 15.5597 190.727H13.2074V201.858ZM35.858 205.02V187.565H47.6193V190.608H39.5483V194.767H47.0142V197.809H39.5483V201.977H47.6534V205.02H35.858ZM62.5867 187.565L66.8055 200.826H66.9674L71.1947 187.565H75.2856L69.2685 205.02H64.5128L58.4873 187.565H62.5867ZM86.2664 205.02V187.565H98.0278V190.608H89.9568V194.767H97.4227V197.809H89.9568V201.977H98.0619V205.02H86.2664ZM109.842 205.02V187.565H113.532V201.977H121.015V205.02H109.842ZM147.699 196.292C147.699 198.196 147.338 199.815 146.617 201.15C145.901 202.485 144.923 203.505 143.685 204.21C142.452 204.909 141.065 205.258 139.526 205.258C137.975 205.258 136.583 204.906 135.35 204.201C134.117 203.497 133.142 202.477 132.426 201.142C131.71 199.806 131.352 198.19 131.352 196.292C131.352 194.389 131.71 192.77 132.426 191.434C133.142 190.099 134.117 189.082 135.35 188.383C136.583 187.679 137.975 187.326 139.526 187.326C141.065 187.326 142.452 187.679 143.685 188.383C144.923 189.082 145.901 190.099 146.617 191.434C147.338 192.77 147.699 194.389 147.699 196.292ZM143.958 196.292C143.958 195.059 143.773 194.02 143.404 193.173C143.04 192.326 142.526 191.684 141.861 191.247C141.196 190.809 140.418 190.591 139.526 190.591C138.634 190.591 137.855 190.809 137.19 191.247C136.526 191.684 136.009 192.326 135.639 193.173C135.276 194.02 135.094 195.059 135.094 196.292C135.094 197.525 135.276 198.565 135.639 199.412C136.009 200.258 136.526 200.9 137.19 201.338C137.855 201.775 138.634 201.994 139.526 201.994C140.418 201.994 141.196 201.775 141.861 201.338C142.526 200.9 143.04 200.258 143.404 199.412C143.773 198.565 143.958 197.525 143.958 196.292ZM159.313 205.02V187.565H166.199C167.523 187.565 168.651 187.818 169.583 188.324C170.514 188.824 171.225 189.52 171.713 190.412C172.208 191.298 172.455 192.321 172.455 193.48C172.455 194.639 172.205 195.662 171.705 196.548C171.205 197.434 170.48 198.125 169.531 198.619C168.588 199.113 167.446 199.36 166.105 199.36H161.716V196.403H165.509C166.219 196.403 166.804 196.281 167.264 196.037C167.73 195.787 168.077 195.443 168.304 195.005C168.537 194.562 168.654 194.054 168.654 193.48C168.654 192.9 168.537 192.395 168.304 191.963C168.077 191.525 167.73 191.187 167.264 190.949C166.798 190.704 166.208 190.582 165.492 190.582H163.003V205.02H159.313ZM183.732 205.02V187.565H195.493V190.608H187.422V194.767H194.888V197.809H187.422V201.977H195.527V205.02H183.732ZM207.307 205.02V187.565H214.193C215.512 187.565 216.637 187.801 217.568 188.272C218.506 188.738 219.219 189.4 219.708 190.258C220.202 191.11 220.449 192.113 220.449 193.267C220.449 194.426 220.199 195.423 219.699 196.258C219.199 197.088 218.475 197.724 217.526 198.167C216.583 198.61 215.441 198.832 214.1 198.832H209.489V195.866H213.503C214.208 195.866 214.793 195.77 215.259 195.576C215.725 195.383 216.071 195.093 216.299 194.707C216.531 194.321 216.648 193.841 216.648 193.267C216.648 192.687 216.531 192.199 216.299 191.801C216.071 191.403 215.722 191.102 215.25 190.897C214.784 190.687 214.196 190.582 213.486 190.582H210.997V205.02H207.307ZM216.733 197.076L221.071 205.02H216.997L212.753 197.076H216.733Z" fill="#FF0000"/>
</g>
<line y1="125.52" x2="568" y2="125.52" stroke="#FF0000"/>
<defs>
<filter id="filter0_d_383_866" x="670.547" y="35.1296" width="58.4117" height="162.036" filterUnits="userSpaceOnUse" color-interpolation-filters="sRGB">
<feFlood flood-opacity="0" result="BackgroundImageFix"/>
<feColorMatrix in="SourceAlpha" type="matrix" values="0 0 0 0 0 0 0 0 0 0 0 0 0 0 0 0 0 0 127 0" result="hardAlpha"/>
<feOffset dx="5" dy="4"/>
<feGaussianBlur stdDeviation="2.1"/>
<feComposite in2="hardAlpha" operator="out"/>
<feColorMatrix type="matrix" values="0 0 0 0 0 0 0 0 0 0 0 0 0 0 0 0 0 0 0.25 0"/>
<feBlend mode="normal" in2="BackgroundImageFix" result="effect1_dropShadow_383_866"/>
<feBlend mode="normal" in="SourceGraphic" in2="effect1_dropShadow_383_866" result="shape"/>
</filter>
<filter id="filter1_d_383_866" x="584.241" y="35.1296" width="58.4116" height="162.036" filterUnits="userSpaceOnUse" color-interpolation-filters="sRGB">
<feFlood flood-opacity="0" result="BackgroundImageFix"/>
<feColorMatrix in="SourceAlpha" type="matrix" values="0 0 0 0 0 0 0 0 0 0 0 0 0 0 0 0 0 0 127 0" result="hardAlpha"/>
<feOffset dx="5" dy="4"/>
<feGaussianBlur stdDeviation="2.1"/>
<feComposite in2="hardAlpha" operator="out"/>
<feColorMatrix type="matrix" values="0 0 0 0 0 0 0 0 0 0 0 0 0 0 0 0 0 0 0.25 0"/>
<feBlend mode="normal" in2="BackgroundImageFix" result="effect1_dropShadow_383_866"/>
<feBlend mode="normal" in="SourceGraphic" in2="effect1_dropShadow_383_866" result="shape"/>
</filter>
<filter id="filter2_i_383_866" x="4.5" y="33.2014" width="563.988" height="74.6362" filterUnits="userSpaceOnUse" color-interpolation-filters="sRGB">
<feFlood flood-opacity="0" result="BackgroundImageFix"/>
<feBlend mode="normal" in="SourceGraphic" in2="BackgroundImageFix" result="shape"/>
<feColorMatrix in="SourceAlpha" type="matrix" values="0 0 0 0 0 0 0 0 0 0 0 0 0 0 0 0 0 0 127 0" result="hardAlpha"/>
<feOffset dx="3" dy="4"/>
<feGaussianBlur stdDeviation="2"/>
<feComposite in2="hardAlpha" operator="arithmetic" k2="-1" k3="1"/>
<feColorMatrix type="matrix" values="0 0 0 0 0 0 0 0 0 0 0 0 0 0 0 0 0 0 0.25 0"/>
<feBlend mode="normal" in2="shape" result="effect1_innerShadow_383_866"/>
</filter>
<filter id="filter3_i_383_866" x="9.51704" y="187.326" width="211.554" height="21.9316" filterUnits="userSpaceOnUse" color-interpolation-filters="sRGB">
<feFlood flood-opacity="0" result="BackgroundImageFix"/>
<feBlend mode="normal" in="SourceGraphic" in2="BackgroundImageFix" result="shape"/>
<feColorMatrix in="SourceAlpha" type="matrix" values="0 0 0 0 0 0 0 0 0 0 0 0 0 0 0 0 0 0 127 0" result="hardAlpha"/>
<feOffset dy="4"/>
<feGaussianBlur stdDeviation="2"/>
<feComposite in2="hardAlpha" operator="arithmetic" k2="-1" k3="1"/>
<feColorMatrix type="matrix" values="0 0 0 0 0 0 0 0 0 0 0 0 0 0 0 0 0 0 0.25 0"/>
<feBlend mode="normal" in2="shape" result="effect1_innerShadow_383_866"/>
</filter>
</defs>
</svg>
