<svg width="781" height="225" viewBox="0 0 781 225" fill="none" xmlns="http://www.w3.org/2000/svg">
<g filter="url(#filter0_i_383_835)">
<path d="M11.5455 84.6801V80.4528C15.3409 80.4528 17.9886 79.6574 19.4886 78.0665C21.0114 76.4756 21.7727 73.8165 21.7727 70.0892V59.1801C21.7727 56.0437 22.0682 53.3278 22.6591 51.0324C23.2727 48.7369 24.2614 46.8392 25.625 45.3392C26.9886 43.8392 28.8068 42.7256 31.0795 41.9983C33.3523 41.271 36.1591 40.9074 39.5 40.9074V47.5892C36.8636 47.5892 34.7841 47.9983 33.2614 48.8165C31.7614 49.6347 30.6932 50.9074 30.0568 52.6347C29.4432 54.3392 29.1364 56.521 29.1364 59.1801V72.8165C29.1364 74.5892 28.8977 76.2028 28.4205 77.6574C27.9659 79.1119 27.1136 80.3619 25.8636 81.4074C24.6136 82.4528 22.8295 83.2597 20.5114 83.8278C18.2159 84.396 15.2273 84.6801 11.5455 84.6801ZM39.5 128.18C36.1591 128.18 33.3523 127.816 31.0795 127.089C28.8068 126.362 26.9886 125.248 25.625 123.748C24.2614 122.248 23.2727 120.351 22.6591 118.055C22.0682 115.76 21.7727 113.044 21.7727 109.907V98.9983C21.7727 95.271 21.0114 92.6119 19.4886 91.021C17.9886 89.4301 15.3409 88.6347 11.5455 88.6347V84.4074C15.2273 84.4074 18.2159 84.6915 20.5114 85.2597C22.8295 85.8278 24.6136 86.6347 25.8636 87.6801C27.1136 88.7256 27.9659 89.9756 28.4205 91.4301C28.8977 92.8847 29.1364 94.4983 29.1364 96.271V109.907C29.1364 112.566 29.4432 114.748 30.0568 116.453C30.6932 118.157 31.7614 119.419 33.2614 120.237C34.7841 121.078 36.8636 121.498 39.5 121.498V128.18ZM11.5455 88.6347V80.4528H19.5909V88.6347H11.5455ZM78.9613 113.998V44.1801H109.098C114.279 44.1801 118.814 45.1233 122.7 47.0097C126.586 48.896 129.609 51.6119 131.768 55.1574C133.927 58.7028 135.007 62.9528 135.007 67.9074C135.007 72.9074 133.893 77.1233 131.666 80.5551C129.461 83.9869 126.359 86.5778 122.359 88.3278C118.382 90.0778 113.734 90.9528 108.416 90.9528H90.4158V76.2256H104.598C106.825 76.2256 108.723 75.9528 110.291 75.4074C111.882 74.8392 113.098 73.9415 113.939 72.7142C114.802 71.4869 115.234 69.8847 115.234 67.9074C115.234 65.9074 114.802 64.2824 113.939 63.0324C113.098 61.7597 111.882 60.8278 110.291 60.2369C108.723 59.6233 106.825 59.3165 104.598 59.3165H97.9158V113.998H78.9613ZM119.87 81.9528L137.325 113.998H116.734L99.6885 81.9528H119.87ZM216.084 44.1801H235.039V88.9074C235.039 94.2256 233.766 98.8278 231.221 102.714C228.698 106.578 225.175 109.566 220.653 111.68C216.13 113.771 210.88 114.816 204.903 114.816C198.88 114.816 193.607 113.771 189.084 111.68C184.562 109.566 181.039 106.578 178.516 102.714C176.016 98.8278 174.766 94.2256 174.766 88.9074V44.1801H193.721V87.271C193.721 89.4301 194.198 91.3619 195.153 93.0665C196.107 94.7483 197.425 96.0665 199.107 97.021C200.812 97.9756 202.744 98.4528 204.903 98.4528C207.084 98.4528 209.016 97.9756 210.698 97.021C212.38 96.0665 213.698 94.7483 214.653 93.0665C215.607 91.3619 216.084 89.4301 216.084 87.271V44.1801ZM336.137 44.1801V113.998H320.318L295.091 77.3165H294.682V113.998H275.728V44.1801H291.818L316.637 80.7256H317.182V44.1801H336.137ZM755.886 84.4074V88.6347C752.091 88.6347 749.431 89.4301 747.909 91.021C746.409 92.6119 745.659 95.271 745.659 98.9983V109.907C745.659 113.044 745.352 115.76 744.738 118.055C744.147 120.351 743.17 122.248 741.806 123.748C740.443 125.248 738.625 126.362 736.352 127.089C734.079 127.816 731.272 128.18 727.931 128.18V121.498C730.568 121.498 732.636 121.078 734.136 120.237C735.659 119.419 736.727 118.157 737.341 116.453C737.977 114.748 738.295 112.566 738.295 109.907V96.271C738.295 94.4983 738.522 92.8847 738.977 91.4301C739.454 89.9756 740.318 88.7256 741.568 87.6801C742.818 86.6347 744.591 85.8278 746.886 85.2597C749.204 84.6915 752.204 84.4074 755.886 84.4074ZM727.931 40.9074C731.272 40.9074 734.079 41.271 736.352 41.9983C738.625 42.7256 740.443 43.8392 741.806 45.3392C743.17 46.8392 744.147 48.7369 744.738 51.0324C745.352 53.3278 745.659 56.0437 745.659 59.1801V70.0892C745.659 73.8165 746.409 76.4756 747.909 78.0665C749.431 79.6574 752.091 80.4528 755.886 80.4528V84.6801C752.204 84.6801 749.204 84.396 746.886 83.8278C744.591 83.2597 742.818 82.4528 741.568 81.4074C740.318 80.3619 739.454 79.1119 738.977 77.6574C738.522 76.2028 738.295 74.5892 738.295 72.8165V59.1801C738.295 56.521 737.977 54.3392 737.341 52.6347C736.727 50.9074 735.659 49.6347 734.136 48.8165C732.636 47.9983 730.568 47.5892 727.931 47.5892V40.9074ZM755.886 80.4528V88.6347H747.841V80.4528H755.886Z" fill="black"/>
<path d="M454.451 113.998H427.587V44.1801H454.178C461.36 44.1801 467.565 45.5778 472.792 48.3733C478.042 51.146 482.087 55.146 484.928 60.3733C487.792 65.5778 489.224 71.8165 489.224 79.0892C489.224 86.3619 487.803 92.6119 484.962 97.8392C482.122 103.044 478.099 107.044 472.894 109.839C467.69 112.612 461.542 113.998 454.451 113.998ZM446.542 97.9074H453.769C457.224 97.9074 460.167 97.3506 462.599 96.2369C465.053 95.1233 466.917 93.2028 468.19 90.4756C469.485 87.7483 470.133 83.9528 470.133 79.0892C470.133 74.2256 469.474 70.4301 468.156 67.7028C466.86 64.9756 464.951 63.0551 462.428 61.9415C459.928 60.8278 456.86 60.271 453.224 60.271H446.542V97.9074ZM529.674 113.998V44.1801H579.992V59.4528H548.628V71.4528H577.401V86.7256H548.628V98.7256H579.856V113.998H529.674ZM640.163 44.1801L654.482 93.4074H655.027L669.345 44.1801H690.754L667.709 113.998H641.8L618.754 44.1801H640.163Z" fill="#FF0000"/>
</g>
<path d="M9.52273 184.018V154.927H19.3523C21.625 154.927 23.4905 155.315 24.9489 156.092C26.4072 156.859 27.4867 157.915 28.1875 159.26C28.8883 160.604 29.2386 162.134 29.2386 163.848C29.2386 165.562 28.8883 167.082 28.1875 168.407C27.4867 169.733 26.4119 170.775 24.9631 171.532C23.5142 172.28 21.6629 172.654 19.4091 172.654H11.4545V169.473H19.2955C20.8485 169.473 22.0985 169.245 23.0455 168.791C24.0019 168.336 24.6932 167.692 25.1193 166.859C25.5549 166.016 25.7727 165.012 25.7727 163.848C25.7727 162.683 25.5549 161.665 25.1193 160.794C24.6837 159.922 23.9877 159.25 23.0312 158.777C22.0748 158.294 20.8106 158.052 19.2386 158.052H13.0455V184.018H9.52273ZM23.2159 170.95L30.375 184.018H26.2841L19.2386 170.95H23.2159ZM58.0041 175.098V162.2H61.3564V184.018H58.0041V180.325H57.7768C57.2655 181.433 56.47 182.375 55.3905 183.152C54.3109 183.919 52.9473 184.302 51.2996 184.302C49.9359 184.302 48.7238 184.004 47.6632 183.407C46.6026 182.801 45.7693 181.892 45.1632 180.68C44.5571 179.458 44.2541 177.92 44.2541 176.064V162.2H47.6064V175.836C47.6064 177.427 48.0515 178.696 48.9416 179.643C49.8412 180.59 50.9871 181.064 52.3791 181.064C53.2125 181.064 54.06 180.85 54.9217 180.424C55.7929 179.998 56.5221 179.345 57.1092 178.464C57.7058 177.583 58.0041 176.461 58.0041 175.098ZM80.4486 170.893V184.018H77.0963V162.2H80.3349V165.609H80.619C81.1304 164.501 81.9069 163.611 82.9486 162.939C83.9902 162.257 85.3349 161.916 86.9827 161.916C88.4599 161.916 89.7526 162.219 90.8605 162.825C91.9685 163.421 92.8302 164.331 93.4457 165.552C94.0613 166.764 94.369 168.298 94.369 170.154V184.018H91.0168V170.382C91.0168 168.668 90.5717 167.332 89.6815 166.376C88.7914 165.41 87.5698 164.927 86.0168 164.927C84.9467 164.927 83.9902 165.159 83.1474 165.623C82.3141 166.087 81.656 166.764 81.173 167.654C80.6901 168.545 80.4486 169.624 80.4486 170.893ZM119.242 184.473C117.14 184.473 115.327 184.009 113.802 183.081C112.287 182.143 111.117 180.836 110.294 179.16C109.479 177.475 109.072 175.514 109.072 173.279C109.072 171.045 109.479 169.075 110.294 167.37C111.117 165.656 112.263 164.321 113.731 163.365C115.208 162.399 116.932 161.916 118.902 161.916C120.038 161.916 121.16 162.105 122.268 162.484C123.376 162.863 124.385 163.478 125.294 164.331C126.203 165.173 126.927 166.291 127.467 167.683C128.007 169.075 128.277 170.789 128.277 172.825V174.245H111.458V171.348H124.867C124.867 170.117 124.621 169.018 124.129 168.052C123.646 167.086 122.955 166.324 122.055 165.765C121.165 165.207 120.114 164.927 118.902 164.927C117.566 164.927 116.411 165.259 115.436 165.921C114.47 166.575 113.726 167.427 113.206 168.478C112.685 169.529 112.424 170.656 112.424 171.859V173.791C112.424 175.439 112.708 176.835 113.277 177.981C113.854 179.117 114.654 179.984 115.677 180.581C116.7 181.168 117.888 181.461 119.242 181.461C120.123 181.461 120.919 181.338 121.629 181.092C122.349 180.836 122.969 180.457 123.49 179.956C124.01 179.444 124.413 178.81 124.697 178.052L127.936 178.961C127.595 180.06 127.022 181.026 126.217 181.859C125.412 182.683 124.418 183.327 123.234 183.791C122.05 184.245 120.72 184.473 119.242 184.473ZM183.371 154.927H186.894V174.189C186.894 176.177 186.425 177.953 185.488 179.515C184.56 181.068 183.248 182.295 181.553 183.194C179.858 184.084 177.87 184.529 175.587 184.529C173.305 184.529 171.317 184.084 169.621 183.194C167.926 182.295 166.61 181.068 165.673 179.515C164.745 177.953 164.281 176.177 164.281 174.189V154.927H167.803V173.904C167.803 175.325 168.116 176.589 168.741 177.697C169.366 178.796 170.256 179.662 171.411 180.296C172.576 180.921 173.968 181.234 175.587 181.234C177.207 181.234 178.599 180.921 179.763 180.296C180.928 179.662 181.818 178.796 182.434 177.697C183.059 176.589 183.371 175.325 183.371 173.904V154.927ZM206.427 170.893V184.018H203.074V162.2H206.313V165.609H206.597C207.109 164.501 207.885 163.611 208.927 162.939C209.968 162.257 211.313 161.916 212.961 161.916C214.438 161.916 215.731 162.219 216.839 162.825C217.947 163.421 218.808 164.331 219.424 165.552C220.039 166.764 220.347 168.298 220.347 170.154V184.018H216.995V170.382C216.995 168.668 216.55 167.332 215.66 166.376C214.77 165.41 213.548 164.927 211.995 164.927C210.925 164.927 209.968 165.159 209.126 165.623C208.292 166.087 207.634 166.764 207.151 167.654C206.668 168.545 206.427 169.624 206.427 170.893ZM239.425 170.893V184.018H236.073V154.927H239.425V165.609H239.709C240.221 164.482 240.988 163.587 242.01 162.924C243.043 162.252 244.416 161.916 246.13 161.916C247.616 161.916 248.919 162.214 250.036 162.811C251.153 163.398 252.02 164.302 252.635 165.524C253.26 166.736 253.573 168.279 253.573 170.154V184.018H250.221V170.382C250.221 168.649 249.771 167.309 248.871 166.362C247.981 165.405 246.745 164.927 245.164 164.927C244.065 164.927 243.08 165.159 242.209 165.623C241.347 166.087 240.666 166.764 240.164 167.654C239.671 168.545 239.425 169.624 239.425 170.893ZM269.306 162.2H272.658V185.609C272.658 186.954 272.426 188.118 271.962 189.103C271.507 190.088 270.816 190.85 269.888 191.39C268.969 191.93 267.809 192.2 266.408 192.2C266.294 192.2 266.181 192.2 266.067 192.2C265.953 192.2 265.84 192.2 265.726 192.2V189.075C265.84 189.075 265.944 189.075 266.039 189.075C266.133 189.075 266.237 189.075 266.351 189.075C267.374 189.075 268.122 188.772 268.595 188.166C269.069 187.569 269.306 186.717 269.306 185.609V162.2ZM270.953 158.564C270.3 158.564 269.737 158.341 269.263 157.896C268.799 157.451 268.567 156.916 268.567 156.291C268.567 155.666 268.799 155.131 269.263 154.686C269.737 154.241 270.3 154.018 270.953 154.018C271.607 154.018 272.166 154.241 272.63 154.686C273.103 155.131 273.34 155.666 273.34 156.291C273.34 156.916 273.103 157.451 272.63 157.896C272.166 158.341 271.607 158.564 270.953 158.564ZM297.546 184.473C295.443 184.473 293.63 184.009 292.105 183.081C290.59 182.143 289.421 180.836 288.597 179.16C287.782 177.475 287.375 175.514 287.375 173.279C287.375 171.045 287.782 169.075 288.597 167.37C289.421 165.656 290.566 164.321 292.034 163.365C293.511 162.399 295.235 161.916 297.205 161.916C298.341 161.916 299.463 162.105 300.571 162.484C301.679 162.863 302.688 163.478 303.597 164.331C304.506 165.173 305.23 166.291 305.77 167.683C306.31 169.075 306.58 170.789 306.58 172.825V174.245H289.761V171.348H303.171C303.171 170.117 302.924 169.018 302.432 168.052C301.949 167.086 301.258 166.324 300.358 165.765C299.468 165.207 298.417 164.927 297.205 164.927C295.869 164.927 294.714 165.259 293.739 165.921C292.773 166.575 292.029 167.427 291.509 168.478C290.988 169.529 290.727 170.656 290.727 171.859V173.791C290.727 175.439 291.011 176.835 291.58 177.981C292.157 179.117 292.958 179.984 293.98 180.581C295.003 181.168 296.191 181.461 297.546 181.461C298.426 181.461 299.222 181.338 299.932 181.092C300.652 180.836 301.272 180.457 301.793 179.956C302.314 179.444 302.716 178.81 303 178.052L306.239 178.961C305.898 180.06 305.325 181.026 304.52 181.859C303.715 182.683 302.721 183.327 301.537 183.791C300.353 184.245 299.023 184.473 297.546 184.473ZM321.279 184.018V162.2H324.518V165.609H324.802C325.256 164.444 325.99 163.54 327.004 162.896C328.017 162.242 329.234 161.916 330.654 161.916C332.094 161.916 333.291 162.242 334.248 162.896C335.214 163.54 335.967 164.444 336.506 165.609H336.734C337.292 164.482 338.13 163.587 339.248 162.924C340.365 162.252 341.705 161.916 343.268 161.916C345.219 161.916 346.814 162.527 348.055 163.748C349.295 164.96 349.915 166.85 349.915 169.416V184.018H346.563V169.416C346.563 167.806 346.123 166.655 345.242 165.964C344.362 165.273 343.325 164.927 342.131 164.927C340.597 164.927 339.409 165.391 338.566 166.319C337.723 167.238 337.302 168.403 337.302 169.814V184.018H333.893V169.075C333.893 167.834 333.49 166.835 332.685 166.078C331.88 165.311 330.844 164.927 329.575 164.927C328.703 164.927 327.889 165.159 327.131 165.623C326.383 166.087 325.777 166.731 325.313 167.555C324.859 168.369 324.631 169.312 324.631 170.382V184.018H321.279Z" fill="black"/>
<g filter="url(#filter1_i_383_835)">
<path d="M15.7045 218.018H9.51705V200.564H15.7557C17.5114 200.564 19.0227 200.913 20.2898 201.612C21.5568 202.305 22.5313 203.302 23.2131 204.603C23.9006 205.904 24.2443 207.461 24.2443 209.274C24.2443 211.092 23.9006 212.654 23.2131 213.961C22.5313 215.268 21.5511 216.271 20.2727 216.97C19 217.669 17.4773 218.018 15.7045 218.018ZM13.2074 214.856H15.5511C16.642 214.856 17.5597 214.663 18.304 214.277C19.054 213.885 19.6165 213.279 19.9915 212.461C20.3722 211.637 20.5625 210.575 20.5625 209.274C20.5625 207.984 20.3722 206.93 19.9915 206.112C19.6165 205.294 19.0568 204.691 18.3125 204.305C17.5682 203.919 16.6506 203.725 15.5597 203.725H13.2074V214.856ZM35.858 218.018V200.564H47.6193V203.606H39.5483V207.765H47.0142V210.808H39.5483V214.975H47.6534V218.018H35.858ZM62.5867 200.564L66.8055 213.825H66.9674L71.1947 200.564H75.2856L69.2685 218.018H64.5128L58.4873 200.564H62.5867ZM86.2664 218.018V200.564H98.0278V203.606H89.9568V207.765H97.4227V210.808H89.9568V214.975H98.0619V218.018H86.2664ZM109.842 218.018V200.564H113.532V214.975H121.015V218.018H109.842ZM147.699 209.291C147.699 211.194 147.338 212.814 146.617 214.149C145.901 215.484 144.923 216.504 143.685 217.208C142.452 217.907 141.065 218.257 139.526 218.257C137.975 218.257 136.583 217.904 135.35 217.2C134.117 216.495 133.142 215.475 132.426 214.14C131.71 212.805 131.352 211.189 131.352 209.291C131.352 207.387 131.71 205.768 132.426 204.433C133.142 203.098 134.117 202.081 135.35 201.382C136.583 200.677 137.975 200.325 139.526 200.325C141.065 200.325 142.452 200.677 143.685 201.382C144.923 202.081 145.901 203.098 146.617 204.433C147.338 205.768 147.699 207.387 147.699 209.291ZM143.958 209.291C143.958 208.058 143.773 207.018 143.404 206.171C143.04 205.325 142.526 204.683 141.861 204.245C141.196 203.808 140.418 203.589 139.526 203.589C138.634 203.589 137.855 203.808 137.19 204.245C136.526 204.683 136.009 205.325 135.639 206.171C135.276 207.018 135.094 208.058 135.094 209.291C135.094 210.524 135.276 211.564 135.639 212.41C136.009 213.257 136.526 213.899 137.19 214.336C137.855 214.774 138.634 214.992 139.526 214.992C140.418 214.992 141.196 214.774 141.861 214.336C142.526 213.899 143.04 213.257 143.404 212.41C143.773 211.564 143.958 210.524 143.958 209.291ZM159.313 218.018V200.564H166.199C167.523 200.564 168.651 200.816 169.583 201.322C170.514 201.822 171.225 202.518 171.713 203.41C172.208 204.296 172.455 205.319 172.455 206.478C172.455 207.637 172.205 208.66 171.705 209.546C171.205 210.433 170.48 211.123 169.531 211.617C168.588 212.112 167.446 212.359 166.105 212.359H161.716V209.402H165.509C166.219 209.402 166.804 209.279 167.264 209.035C167.73 208.785 168.077 208.441 168.304 208.004C168.537 207.561 168.654 207.052 168.654 206.478C168.654 205.899 168.537 205.393 168.304 204.961C168.077 204.524 167.73 204.186 167.264 203.947C166.798 203.703 166.208 203.581 165.492 203.581H163.003V218.018H159.313ZM183.732 218.018V200.564H195.493V203.606H187.422V207.765H194.888V210.808H187.422V214.975H195.527V218.018H183.732ZM207.307 218.018V200.564H214.193C215.512 200.564 216.637 200.799 217.568 201.271C218.506 201.737 219.219 202.399 219.708 203.257C220.202 204.109 220.449 205.112 220.449 206.265C220.449 207.424 220.199 208.421 219.699 209.257C219.199 210.086 218.475 210.723 217.526 211.166C216.583 211.609 215.441 211.831 214.1 211.831H209.489V208.865H213.503C214.208 208.865 214.793 208.768 215.259 208.575C215.725 208.382 216.071 208.092 216.299 207.706C216.531 207.319 216.648 206.839 216.648 206.265C216.648 205.686 216.531 205.197 216.299 204.799C216.071 204.402 215.722 204.1 215.25 203.896C214.784 203.686 214.196 203.581 213.486 203.581H210.997V218.018H207.307ZM216.733 210.075L221.071 218.018H216.997L212.753 210.075H216.733Z" fill="#FF0000"/>
</g>
<line y1="138.5" x2="781" y2="138.5" stroke="#FF0000"/>
<g clip-path="url(#clip0_383_835)" filter="url(#filter2_d_383_835)">
<g filter="url(#filter3_i_383_835)">
<path d="M363.819 120.653L345.472 133.835L349.15 112.184L396.863 29.3043L411.738 37.8942L363.819 120.653Z" fill="#D40000"/>
</g>
<g filter="url(#filter4_i_383_835)">
<path d="M413.553 34.7318L398.692 26.1517L403.623 17.918C404.375 16.6075 405.8 15.6169 407.262 15.2251C407.981 15.0304 408.732 14.9801 409.47 15.077C410.209 15.1739 410.921 15.4162 411.566 15.7898L416.1 18.4075C416.744 18.779 417.307 19.274 417.759 19.8642C418.21 20.4545 418.54 21.1281 418.73 21.8465C419.125 23.3189 418.975 25.0388 418.219 26.3483L413.553 34.7318Z" fill="#D40000"/>
</g>
<g filter="url(#filter5_i_383_835)">
<line x1="403.781" y1="33.328" x2="355.433" y2="117.249" stroke="#FAEEE3"/>
</g>
<g filter="url(#filter6_i_383_835)">
<line x1="349.354" y1="111.646" x2="355.354" y2="117.646" stroke="#FAEEE3"/>
</g>
<g filter="url(#filter7_i_383_835)">
<path d="M366 118L355.001 117.5" stroke="#FAEEE3"/>
</g>
<path d="M350.914 116.429L354.129 119.644L360.119 119.825L349.327 126.966L350.914 116.429Z" fill="#D9D9D9"/>
<g filter="url(#filter8_i_383_835)">
<path d="M346.399 128.85L349.899 130.493L345.515 133.739L346.399 128.85Z" fill="#737373"/>
</g>
</g>
<defs>
<filter id="filter0_i_383_835" x="11.5455" y="40.9075" width="747.341" height="91.2727" filterUnits="userSpaceOnUse" color-interpolation-filters="sRGB">
<feFlood flood-opacity="0" result="BackgroundImageFix"/>
<feBlend mode="normal" in="SourceGraphic" in2="BackgroundImageFix" result="shape"/>
<feColorMatrix in="SourceAlpha" type="matrix" values="0 0 0 0 0 0 0 0 0 0 0 0 0 0 0 0 0 0 127 0" result="hardAlpha"/>
<feOffset dx="3" dy="4"/>
<feGaussianBlur stdDeviation="2"/>
<feComposite in2="hardAlpha" operator="arithmetic" k2="-1" k3="1"/>
<feColorMatrix type="matrix" values="0 0 0 0 0 0 0 0 0 0 0 0 0 0 0 0 0 0 0.25 0"/>
<feBlend mode="normal" in2="shape" result="effect1_innerShadow_383_835"/>
</filter>
<filter id="filter1_i_383_835" x="9.51704" y="200.325" width="211.554" height="21.9316" filterUnits="userSpaceOnUse" color-interpolation-filters="sRGB">
<feFlood flood-opacity="0" result="BackgroundImageFix"/>
<feBlend mode="normal" in="SourceGraphic" in2="BackgroundImageFix" result="shape"/>
<feColorMatrix in="SourceAlpha" type="matrix" values="0 0 0 0 0 0 0 0 0 0 0 0 0 0 0 0 0 0 127 0" result="hardAlpha"/>
<feOffset dy="4"/>
<feGaussianBlur stdDeviation="2"/>
<feComposite in2="hardAlpha" operator="arithmetic" k2="-1" k3="1"/>
<feColorMatrix type="matrix" values="0 0 0 0 0 0 0 0 0 0 0 0 0 0 0 0 0 0 0.25 0"/>
<feBlend mode="normal" in2="shape" result="effect1_innerShadow_383_835"/>
</filter>
<filter id="filter2_d_383_835" x="316" y="-0.300488" width="145.856" height="145.156" filterUnits="userSpaceOnUse" color-interpolation-filters="sRGB">
<feFlood flood-opacity="0" result="BackgroundImageFix"/>
<feColorMatrix in="SourceAlpha" type="matrix" values="0 0 0 0 0 0 0 0 0 0 0 0 0 0 0 0 0 0 127 0" result="hardAlpha"/>
<feOffset dx="5" dy="4"/>
<feGaussianBlur stdDeviation="2.15"/>
<feComposite in2="hardAlpha" operator="out"/>
<feColorMatrix type="matrix" values="0 0 0 0 0 0 0 0 0 0 0 0 0 0 0 0 0 0 0.25 0"/>
<feBlend mode="normal" in2="BackgroundImageFix" result="effect1_dropShadow_383_835"/>
<feBlend mode="normal" in="SourceGraphic" in2="effect1_dropShadow_383_835" result="shape"/>
</filter>
<filter id="filter3_i_383_835" x="345.472" y="29.3042" width="70.2659" height="108.531" filterUnits="userSpaceOnUse" color-interpolation-filters="sRGB">
<feFlood flood-opacity="0" result="BackgroundImageFix"/>
<feBlend mode="normal" in="SourceGraphic" in2="BackgroundImageFix" result="shape"/>
<feColorMatrix in="SourceAlpha" type="matrix" values="0 0 0 0 0 0 0 0 0 0 0 0 0 0 0 0 0 0 127 0" result="hardAlpha"/>
<feOffset dx="4" dy="4"/>
<feGaussianBlur stdDeviation="2"/>
<feComposite in2="hardAlpha" operator="arithmetic" k2="-1" k3="1"/>
<feColorMatrix type="matrix" values="0 0 0 0 0 0 0 0 0 0 0 0 0 0 0 0 0 0 0.25 0"/>
<feBlend mode="normal" in2="shape" result="effect1_innerShadow_383_835"/>
</filter>
<filter id="filter4_i_383_835" x="398.692" y="15.0291" width="20.2503" height="23.7029" filterUnits="userSpaceOnUse" color-interpolation-filters="sRGB">
<feFlood flood-opacity="0" result="BackgroundImageFix"/>
<feBlend mode="normal" in="SourceGraphic" in2="BackgroundImageFix" result="shape"/>
<feColorMatrix in="SourceAlpha" type="matrix" values="0 0 0 0 0 0 0 0 0 0 0 0 0 0 0 0 0 0 127 0" result="hardAlpha"/>
<feOffset dy="4"/>
<feGaussianBlur stdDeviation="2"/>
<feComposite in2="hardAlpha" operator="arithmetic" k2="-1" k3="1"/>
<feColorMatrix type="matrix" values="0 0 0 0 0 0 0 0 0 0 0 0 0 0 0 0 0 0 0.25 0"/>
<feBlend mode="normal" in2="shape" result="effect1_innerShadow_383_835"/>
</filter>
<filter id="filter5_i_383_835" x="355" y="33.0784" width="49.2144" height="88.4207" filterUnits="userSpaceOnUse" color-interpolation-filters="sRGB">
<feFlood flood-opacity="0" result="BackgroundImageFix"/>
<feBlend mode="normal" in="SourceGraphic" in2="BackgroundImageFix" result="shape"/>
<feColorMatrix in="SourceAlpha" type="matrix" values="0 0 0 0 0 0 0 0 0 0 0 0 0 0 0 0 0 0 127 0" result="hardAlpha"/>
<feOffset dy="4"/>
<feGaussianBlur stdDeviation="2"/>
<feComposite in2="hardAlpha" operator="arithmetic" k2="-1" k3="1"/>
<feColorMatrix type="matrix" values="0 0 0 0 0.980392 0 0 0 0 0.933333 0 0 0 0 0.890196 0 0 0 0.25 0"/>
<feBlend mode="normal" in2="shape" result="effect1_innerShadow_383_835"/>
</filter>
<filter id="filter6_i_383_835" x="349" y="111.293" width="6.70711" height="10.707" filterUnits="userSpaceOnUse" color-interpolation-filters="sRGB">
<feFlood flood-opacity="0" result="BackgroundImageFix"/>
<feBlend mode="normal" in="SourceGraphic" in2="BackgroundImageFix" result="shape"/>
<feColorMatrix in="SourceAlpha" type="matrix" values="0 0 0 0 0 0 0 0 0 0 0 0 0 0 0 0 0 0 127 0" result="hardAlpha"/>
<feOffset dy="4"/>
<feGaussianBlur stdDeviation="2"/>
<feComposite in2="hardAlpha" operator="arithmetic" k2="-1" k3="1"/>
<feColorMatrix type="matrix" values="0 0 0 0 0.980392 0 0 0 0 0.933333 0 0 0 0 0.890196 0 0 0 0.25 0"/>
<feBlend mode="normal" in2="shape" result="effect1_innerShadow_383_835"/>
</filter>
<filter id="filter7_i_383_835" x="354.978" y="117" width="11.0447" height="5.49902" filterUnits="userSpaceOnUse" color-interpolation-filters="sRGB">
<feFlood flood-opacity="0" result="BackgroundImageFix"/>
<feBlend mode="normal" in="SourceGraphic" in2="BackgroundImageFix" result="shape"/>
<feColorMatrix in="SourceAlpha" type="matrix" values="0 0 0 0 0 0 0 0 0 0 0 0 0 0 0 0 0 0 127 0" result="hardAlpha"/>
<feOffset dy="4"/>
<feGaussianBlur stdDeviation="2"/>
<feComposite in2="hardAlpha" operator="arithmetic" k2="-1" k3="1"/>
<feColorMatrix type="matrix" values="0 0 0 0 0.980392 0 0 0 0 0.933333 0 0 0 0 0.890196 0 0 0 0.25 0"/>
<feBlend mode="normal" in2="shape" result="effect1_innerShadow_383_835"/>
</filter>
<filter id="filter8_i_383_835" x="345.515" y="128.85" width="4.38428" height="4.8894" filterUnits="userSpaceOnUse" color-interpolation-filters="sRGB">
<feFlood flood-opacity="0" result="BackgroundImageFix"/>
<feBlend mode="normal" in="SourceGraphic" in2="BackgroundImageFix" result="shape"/>
<feColorMatrix in="SourceAlpha" type="matrix" values="0 0 0 0 0 0 0 0 0 0 0 0 0 0 0 0 0 0 127 0" result="hardAlpha"/>
<feOffset dx="160" dy="47"/>
<feGaussianBlur stdDeviation="5.65"/>
<feComposite in2="hardAlpha" operator="arithmetic" k2="-1" k3="1"/>
<feColorMatrix type="matrix" values="0 0 0 0 0 0 0 0 0 0 0 0 0 0 0 0 0 0 0.45 0"/>
<feBlend mode="normal" in2="shape" result="effect1_innerShadow_383_835"/>
</filter>
<clipPath id="clip0_383_835">
<rect width="111.497" height="111.497" fill="white" transform="translate(316 28.8572) rotate(-15)"/>
</clipPath>
</defs>
</svg>
