<svg width="781" height="225" viewBox="0 0 781 225" fill="none" xmlns="http://www.w3.org/2000/svg">
<g filter="url(#filter0_i_392_26)">
<path d="M11.5455 84.6804V80.4531C15.3409 80.4531 17.9886 79.6576 19.4886 78.0667C21.0114 76.4758 21.7727 73.8167 21.7727 70.0894V59.1804C21.7727 56.044 22.0682 53.3281 22.6591 51.0326C23.2727 48.7372 24.2614 46.8394 25.625 45.3394C26.9886 43.8394 28.8068 42.7258 31.0795 41.9985C33.3523 41.2713 36.1591 40.9076 39.5 40.9076V47.5894C36.8636 47.5894 34.7841 47.9985 33.2614 48.8167C31.7614 49.6349 30.6932 50.9076 30.0568 52.6349C29.4432 54.3394 29.1364 56.5213 29.1364 59.1804V72.8167C29.1364 74.5894 28.8977 76.2031 28.4205 77.6576C27.9659 79.1122 27.1136 80.3622 25.8636 81.4076C24.6136 82.4531 22.8295 83.2599 20.5114 83.8281C18.2159 84.3963 15.2273 84.6804 11.5455 84.6804ZM39.5 128.18C36.1591 128.18 33.3523 127.817 31.0795 127.089C28.8068 126.362 26.9886 125.249 25.625 123.749C24.2614 122.249 23.2727 120.351 22.6591 118.055C22.0682 115.76 21.7727 113.044 21.7727 109.908V98.9985C21.7727 95.2713 21.0114 92.6122 19.4886 91.0213C17.9886 89.4304 15.3409 88.6349 11.5455 88.6349V84.4076C15.2273 84.4076 18.2159 84.6917 20.5114 85.2599C22.8295 85.8281 24.6136 86.6349 25.8636 87.6804C27.1136 88.7258 27.9659 89.9758 28.4205 91.4304C28.8977 92.8849 29.1364 94.4985 29.1364 96.2713V109.908C29.1364 112.567 29.4432 114.749 30.0568 116.453C30.6932 118.158 31.7614 119.419 33.2614 120.237C34.7841 121.078 36.8636 121.499 39.5 121.499V128.18ZM11.5455 88.6349V80.4531H19.5909V88.6349H11.5455ZM78.9613 113.999V44.1804H109.098C114.279 44.1804 118.814 45.1235 122.7 47.0099C126.586 48.8963 129.609 51.6122 131.768 55.1576C133.927 58.7031 135.007 62.9531 135.007 67.9076C135.007 72.9076 133.893 77.1235 131.666 80.5554C129.461 83.9872 126.359 86.5781 122.359 88.3281C118.382 90.0781 113.734 90.9531 108.416 90.9531H90.4158V76.2258H104.598C106.825 76.2258 108.723 75.9531 110.291 75.4076C111.882 74.8394 113.098 73.9417 113.939 72.7144C114.802 71.4872 115.234 69.8849 115.234 67.9076C115.234 65.9076 114.802 64.2826 113.939 63.0326C113.098 61.7599 111.882 60.8281 110.291 60.2372C108.723 59.6235 106.825 59.3167 104.598 59.3167H97.9158V113.999H78.9613ZM119.87 81.9531L137.325 113.999H116.734L99.6885 81.9531H119.87ZM216.084 44.1804H235.039V88.9076C235.039 94.2258 233.766 98.8281 231.221 102.714C228.698 106.578 225.175 109.567 220.653 111.68C216.13 113.771 210.88 114.817 204.903 114.817C198.88 114.817 193.607 113.771 189.084 111.68C184.562 109.567 181.039 106.578 178.516 102.714C176.016 98.8281 174.766 94.2258 174.766 88.9076V44.1804H193.721V87.2713C193.721 89.4304 194.198 91.3622 195.153 93.0667C196.107 94.7485 197.425 96.0667 199.107 97.0213C200.812 97.9758 202.744 98.4531 204.903 98.4531C207.084 98.4531 209.016 97.9758 210.698 97.0213C212.38 96.0667 213.698 94.7485 214.653 93.0667C215.607 91.3622 216.084 89.4304 216.084 87.2713V44.1804ZM336.137 44.1804V113.999H320.318L295.091 77.3167H294.682V113.999H275.728V44.1804H291.818L316.637 80.7258H317.182V44.1804H336.137ZM755.886 84.4076V88.6349C752.091 88.6349 749.431 89.4304 747.909 91.0213C746.409 92.6122 745.659 95.2713 745.659 98.9985V109.908C745.659 113.044 745.352 115.76 744.738 118.055C744.147 120.351 743.17 122.249 741.806 123.749C740.443 125.249 738.625 126.362 736.352 127.089C734.079 127.817 731.272 128.18 727.931 128.18V121.499C730.568 121.499 732.636 121.078 734.136 120.237C735.659 119.419 736.727 118.158 737.341 116.453C737.977 114.749 738.295 112.567 738.295 109.908V96.2713C738.295 94.4985 738.522 92.8849 738.977 91.4304C739.454 89.9758 740.318 88.7258 741.568 87.6804C742.818 86.6349 744.591 85.8281 746.886 85.2599C749.204 84.6917 752.204 84.4076 755.886 84.4076ZM727.931 40.9076C731.272 40.9076 734.079 41.2713 736.352 41.9985C738.625 42.7258 740.443 43.8394 741.806 45.3394C743.17 46.8394 744.147 48.7372 744.738 51.0326C745.352 53.3281 745.659 56.044 745.659 59.1804V70.0894C745.659 73.8167 746.409 76.4758 747.909 78.0667C749.431 79.6576 752.091 80.4531 755.886 80.4531V84.6804C752.204 84.6804 749.204 84.3963 746.886 83.8281C744.591 83.2599 742.818 82.4531 741.568 81.4076C740.318 80.3622 739.454 79.1122 738.977 77.6576C738.522 76.2031 738.295 74.5894 738.295 72.8167V59.1804C738.295 56.5213 737.977 54.3394 737.341 52.6349C736.727 50.9076 735.659 49.6349 734.136 48.8167C732.636 47.9985 730.568 47.5894 727.931 47.5894V40.9076ZM755.886 80.4531V88.6349H747.841V80.4531H755.886Z" fill="black"/>
<path d="M454.451 113.999H427.587V44.1804H454.178C461.36 44.1804 467.565 45.5781 472.792 48.3735C478.042 51.1463 482.087 55.1463 484.928 60.3735C487.792 65.5781 489.224 71.8167 489.224 79.0894C489.224 86.3622 487.803 92.6122 484.962 97.8394C482.122 103.044 478.099 107.044 472.894 109.839C467.69 112.612 461.542 113.999 454.451 113.999ZM446.542 97.9076H453.769C457.224 97.9076 460.167 97.3508 462.599 96.2372C465.053 95.1235 466.917 93.2031 468.19 90.4758C469.485 87.7485 470.133 83.9531 470.133 79.0894C470.133 74.2258 469.474 70.4304 468.156 67.7031C466.86 64.9758 464.951 63.0553 462.428 61.9417C459.928 60.8281 456.86 60.2713 453.224 60.2713H446.542V97.9076ZM529.674 113.999V44.1804H579.992V59.4531H548.628V71.4531H577.401V86.7258H548.628V98.7258H579.856V113.999H529.674ZM640.163 44.1804L654.482 93.4076H655.027L669.345 44.1804H690.754L667.709 113.999H641.8L618.754 44.1804H640.163Z" fill="#FF0000"/>
</g>
<path d="M9.52273 184.018V154.927H19.3523C21.625 154.927 23.4905 155.315 24.9489 156.092C26.4072 156.859 27.4867 157.915 28.1875 159.26C28.8883 160.604 29.2386 162.134 29.2386 163.848C29.2386 165.562 28.8883 167.082 28.1875 168.407C27.4867 169.733 26.4119 170.775 24.9631 171.532C23.5142 172.28 21.6629 172.654 19.4091 172.654H11.4545V169.473H19.2955C20.8485 169.473 22.0985 169.245 23.0455 168.791C24.0019 168.336 24.6932 167.692 25.1193 166.859C25.5549 166.016 25.7727 165.012 25.7727 163.848C25.7727 162.683 25.5549 161.665 25.1193 160.794C24.6837 159.922 23.9877 159.25 23.0312 158.777C22.0748 158.294 20.8106 158.052 19.2386 158.052H13.0455V184.018H9.52273ZM23.2159 170.95L30.375 184.018H26.2841L19.2386 170.95H23.2159ZM58.0041 175.098V162.2H61.3564V184.018H58.0041V180.325H57.7768C57.2655 181.433 56.47 182.375 55.3905 183.152C54.3109 183.919 52.9473 184.302 51.2996 184.302C49.9359 184.302 48.7238 184.004 47.6632 183.407C46.6026 182.801 45.7693 181.892 45.1632 180.68C44.5571 179.458 44.2541 177.92 44.2541 176.064V162.2H47.6064V175.836C47.6064 177.427 48.0515 178.696 48.9416 179.643C49.8412 180.59 50.9871 181.064 52.3791 181.064C53.2125 181.064 54.06 180.85 54.9217 180.424C55.7929 179.998 56.5221 179.345 57.1092 178.464C57.7058 177.583 58.0041 176.461 58.0041 175.098ZM80.4486 170.893V184.018H77.0963V162.2H80.3349V165.609H80.619C81.1304 164.501 81.9069 163.611 82.9486 162.939C83.9902 162.257 85.3349 161.916 86.9827 161.916C88.4599 161.916 89.7526 162.219 90.8605 162.825C91.9685 163.421 92.8302 164.331 93.4457 165.552C94.0613 166.764 94.369 168.298 94.369 170.154V184.018H91.0168V170.382C91.0168 168.668 90.5717 167.332 89.6815 166.376C88.7914 165.41 87.5698 164.927 86.0168 164.927C84.9467 164.927 83.9902 165.159 83.1474 165.623C82.3141 166.087 81.656 166.764 81.173 167.654C80.6901 168.545 80.4486 169.624 80.4486 170.893ZM119.242 184.473C117.14 184.473 115.327 184.009 113.802 183.081C112.287 182.143 111.117 180.836 110.294 179.16C109.479 177.475 109.072 175.514 109.072 173.279C109.072 171.045 109.479 169.075 110.294 167.37C111.117 165.656 112.263 164.321 113.731 163.365C115.208 162.399 116.932 161.916 118.902 161.916C120.038 161.916 121.16 162.105 122.268 162.484C123.376 162.863 124.385 163.478 125.294 164.331C126.203 165.173 126.927 166.291 127.467 167.683C128.007 169.075 128.277 170.789 128.277 172.825V174.245H111.458V171.348H124.867C124.867 170.117 124.621 169.018 124.129 168.052C123.646 167.086 122.955 166.324 122.055 165.765C121.165 165.207 120.114 164.927 118.902 164.927C117.566 164.927 116.411 165.259 115.436 165.921C114.47 166.575 113.726 167.427 113.206 168.478C112.685 169.529 112.424 170.656 112.424 171.859V173.791C112.424 175.439 112.708 176.835 113.277 177.981C113.854 179.117 114.654 179.984 115.677 180.581C116.7 181.168 117.888 181.461 119.242 181.461C120.123 181.461 120.919 181.338 121.629 181.092C122.349 180.836 122.969 180.457 123.49 179.956C124.01 179.444 124.413 178.81 124.697 178.052L127.936 178.961C127.595 180.06 127.022 181.026 126.217 181.859C125.412 182.683 124.418 183.327 123.234 183.791C122.05 184.245 120.72 184.473 119.242 184.473ZM183.371 154.927H186.894V174.189C186.894 176.177 186.425 177.953 185.488 179.515C184.56 181.068 183.248 182.295 181.553 183.194C179.858 184.084 177.87 184.529 175.587 184.529C173.305 184.529 171.317 184.084 169.621 183.194C167.926 182.295 166.61 181.068 165.673 179.515C164.745 177.953 164.281 176.177 164.281 174.189V154.927H167.803V173.904C167.803 175.325 168.116 176.589 168.741 177.697C169.366 178.796 170.256 179.662 171.411 180.296C172.576 180.921 173.968 181.234 175.587 181.234C177.207 181.234 178.599 180.921 179.763 180.296C180.928 179.662 181.818 178.796 182.434 177.697C183.059 176.589 183.371 175.325 183.371 173.904V154.927ZM206.427 170.893V184.018H203.074V162.2H206.313V165.609H206.597C207.109 164.501 207.885 163.611 208.927 162.939C209.968 162.257 211.313 161.916 212.961 161.916C214.438 161.916 215.731 162.219 216.839 162.825C217.947 163.421 218.808 164.331 219.424 165.552C220.039 166.764 220.347 168.298 220.347 170.154V184.018H216.995V170.382C216.995 168.668 216.55 167.332 215.66 166.376C214.77 165.41 213.548 164.927 211.995 164.927C210.925 164.927 209.968 165.159 209.126 165.623C208.292 166.087 207.634 166.764 207.151 167.654C206.668 168.545 206.427 169.624 206.427 170.893ZM239.425 170.893V184.018H236.073V154.927H239.425V165.609H239.709C240.221 164.482 240.988 163.587 242.01 162.924C243.043 162.252 244.416 161.916 246.13 161.916C247.616 161.916 248.919 162.214 250.036 162.811C251.153 163.398 252.02 164.302 252.635 165.524C253.26 166.736 253.573 168.279 253.573 170.154V184.018H250.221V170.382C250.221 168.649 249.771 167.309 248.871 166.362C247.981 165.405 246.745 164.927 245.164 164.927C244.065 164.927 243.08 165.159 242.209 165.623C241.347 166.087 240.666 166.764 240.164 167.654C239.671 168.545 239.425 169.624 239.425 170.893ZM269.306 162.2H272.658V185.609C272.658 186.954 272.426 188.118 271.962 189.103C271.507 190.088 270.816 190.85 269.888 191.39C268.969 191.93 267.809 192.2 266.408 192.2C266.294 192.2 266.181 192.2 266.067 192.2C265.953 192.2 265.84 192.2 265.726 192.2V189.075C265.84 189.075 265.944 189.075 266.039 189.075C266.133 189.075 266.237 189.075 266.351 189.075C267.374 189.075 268.122 188.772 268.595 188.166C269.069 187.569 269.306 186.717 269.306 185.609V162.2ZM270.953 158.564C270.3 158.564 269.737 158.341 269.263 157.896C268.799 157.451 268.567 156.916 268.567 156.291C268.567 155.666 268.799 155.131 269.263 154.686C269.737 154.241 270.3 154.018 270.953 154.018C271.607 154.018 272.166 154.241 272.63 154.686C273.103 155.131 273.34 155.666 273.34 156.291C273.34 156.916 273.103 157.451 272.63 157.896C272.166 158.341 271.607 158.564 270.953 158.564ZM297.546 184.473C295.443 184.473 293.63 184.009 292.105 183.081C290.59 182.143 289.421 180.836 288.597 179.16C287.782 177.475 287.375 175.514 287.375 173.279C287.375 171.045 287.782 169.075 288.597 167.37C289.421 165.656 290.566 164.321 292.034 163.365C293.511 162.399 295.235 161.916 297.205 161.916C298.341 161.916 299.463 162.105 300.571 162.484C301.679 162.863 302.688 163.478 303.597 164.331C304.506 165.173 305.23 166.291 305.77 167.683C306.31 169.075 306.58 170.789 306.58 172.825V174.245H289.761V171.348H303.171C303.171 170.117 302.924 169.018 302.432 168.052C301.949 167.086 301.258 166.324 300.358 165.765C299.468 165.207 298.417 164.927 297.205 164.927C295.869 164.927 294.714 165.259 293.739 165.921C292.773 166.575 292.029 167.427 291.509 168.478C290.988 169.529 290.727 170.656 290.727 171.859V173.791C290.727 175.439 291.011 176.835 291.58 177.981C292.157 179.117 292.958 179.984 293.98 180.581C295.003 181.168 296.191 181.461 297.546 181.461C298.426 181.461 299.222 181.338 299.932 181.092C300.652 180.836 301.272 180.457 301.793 179.956C302.314 179.444 302.716 178.81 303 178.052L306.239 178.961C305.898 180.06 305.325 181.026 304.52 181.859C303.715 182.683 302.721 183.327 301.537 183.791C300.353 184.245 299.023 184.473 297.546 184.473ZM321.279 184.018V162.2H324.518V165.609H324.802C325.256 164.444 325.99 163.54 327.004 162.896C328.017 162.242 329.234 161.916 330.654 161.916C332.094 161.916 333.291 162.242 334.248 162.896C335.214 163.54 335.967 164.444 336.506 165.609H336.734C337.292 164.482 338.13 163.587 339.248 162.924C340.365 162.252 341.705 161.916 343.268 161.916C345.219 161.916 346.814 162.527 348.055 163.748C349.295 164.96 349.915 166.85 349.915 169.416V184.018H346.563V169.416C346.563 167.806 346.123 166.655 345.242 165.964C344.362 165.273 343.325 164.927 342.131 164.927C340.597 164.927 339.409 165.391 338.566 166.319C337.723 167.238 337.302 168.403 337.302 169.814V184.018H333.893V169.075C333.893 167.834 333.49 166.835 332.685 166.078C331.88 165.311 330.844 164.927 329.575 164.927C328.703 164.927 327.889 165.159 327.131 165.623C326.383 166.087 325.777 166.731 325.313 167.555C324.859 168.369 324.631 169.312 324.631 170.382V184.018H321.279Z" fill="black"/>
<g filter="url(#filter1_i_392_26)">
<path d="M9.51705 218.018V200.564H21.0739V203.606H13.2074V207.765H20.3068V210.808H13.2074V218.018H9.51705ZM32.4361 218.018V200.564H39.3225C40.6407 200.564 41.7657 200.799 42.6975 201.271C43.635 201.737 44.348 202.399 44.8367 203.257C45.331 204.109 45.5782 205.112 45.5782 206.265C45.5782 207.424 45.3282 208.421 44.8282 209.257C44.3282 210.086 43.6037 210.723 42.6549 211.166C41.7117 211.609 40.5696 211.831 39.2287 211.831H34.6179V208.865H38.6321C39.3367 208.865 39.9219 208.768 40.3878 208.575C40.8537 208.382 41.2003 208.092 41.4276 207.706C41.6605 207.319 41.777 206.839 41.777 206.265C41.777 205.686 41.6605 205.197 41.4276 204.799C41.2003 204.402 40.8509 204.1 40.3793 203.896C39.9134 203.686 39.3253 203.581 38.6151 203.581H36.1265V218.018H32.4361ZM41.8622 210.075L46.2003 218.018H42.1265L37.8821 210.075H41.8622ZM73.1059 209.291C73.1059 211.194 72.7451 212.814 72.0235 214.149C71.3076 215.484 70.3303 216.504 69.0917 217.208C67.8587 217.907 66.4724 218.257 64.9326 218.257C63.3815 218.257 61.9894 217.904 60.7565 217.2C59.5235 216.495 58.5491 215.475 57.8332 214.14C57.1172 212.805 56.7593 211.189 56.7593 209.291C56.7593 207.387 57.1172 205.768 57.8332 204.433C58.5491 203.098 59.5235 202.081 60.7565 201.382C61.9894 200.677 63.3815 200.325 64.9326 200.325C66.4724 200.325 67.8587 200.677 69.0917 201.382C70.3303 202.081 71.3076 203.098 72.0235 204.433C72.7451 205.768 73.1059 207.387 73.1059 209.291ZM69.3644 209.291C69.3644 208.058 69.1797 207.018 68.8104 206.171C68.4468 205.325 67.9326 204.683 67.2678 204.245C66.603 203.808 65.8246 203.589 64.9326 203.589C64.0405 203.589 63.2621 203.808 62.5974 204.245C61.9326 204.683 61.4155 205.325 61.0462 206.171C60.6826 207.018 60.5008 208.058 60.5008 209.291C60.5008 210.524 60.6826 211.564 61.0462 212.41C61.4155 213.257 61.9326 213.899 62.5974 214.336C63.2621 214.774 64.0405 214.992 64.9326 214.992C65.8246 214.992 66.603 214.774 67.2678 214.336C67.9326 213.899 68.4468 213.257 68.8104 212.41C69.1797 211.564 69.3644 210.524 69.3644 209.291ZM99.319 200.564V218.018H96.1315L88.5377 207.032H88.4099V218.018H84.7195V200.564H87.9582L95.4923 211.541H95.6457V200.564H99.319ZM110.583 203.606V200.564H124.918V203.606H119.575V218.018H115.927V203.606H110.583ZM136.159 218.018V200.564H147.921V203.606H139.85V207.765H147.315V210.808H139.85V214.975H147.955V218.018H136.159ZM174.334 200.564V218.018H171.146L163.553 207.032H163.425V218.018H159.735V200.564H162.973L170.507 211.541H170.661V200.564H174.334ZM192.45 218.018H186.263V200.564H192.502C194.257 200.564 195.769 200.913 197.036 201.612C198.303 202.305 199.277 203.302 199.959 204.603C200.647 205.904 200.99 207.461 200.99 209.274C200.99 211.092 200.647 212.654 199.959 213.961C199.277 215.268 198.297 216.271 197.019 216.97C195.746 217.669 194.223 218.018 192.45 218.018ZM189.953 214.856H192.297C193.388 214.856 194.306 214.663 195.05 214.277C195.8 213.885 196.362 213.279 196.737 212.461C197.118 211.637 197.308 210.575 197.308 209.274C197.308 207.984 197.118 206.93 196.737 206.112C196.362 205.294 195.803 204.691 195.058 204.305C194.314 203.919 193.397 203.725 192.306 203.725H189.953V214.856ZM233.226 218.018H227.039V200.564H233.277C235.033 200.564 236.544 200.913 237.811 201.612C239.078 202.305 240.053 203.302 240.735 204.603C241.422 205.904 241.766 207.461 241.766 209.274C241.766 211.092 241.422 212.654 240.735 213.961C240.053 215.268 239.073 216.271 237.794 216.97C236.522 217.669 234.999 218.018 233.226 218.018ZM230.729 214.856H233.073C234.164 214.856 235.081 214.663 235.826 214.277C236.576 213.885 237.138 213.279 237.513 212.461C237.894 211.637 238.084 210.575 238.084 209.274C238.084 207.984 237.894 206.93 237.513 206.112C237.138 205.294 236.578 204.691 235.834 204.305C235.09 203.919 234.172 203.725 233.081 203.725H230.729V214.856ZM253.38 218.018V200.564H265.141V203.606H257.07V207.765H264.536V210.808H257.07V214.975H265.175V218.018H253.38ZM280.108 200.564L284.327 213.825H284.489L288.716 200.564H292.807L286.79 218.018H282.034L276.009 200.564H280.108ZM303.788 218.018V200.564H315.549V203.606H307.478V207.765H314.944V210.808H307.478V214.975H315.583V218.018H303.788ZM327.363 218.018V200.564H331.054V214.975H338.537V218.018H327.363ZM365.221 209.291C365.221 211.194 364.86 212.814 364.138 214.149C363.422 215.484 362.445 216.504 361.206 217.208C359.973 217.907 358.587 218.257 357.047 218.257C355.496 218.257 354.104 217.904 352.871 217.2C351.638 216.495 350.664 215.475 349.948 214.14C349.232 212.805 348.874 211.189 348.874 209.291C348.874 207.387 349.232 205.768 349.948 204.433C350.664 203.098 351.638 202.081 352.871 201.382C354.104 200.677 355.496 200.325 357.047 200.325C358.587 200.325 359.973 200.677 361.206 201.382C362.445 202.081 363.422 203.098 364.138 204.433C364.86 205.768 365.221 207.387 365.221 209.291ZM361.479 209.291C361.479 208.058 361.294 207.018 360.925 206.171C360.561 205.325 360.047 204.683 359.383 204.245C358.718 203.808 357.939 203.589 357.047 203.589C356.155 203.589 355.377 203.808 354.712 204.245C354.047 204.683 353.53 205.325 353.161 206.171C352.797 207.018 352.615 208.058 352.615 209.291C352.615 210.524 352.797 211.564 353.161 212.41C353.53 213.257 354.047 213.899 354.712 214.336C355.377 214.774 356.155 214.992 357.047 214.992C357.939 214.992 358.718 214.774 359.383 214.336C360.047 213.899 360.561 213.257 360.925 212.41C361.294 211.564 361.479 210.524 361.479 209.291ZM376.834 218.018V200.564H383.721C385.044 200.564 386.172 200.816 387.104 201.322C388.036 201.822 388.746 202.518 389.235 203.41C389.729 204.296 389.976 205.319 389.976 206.478C389.976 207.637 389.726 208.66 389.226 209.546C388.726 210.433 388.002 211.123 387.053 211.617C386.11 212.112 384.968 212.359 383.627 212.359H379.238V209.402H383.03C383.74 209.402 384.326 209.279 384.786 209.035C385.252 208.785 385.598 208.441 385.826 208.004C386.059 207.561 386.175 207.052 386.175 206.478C386.175 205.899 386.059 205.393 385.826 204.961C385.598 204.524 385.252 204.186 384.786 203.947C384.32 203.703 383.729 203.581 383.013 203.581H380.525V218.018H376.834ZM401.253 218.018V200.564H413.015V203.606H404.944V207.765H412.41V210.808H404.944V214.975H413.049V218.018H401.253ZM424.829 218.018V200.564H431.715C433.033 200.564 434.158 200.799 435.09 201.271C436.027 201.737 436.741 202.399 437.229 203.257C437.723 204.109 437.971 205.112 437.971 206.265C437.971 207.424 437.721 208.421 437.221 209.257C436.721 210.086 435.996 210.723 435.047 211.166C434.104 211.609 432.962 211.831 431.621 211.831H427.01V208.865H431.025C431.729 208.865 432.314 208.768 432.78 208.575C433.246 208.382 433.593 208.092 433.82 207.706C434.053 207.319 434.17 206.839 434.17 206.265C434.17 205.686 434.053 205.197 433.82 204.799C433.593 204.402 433.243 204.1 432.772 203.896C432.306 203.686 431.718 203.581 431.008 203.581H428.519V218.018H424.829ZM434.255 210.075L438.593 218.018H434.519L430.275 210.075H434.255Z" fill="#FF0000"/>
</g>
<line y1="138.5" x2="781" y2="138.5" stroke="#FF0000"/>
<g clip-path="url(#clip0_392_26)" filter="url(#filter2_d_392_26)">
<g filter="url(#filter3_i_392_26)">
<path d="M363.819 120.654L345.472 133.836L349.15 112.184L396.863 29.3048L411.738 37.8947L363.819 120.654Z" fill="#D40000"/>
</g>
<g filter="url(#filter4_i_392_26)">
<path d="M413.553 34.7323L398.692 26.1522L403.623 17.9185C404.375 16.608 405.8 15.6173 407.262 15.2256C407.981 15.0309 408.732 14.9806 409.47 15.0775C410.209 15.1744 410.921 15.4166 411.566 15.7903L416.1 18.408C416.744 18.7795 417.307 19.2745 417.759 19.8647C418.21 20.4549 418.54 21.1286 418.73 21.847C419.125 23.3194 418.975 25.0393 418.219 26.3488L413.553 34.7323Z" fill="#D40000"/>
</g>
<g filter="url(#filter5_i_392_26)">
<line x1="403.781" y1="33.3282" x2="355.433" y2="117.25" stroke="#FAEEE3"/>
</g>
<g filter="url(#filter6_i_392_26)">
<line x1="349.354" y1="111.646" x2="355.354" y2="117.646" stroke="#FAEEE3"/>
</g>
<g filter="url(#filter7_i_392_26)">
<path d="M366 118L355.001 117.5" stroke="#FAEEE3"/>
</g>
<path d="M350.914 116.429L354.129 119.645L360.119 119.825L349.327 126.966L350.914 116.429Z" fill="#D9D9D9"/>
<g filter="url(#filter8_i_392_26)">
<path d="M346.399 128.85L349.899 130.493L345.515 133.739L346.399 128.85Z" fill="#737373"/>
</g>
</g>
<defs>
<filter id="filter0_i_392_26" x="11.5455" y="40.9077" width="747.341" height="91.2725" filterUnits="userSpaceOnUse" color-interpolation-filters="sRGB">
<feFlood flood-opacity="0" result="BackgroundImageFix"/>
<feBlend mode="normal" in="SourceGraphic" in2="BackgroundImageFix" result="shape"/>
<feColorMatrix in="SourceAlpha" type="matrix" values="0 0 0 0 0 0 0 0 0 0 0 0 0 0 0 0 0 0 127 0" result="hardAlpha"/>
<feOffset dx="3" dy="4"/>
<feGaussianBlur stdDeviation="2"/>
<feComposite in2="hardAlpha" operator="arithmetic" k2="-1" k3="1"/>
<feColorMatrix type="matrix" values="0 0 0 0 0 0 0 0 0 0 0 0 0 0 0 0 0 0 0.25 0"/>
<feBlend mode="normal" in2="shape" result="effect1_innerShadow_392_26"/>
</filter>
<filter id="filter1_i_392_26" x="9.51704" y="200.325" width="429.076" height="21.9321" filterUnits="userSpaceOnUse" color-interpolation-filters="sRGB">
<feFlood flood-opacity="0" result="BackgroundImageFix"/>
<feBlend mode="normal" in="SourceGraphic" in2="BackgroundImageFix" result="shape"/>
<feColorMatrix in="SourceAlpha" type="matrix" values="0 0 0 0 0 0 0 0 0 0 0 0 0 0 0 0 0 0 127 0" result="hardAlpha"/>
<feOffset dy="4"/>
<feGaussianBlur stdDeviation="2"/>
<feComposite in2="hardAlpha" operator="arithmetic" k2="-1" k3="1"/>
<feColorMatrix type="matrix" values="0 0 0 0 0 0 0 0 0 0 0 0 0 0 0 0 0 0 0.25 0"/>
<feBlend mode="normal" in2="shape" result="effect1_innerShadow_392_26"/>
</filter>
<filter id="filter2_d_392_26" x="316" y="-0.3" width="145.856" height="145.156" filterUnits="userSpaceOnUse" color-interpolation-filters="sRGB">
<feFlood flood-opacity="0" result="BackgroundImageFix"/>
<feColorMatrix in="SourceAlpha" type="matrix" values="0 0 0 0 0 0 0 0 0 0 0 0 0 0 0 0 0 0 127 0" result="hardAlpha"/>
<feOffset dx="5" dy="4"/>
<feGaussianBlur stdDeviation="2.15"/>
<feComposite in2="hardAlpha" operator="out"/>
<feColorMatrix type="matrix" values="0 0 0 0 0 0 0 0 0 0 0 0 0 0 0 0 0 0 0.25 0"/>
<feBlend mode="normal" in2="BackgroundImageFix" result="effect1_dropShadow_392_26"/>
<feBlend mode="normal" in="SourceGraphic" in2="effect1_dropShadow_392_26" result="shape"/>
</filter>
<filter id="filter3_i_392_26" x="345.472" y="29.3047" width="70.266" height="108.531" filterUnits="userSpaceOnUse" color-interpolation-filters="sRGB">
<feFlood flood-opacity="0" result="BackgroundImageFix"/>
<feBlend mode="normal" in="SourceGraphic" in2="BackgroundImageFix" result="shape"/>
<feColorMatrix in="SourceAlpha" type="matrix" values="0 0 0 0 0 0 0 0 0 0 0 0 0 0 0 0 0 0 127 0" result="hardAlpha"/>
<feOffset dx="4" dy="4"/>
<feGaussianBlur stdDeviation="2"/>
<feComposite in2="hardAlpha" operator="arithmetic" k2="-1" k3="1"/>
<feColorMatrix type="matrix" values="0 0 0 0 0 0 0 0 0 0 0 0 0 0 0 0 0 0 0.25 0"/>
<feBlend mode="normal" in2="shape" result="effect1_innerShadow_392_26"/>
</filter>
<filter id="filter4_i_392_26" x="398.692" y="15.0293" width="20.2503" height="23.7031" filterUnits="userSpaceOnUse" color-interpolation-filters="sRGB">
<feFlood flood-opacity="0" result="BackgroundImageFix"/>
<feBlend mode="normal" in="SourceGraphic" in2="BackgroundImageFix" result="shape"/>
<feColorMatrix in="SourceAlpha" type="matrix" values="0 0 0 0 0 0 0 0 0 0 0 0 0 0 0 0 0 0 127 0" result="hardAlpha"/>
<feOffset dy="4"/>
<feGaussianBlur stdDeviation="2"/>
<feComposite in2="hardAlpha" operator="arithmetic" k2="-1" k3="1"/>
<feColorMatrix type="matrix" values="0 0 0 0 0 0 0 0 0 0 0 0 0 0 0 0 0 0 0.25 0"/>
<feBlend mode="normal" in2="shape" result="effect1_innerShadow_392_26"/>
</filter>
<filter id="filter5_i_392_26" x="355" y="33.0786" width="49.2144" height="88.4204" filterUnits="userSpaceOnUse" color-interpolation-filters="sRGB">
<feFlood flood-opacity="0" result="BackgroundImageFix"/>
<feBlend mode="normal" in="SourceGraphic" in2="BackgroundImageFix" result="shape"/>
<feColorMatrix in="SourceAlpha" type="matrix" values="0 0 0 0 0 0 0 0 0 0 0 0 0 0 0 0 0 0 127 0" result="hardAlpha"/>
<feOffset dy="4"/>
<feGaussianBlur stdDeviation="2"/>
<feComposite in2="hardAlpha" operator="arithmetic" k2="-1" k3="1"/>
<feColorMatrix type="matrix" values="0 0 0 0 0.980392 0 0 0 0 0.933333 0 0 0 0 0.890196 0 0 0 0.25 0"/>
<feBlend mode="normal" in2="shape" result="effect1_innerShadow_392_26"/>
</filter>
<filter id="filter6_i_392_26" x="349" y="111.293" width="6.70711" height="10.707" filterUnits="userSpaceOnUse" color-interpolation-filters="sRGB">
<feFlood flood-opacity="0" result="BackgroundImageFix"/>
<feBlend mode="normal" in="SourceGraphic" in2="BackgroundImageFix" result="shape"/>
<feColorMatrix in="SourceAlpha" type="matrix" values="0 0 0 0 0 0 0 0 0 0 0 0 0 0 0 0 0 0 127 0" result="hardAlpha"/>
<feOffset dy="4"/>
<feGaussianBlur stdDeviation="2"/>
<feComposite in2="hardAlpha" operator="arithmetic" k2="-1" k3="1"/>
<feColorMatrix type="matrix" values="0 0 0 0 0.980392 0 0 0 0 0.933333 0 0 0 0 0.890196 0 0 0 0.25 0"/>
<feBlend mode="normal" in2="shape" result="effect1_innerShadow_392_26"/>
</filter>
<filter id="filter7_i_392_26" x="354.978" y="117" width="11.0447" height="5.49902" filterUnits="userSpaceOnUse" color-interpolation-filters="sRGB">
<feFlood flood-opacity="0" result="BackgroundImageFix"/>
<feBlend mode="normal" in="SourceGraphic" in2="BackgroundImageFix" result="shape"/>
<feColorMatrix in="SourceAlpha" type="matrix" values="0 0 0 0 0 0 0 0 0 0 0 0 0 0 0 0 0 0 127 0" result="hardAlpha"/>
<feOffset dy="4"/>
<feGaussianBlur stdDeviation="2"/>
<feComposite in2="hardAlpha" operator="arithmetic" k2="-1" k3="1"/>
<feColorMatrix type="matrix" values="0 0 0 0 0.980392 0 0 0 0 0.933333 0 0 0 0 0.890196 0 0 0 0.25 0"/>
<feBlend mode="normal" in2="shape" result="effect1_innerShadow_392_26"/>
</filter>
<filter id="filter8_i_392_26" x="345.515" y="128.85" width="4.38428" height="4.88916" filterUnits="userSpaceOnUse" color-interpolation-filters="sRGB">
<feFlood flood-opacity="0" result="BackgroundImageFix"/>
<feBlend mode="normal" in="SourceGraphic" in2="BackgroundImageFix" result="shape"/>
<feColorMatrix in="SourceAlpha" type="matrix" values="0 0 0 0 0 0 0 0 0 0 0 0 0 0 0 0 0 0 127 0" result="hardAlpha"/>
<feOffset dx="160" dy="47"/>
<feGaussianBlur stdDeviation="5.65"/>
<feComposite in2="hardAlpha" operator="arithmetic" k2="-1" k3="1"/>
<feColorMatrix type="matrix" values="0 0 0 0 0 0 0 0 0 0 0 0 0 0 0 0 0 0 0.45 0"/>
<feBlend mode="normal" in2="shape" result="effect1_innerShadow_392_26"/>
</filter>
<clipPath id="clip0_392_26">
<rect width="111.497" height="111.497" fill="white" transform="translate(316 28.8574) rotate(-15)"/>
</clipPath>
</defs>
</svg>
