<svg width="811" height="204" viewBox="0 0 811 204" fill="none" xmlns="http://www.w3.org/2000/svg">
<g filter="url(#filter0_i_392_5)">
<path d="M11.5455 63.6804V59.4531C15.3409 59.4531 17.9886 58.6576 19.4886 57.0667C21.0114 55.4758 21.7727 52.8167 21.7727 49.0894V38.1804C21.7727 35.044 22.0682 32.3281 22.6591 30.0326C23.2727 27.7372 24.2614 25.8394 25.625 24.3394C26.9886 22.8394 28.8068 21.7258 31.0795 20.9985C33.3523 20.2713 36.1591 19.9076 39.5 19.9076V26.5894C36.8636 26.5894 34.7841 26.9985 33.2614 27.8167C31.7614 28.6349 30.6932 29.9076 30.0568 31.6349C29.4432 33.3394 29.1364 35.5213 29.1364 38.1804V51.8167C29.1364 53.5894 28.8977 55.2031 28.4205 56.6576C27.9659 58.1122 27.1136 59.3622 25.8636 60.4076C24.6136 61.4531 22.8295 62.2599 20.5114 62.8281C18.2159 63.3963 15.2273 63.6804 11.5455 63.6804ZM39.5 107.18C36.1591 107.18 33.3523 106.817 31.0795 106.089C28.8068 105.362 26.9886 104.249 25.625 102.749C24.2614 101.249 23.2727 99.3508 22.6591 97.0554C22.0682 94.7599 21.7727 92.044 21.7727 88.9076V77.9985C21.7727 74.2713 21.0114 71.6122 19.4886 70.0213C17.9886 68.4304 15.3409 67.6349 11.5455 67.6349V63.4076C15.2273 63.4076 18.2159 63.6917 20.5114 64.2599C22.8295 64.8281 24.6136 65.6349 25.8636 66.6804C27.1136 67.7258 27.9659 68.9758 28.4205 70.4304C28.8977 71.8849 29.1364 73.4985 29.1364 75.2713V88.9076C29.1364 91.5667 29.4432 93.7485 30.0568 95.4531C30.6932 97.1576 31.7614 98.419 33.2614 99.2372C34.7841 100.078 36.8636 100.499 39.5 100.499V107.18ZM11.5455 67.6349V59.4531H19.5909V67.6349H11.5455ZM78.9613 92.9985V23.1804H109.098C114.279 23.1804 118.814 24.1235 122.7 26.0099C126.586 27.8963 129.609 30.6122 131.768 34.1576C133.927 37.7031 135.007 41.9531 135.007 46.9076C135.007 51.9076 133.893 56.1235 131.666 59.5554C129.461 62.9872 126.359 65.5781 122.359 67.3281C118.382 69.0781 113.734 69.9531 108.416 69.9531H90.4158V55.2258H104.598C106.825 55.2258 108.723 54.9531 110.291 54.4076C111.882 53.8394 113.098 52.9417 113.939 51.7144C114.802 50.4872 115.234 48.8849 115.234 46.9076C115.234 44.9076 114.802 43.2826 113.939 42.0326C113.098 40.7599 111.882 39.8281 110.291 39.2372C108.723 38.6235 106.825 38.3167 104.598 38.3167H97.9158V92.9985H78.9613ZM119.87 60.9531L137.325 92.9985H116.734L99.6885 60.9531H119.87ZM216.084 23.1804H235.039V67.9076C235.039 73.2258 233.766 77.8281 231.221 81.7144C228.698 85.5781 225.175 88.5667 220.653 90.6804C216.13 92.7713 210.88 93.8167 204.903 93.8167C198.88 93.8167 193.607 92.7713 189.084 90.6804C184.562 88.5667 181.039 85.5781 178.516 81.7144C176.016 77.8281 174.766 73.2258 174.766 67.9076V23.1804H193.721V66.2713C193.721 68.4304 194.198 70.3622 195.153 72.0667C196.107 73.7485 197.425 75.0667 199.107 76.0213C200.812 76.9758 202.744 77.4531 204.903 77.4531C207.084 77.4531 209.016 76.9758 210.698 76.0213C212.38 75.0667 213.698 73.7485 214.653 72.0667C215.607 70.3622 216.084 68.4304 216.084 66.2713V23.1804ZM336.137 23.1804V92.9985H320.318L295.091 56.3167H294.682V92.9985H275.728V23.1804H291.818L316.637 59.7258H317.182V23.1804H336.137ZM806.691 63.4076V67.6349C802.896 67.6349 800.236 68.4304 798.714 70.0213C797.214 71.6122 796.464 74.2713 796.464 77.9985V88.9076C796.464 92.044 796.157 94.7599 795.543 97.0554C794.952 99.3508 793.975 101.249 792.611 102.749C791.248 104.249 789.43 105.362 787.157 106.089C784.884 106.817 782.077 107.18 778.736 107.18V100.499C781.373 100.499 783.441 100.078 784.941 99.2372C786.464 98.419 787.532 97.1576 788.146 95.4531C788.782 93.7485 789.1 91.5667 789.1 88.9076V75.2713C789.1 73.4985 789.327 71.8849 789.782 70.4304C790.259 68.9758 791.123 67.7258 792.373 66.6804C793.623 65.6349 795.396 64.8281 797.691 64.2599C800.009 63.6917 803.009 63.4076 806.691 63.4076ZM778.736 19.9076C782.077 19.9076 784.884 20.2713 787.157 20.9985C789.43 21.7258 791.248 22.8394 792.611 24.3394C793.975 25.8394 794.952 27.7372 795.543 30.0326C796.157 32.3281 796.464 35.044 796.464 38.1804V49.0894C796.464 52.8167 797.214 55.4758 798.714 57.0667C800.236 58.6576 802.896 59.4531 806.691 59.4531V63.6804C803.009 63.6804 800.009 63.3963 797.691 62.8281C795.396 62.2599 793.623 61.4531 792.373 60.4076C791.123 59.3622 790.259 58.1122 789.782 56.6576C789.327 55.2031 789.1 53.5894 789.1 51.8167V38.1804C789.1 35.5213 788.782 33.3394 788.146 31.6349C787.532 29.9076 786.464 28.6349 784.941 27.8167C783.441 26.9985 781.373 26.5894 778.736 26.5894V19.9076ZM806.691 59.4531V67.6349H798.646V59.4531H806.691Z" fill="black"/>
<path d="M505.256 92.9985H478.393V23.1804H504.983C512.165 23.1804 518.37 24.5781 523.597 27.3735C528.847 30.1463 532.893 34.1463 535.733 39.3735C538.597 44.5781 540.029 50.8167 540.029 58.0894C540.029 65.3622 538.608 71.6122 535.768 76.8394C532.927 82.044 528.904 86.044 523.699 88.8394C518.495 91.6122 512.347 92.9985 505.256 92.9985ZM497.347 76.9076H504.574C508.029 76.9076 510.972 76.3508 513.404 75.2372C515.858 74.1235 517.722 72.2031 518.995 69.4758C520.29 66.7485 520.938 62.9531 520.938 58.0894C520.938 53.2258 520.279 49.4304 518.961 46.7031C517.665 43.9758 515.756 42.0553 513.233 40.9417C510.733 39.8281 507.665 39.2713 504.029 39.2713H497.347V76.9076ZM580.479 92.9985V23.1804H630.797V38.4531H599.433V50.4531H628.206V65.7258H599.433V77.7258H630.661V92.9985H580.479ZM690.968 23.1804L705.287 72.4076H705.832L720.15 23.1804H741.559L718.514 92.9985H692.605L669.559 23.1804H690.968Z" fill="#FF0000"/>
</g>
<g filter="url(#filter1_i_392_5)">
<path fill-rule="evenodd" clip-rule="evenodd" d="M353.135 43.8345V80.1655H457.801V43.8345L353.135 43.8345ZM429.689 48.8861H436.996V54.2192L429.689 54.2192V48.8861ZM436.996 59.1509V64.6092H429.8V59.1509L436.996 59.1509ZM415.717 48.7766H423.045V54.3026H415.717V48.7766ZM423.08 59.1822V64.7187H415.8V59.1822H423.08ZM401.863 48.7766H409.072V54.1775H401.863V48.7766ZM401.744 59.1822H409.268V64.8334H401.744V59.1822ZM380.856 48.86H388.212V54.2192H380.856V48.86ZM395.009 59.25V64.7187H387.926V59.25H395.009ZM381.268 59.1822V64.7187H373.863V59.1822H381.268ZM366.877 48.8027H374.288V54.2609H366.877V48.8027ZM359.897 59.2031H367.093V64.6092H359.897V59.2031ZM374.072 74.9522H360.114V69.739H374.072V74.9522ZM430.052 75.0617H380.835V69.5722H430.052V75.0617ZM450.842 74.9522H436.884V69.739H450.842V74.9522ZM450.954 64.5258H443.759V59.1509H450.954V64.5258ZM450.954 54.2192H443.647V48.8861H450.954V54.2192Z" fill="#A94141"/>
</g>
<path d="M9.52273 163.019V133.928H19.3523C21.625 133.928 23.4905 134.316 24.9489 135.092C26.4072 135.859 27.4867 136.915 28.1875 138.26C28.8883 139.605 29.2386 141.134 29.2386 142.848C29.2386 144.562 28.8883 146.082 28.1875 147.408C27.4867 148.734 26.4119 149.775 24.9631 150.533C23.5142 151.281 21.6629 151.655 19.4091 151.655H11.4545V148.473H19.2955C20.8485 148.473 22.0985 148.246 23.0455 147.791C24.0019 147.337 24.6932 146.693 25.1193 145.859C25.5549 145.017 25.7727 144.013 25.7727 142.848C25.7727 141.683 25.5549 140.665 25.1193 139.794C24.6837 138.923 23.9877 138.251 23.0312 137.777C22.0748 137.294 20.8106 137.053 19.2386 137.053H13.0455V163.019H9.52273ZM23.2159 149.95L30.375 163.019H26.2841L19.2386 149.95H23.2159ZM58.0041 154.098V141.2H61.3564V163.019H58.0041V159.325H57.7768C57.2655 160.433 56.47 161.376 55.3905 162.152C54.3109 162.919 52.9473 163.303 51.2996 163.303C49.9359 163.303 48.7238 163.004 47.6632 162.408C46.6026 161.802 45.7693 160.893 45.1632 159.68C44.5571 158.459 44.2541 156.92 44.2541 155.064V141.2H47.6064V154.837C47.6064 156.428 48.0515 157.697 48.9416 158.644C49.8412 159.591 50.9871 160.064 52.3791 160.064C53.2125 160.064 54.06 159.851 54.9217 159.425C55.7929 158.999 56.5221 158.345 57.1092 157.465C57.7058 156.584 58.0041 155.462 58.0041 154.098ZM80.4486 149.894V163.019H77.0963V141.2H80.3349V144.609H80.619C81.1304 143.502 81.9069 142.611 82.9486 141.939C83.9902 141.257 85.3349 140.916 86.9827 140.916C88.4599 140.916 89.7526 141.219 90.8605 141.825C91.9685 142.422 92.8302 143.331 93.4457 144.553C94.0613 145.765 94.369 147.299 94.369 149.155V163.019H91.0168V149.382C91.0168 147.668 90.5717 146.333 89.6815 145.377C88.7914 144.411 87.5698 143.928 86.0168 143.928C84.9467 143.928 83.9902 144.16 83.1474 144.624C82.3141 145.088 81.656 145.765 81.173 146.655C80.6901 147.545 80.4486 148.625 80.4486 149.894ZM119.242 163.473C117.14 163.473 115.327 163.009 113.802 162.081C112.287 161.144 111.117 159.837 110.294 158.161C109.479 156.475 109.072 154.515 109.072 152.28C109.072 150.045 109.479 148.075 110.294 146.371C111.117 144.657 112.263 143.322 113.731 142.365C115.208 141.399 116.932 140.916 118.902 140.916C120.038 140.916 121.16 141.106 122.268 141.484C123.376 141.863 124.385 142.479 125.294 143.331C126.203 144.174 126.927 145.291 127.467 146.683C128.007 148.075 128.277 149.789 128.277 151.825V153.246H111.458V150.348H124.867C124.867 149.117 124.621 148.019 124.129 147.053C123.646 146.087 122.955 145.324 122.055 144.766C121.165 144.207 120.114 143.928 118.902 143.928C117.566 143.928 116.411 144.259 115.436 144.922C114.47 145.575 113.726 146.428 113.206 147.479C112.685 148.53 112.424 149.657 112.424 150.859V152.791C112.424 154.439 112.708 155.836 113.277 156.982C113.854 158.118 114.654 158.984 115.677 159.581C116.7 160.168 117.888 160.462 119.242 160.462C120.123 160.462 120.919 160.339 121.629 160.092C122.349 159.837 122.969 159.458 123.49 158.956C124.01 158.445 124.413 157.81 124.697 157.053L127.936 157.962C127.595 159.06 127.022 160.026 126.217 160.859C125.412 161.683 124.418 162.327 123.234 162.791C122.05 163.246 120.72 163.473 119.242 163.473ZM183.371 133.928H186.894V153.189C186.894 155.178 186.425 156.953 185.488 158.516C184.56 160.069 183.248 161.295 181.553 162.195C179.858 163.085 177.87 163.53 175.587 163.53C173.305 163.53 171.317 163.085 169.621 162.195C167.926 161.295 166.61 160.069 165.673 158.516C164.745 156.953 164.281 155.178 164.281 153.189V133.928H167.803V152.905C167.803 154.325 168.116 155.59 168.741 156.698C169.366 157.796 170.256 158.662 171.411 159.297C172.576 159.922 173.968 160.234 175.587 160.234C177.207 160.234 178.599 159.922 179.763 159.297C180.928 158.662 181.818 157.796 182.434 156.698C183.059 155.59 183.371 154.325 183.371 152.905V133.928ZM206.427 149.894V163.019H203.074V141.2H206.313V144.609H206.597C207.109 143.502 207.885 142.611 208.927 141.939C209.968 141.257 211.313 140.916 212.961 140.916C214.438 140.916 215.731 141.219 216.839 141.825C217.947 142.422 218.808 143.331 219.424 144.553C220.039 145.765 220.347 147.299 220.347 149.155V163.019H216.995V149.382C216.995 147.668 216.55 146.333 215.66 145.377C214.77 144.411 213.548 143.928 211.995 143.928C210.925 143.928 209.968 144.16 209.126 144.624C208.292 145.088 207.634 145.765 207.151 146.655C206.668 147.545 206.427 148.625 206.427 149.894ZM239.425 149.894V163.019H236.073V133.928H239.425V144.609H239.709C240.221 143.483 240.988 142.588 242.01 141.925C243.043 141.252 244.416 140.916 246.13 140.916C247.616 140.916 248.919 141.215 250.036 141.811C251.153 142.398 252.02 143.303 252.635 144.524C253.26 145.736 253.573 147.28 253.573 149.155V163.019H250.221V149.382C250.221 147.649 249.771 146.309 248.871 145.362C247.981 144.406 246.745 143.928 245.164 143.928C244.065 143.928 243.08 144.16 242.209 144.624C241.347 145.088 240.666 145.765 240.164 146.655C239.671 147.545 239.425 148.625 239.425 149.894ZM269.306 141.2H272.658V164.609C272.658 165.954 272.426 167.119 271.962 168.104C271.507 169.089 270.816 169.851 269.888 170.391C268.969 170.93 267.809 171.2 266.408 171.2C266.294 171.2 266.181 171.2 266.067 171.2C265.953 171.2 265.84 171.2 265.726 171.2V168.075C265.84 168.075 265.944 168.075 266.039 168.075C266.133 168.075 266.237 168.075 266.351 168.075C267.374 168.075 268.122 167.772 268.595 167.166C269.069 166.57 269.306 165.717 269.306 164.609V141.2ZM270.953 137.564C270.3 137.564 269.737 137.341 269.263 136.896C268.799 136.451 268.567 135.916 268.567 135.291C268.567 134.666 268.799 134.131 269.263 133.686C269.737 133.241 270.3 133.019 270.953 133.019C271.607 133.019 272.166 133.241 272.63 133.686C273.103 134.131 273.34 134.666 273.34 135.291C273.34 135.916 273.103 136.451 272.63 136.896C272.166 137.341 271.607 137.564 270.953 137.564ZM297.546 163.473C295.443 163.473 293.63 163.009 292.105 162.081C290.59 161.144 289.421 159.837 288.597 158.161C287.782 156.475 287.375 154.515 287.375 152.28C287.375 150.045 287.782 148.075 288.597 146.371C289.421 144.657 290.566 143.322 292.034 142.365C293.511 141.399 295.235 140.916 297.205 140.916C298.341 140.916 299.463 141.106 300.571 141.484C301.679 141.863 302.688 142.479 303.597 143.331C304.506 144.174 305.23 145.291 305.77 146.683C306.31 148.075 306.58 149.789 306.58 151.825V153.246H289.761V150.348H303.171C303.171 149.117 302.924 148.019 302.432 147.053C301.949 146.087 301.258 145.324 300.358 144.766C299.468 144.207 298.417 143.928 297.205 143.928C295.869 143.928 294.714 144.259 293.739 144.922C292.773 145.575 292.029 146.428 291.509 147.479C290.988 148.53 290.727 149.657 290.727 150.859V152.791C290.727 154.439 291.011 155.836 291.58 156.982C292.157 158.118 292.958 158.984 293.98 159.581C295.003 160.168 296.191 160.462 297.546 160.462C298.426 160.462 299.222 160.339 299.932 160.092C300.652 159.837 301.272 159.458 301.793 158.956C302.314 158.445 302.716 157.81 303 157.053L306.239 157.962C305.898 159.06 305.325 160.026 304.52 160.859C303.715 161.683 302.721 162.327 301.537 162.791C300.353 163.246 299.023 163.473 297.546 163.473ZM321.279 163.019V141.2H324.518V144.609H324.802C325.256 143.445 325.99 142.54 327.004 141.896C328.017 141.243 329.234 140.916 330.654 140.916C332.094 140.916 333.291 141.243 334.248 141.896C335.214 142.54 335.967 143.445 336.506 144.609H336.734C337.292 143.483 338.13 142.588 339.248 141.925C340.365 141.252 341.705 140.916 343.268 140.916C345.219 140.916 346.814 141.527 348.055 142.749C349.295 143.961 349.915 145.85 349.915 148.416V163.019H346.563V148.416C346.563 146.806 346.123 145.656 345.242 144.965C344.362 144.273 343.325 143.928 342.131 143.928C340.597 143.928 339.409 144.392 338.566 145.32C337.723 146.238 337.302 147.403 337.302 148.814V163.019H333.893V148.075C333.893 146.835 333.49 145.836 332.685 145.078C331.88 144.311 330.844 143.928 329.575 143.928C328.703 143.928 327.889 144.16 327.131 144.624C326.383 145.088 325.777 145.732 325.313 146.555C324.859 147.37 324.631 148.312 324.631 149.382V163.019H321.279Z" fill="black"/>
<g filter="url(#filter2_i_392_5)">
<path d="M9.51705 197.019V179.564H21.0739V182.607H13.2074V186.766H20.3068V189.808H13.2074V197.019H9.51705ZM32.4361 197.019V179.564H39.3225C40.6407 179.564 41.7657 179.8 42.6975 180.271C43.635 180.737 44.348 181.399 44.8367 182.257C45.331 183.109 45.5782 184.112 45.5782 185.266C45.5782 186.425 45.3282 187.422 44.8282 188.257C44.3282 189.087 43.6037 189.723 42.6549 190.166C41.7117 190.609 40.5696 190.831 39.2287 190.831H34.6179V187.865H38.6321C39.3367 187.865 39.9219 187.769 40.3878 187.575C40.8537 187.382 41.2003 187.092 41.4276 186.706C41.6605 186.32 41.777 185.84 41.777 185.266C41.777 184.686 41.6605 184.198 41.4276 183.8C41.2003 183.402 40.8509 183.101 40.3793 182.896C39.9134 182.686 39.3253 182.581 38.6151 182.581H36.1265V197.019H32.4361ZM41.8622 189.075L46.2003 197.019H42.1265L37.8821 189.075H41.8622ZM73.1059 188.291C73.1059 190.195 72.7451 191.814 72.0235 193.149C71.3076 194.484 70.3303 195.504 69.0917 196.209C67.8587 196.908 66.4724 197.257 64.9326 197.257C63.3815 197.257 61.9894 196.905 60.7565 196.2C59.5235 195.496 58.5491 194.476 57.8332 193.141C57.1172 191.805 56.7593 190.189 56.7593 188.291C56.7593 186.388 57.1172 184.769 57.8332 183.433C58.5491 182.098 59.5235 181.081 60.7565 180.382C61.9894 179.678 63.3815 179.325 64.9326 179.325C66.4724 179.325 67.8587 179.678 69.0917 180.382C70.3303 181.081 71.3076 182.098 72.0235 183.433C72.7451 184.769 73.1059 186.388 73.1059 188.291ZM69.3644 188.291C69.3644 187.058 69.1797 186.019 68.8104 185.172C68.4468 184.325 67.9326 183.683 67.2678 183.246C66.603 182.808 65.8246 182.59 64.9326 182.59C64.0405 182.59 63.2621 182.808 62.5974 183.246C61.9326 183.683 61.4155 184.325 61.0462 185.172C60.6826 186.019 60.5008 187.058 60.5008 188.291C60.5008 189.524 60.6826 190.564 61.0462 191.411C61.4155 192.257 61.9326 192.899 62.5974 193.337C63.2621 193.774 64.0405 193.993 64.9326 193.993C65.8246 193.993 66.603 193.774 67.2678 193.337C67.9326 192.899 68.4468 192.257 68.8104 191.411C69.1797 190.564 69.3644 189.524 69.3644 188.291ZM99.319 179.564V197.019H96.1315L88.5377 186.033H88.4099V197.019H84.7195V179.564H87.9582L95.4923 190.541H95.6457V179.564H99.319ZM110.583 182.607V179.564H124.918V182.607H119.575V197.019H115.927V182.607H110.583ZM136.159 197.019V179.564H147.921V182.607H139.85V186.766H147.315V189.808H139.85V193.976H147.955V197.019H136.159ZM174.334 179.564V197.019H171.146L163.553 186.033H163.425V197.019H159.735V179.564H162.973L170.507 190.541H170.661V179.564H174.334ZM192.45 197.019H186.263V179.564H192.502C194.257 179.564 195.769 179.913 197.036 180.612C198.303 181.305 199.277 182.303 199.959 183.604C200.647 184.905 200.99 186.462 200.99 188.274C200.99 190.092 200.647 191.655 199.959 192.962C199.277 194.269 198.297 195.271 197.019 195.97C195.746 196.669 194.223 197.019 192.45 197.019ZM189.953 193.857H192.297C193.388 193.857 194.306 193.663 195.05 193.277C195.8 192.885 196.362 192.28 196.737 191.462C197.118 190.638 197.308 189.575 197.308 188.274C197.308 186.984 197.118 185.93 196.737 185.112C196.362 184.294 195.803 183.692 195.058 183.305C194.314 182.919 193.397 182.726 192.306 182.726H189.953V193.857ZM233.226 197.019H227.039V179.564H233.277C235.033 179.564 236.544 179.913 237.811 180.612C239.078 181.305 240.053 182.303 240.735 183.604C241.422 184.905 241.766 186.462 241.766 188.274C241.766 190.092 241.422 191.655 240.735 192.962C240.053 194.269 239.073 195.271 237.794 195.97C236.522 196.669 234.999 197.019 233.226 197.019ZM230.729 193.857H233.073C234.164 193.857 235.081 193.663 235.826 193.277C236.576 192.885 237.138 192.28 237.513 191.462C237.894 190.638 238.084 189.575 238.084 188.274C238.084 186.984 237.894 185.93 237.513 185.112C237.138 184.294 236.578 183.692 235.834 183.305C235.09 182.919 234.172 182.726 233.081 182.726H230.729V193.857ZM253.38 197.019V179.564H265.141V182.607H257.07V186.766H264.536V189.808H257.07V193.976H265.175V197.019H253.38ZM280.108 179.564L284.327 192.825H284.489L288.716 179.564H292.807L286.79 197.019H282.034L276.009 179.564H280.108ZM303.788 197.019V179.564H315.549V182.607H307.478V186.766H314.944V189.808H307.478V193.976H315.583V197.019H303.788ZM327.363 197.019V179.564H331.054V193.976H338.537V197.019H327.363ZM365.221 188.291C365.221 190.195 364.86 191.814 364.138 193.149C363.422 194.484 362.445 195.504 361.206 196.209C359.973 196.908 358.587 197.257 357.047 197.257C355.496 197.257 354.104 196.905 352.871 196.2C351.638 195.496 350.664 194.476 349.948 193.141C349.232 191.805 348.874 190.189 348.874 188.291C348.874 186.388 349.232 184.769 349.948 183.433C350.664 182.098 351.638 181.081 352.871 180.382C354.104 179.678 355.496 179.325 357.047 179.325C358.587 179.325 359.973 179.678 361.206 180.382C362.445 181.081 363.422 182.098 364.138 183.433C364.86 184.769 365.221 186.388 365.221 188.291ZM361.479 188.291C361.479 187.058 361.294 186.019 360.925 185.172C360.561 184.325 360.047 183.683 359.383 183.246C358.718 182.808 357.939 182.59 357.047 182.59C356.155 182.59 355.377 182.808 354.712 183.246C354.047 183.683 353.53 184.325 353.161 185.172C352.797 186.019 352.615 187.058 352.615 188.291C352.615 189.524 352.797 190.564 353.161 191.411C353.53 192.257 354.047 192.899 354.712 193.337C355.377 193.774 356.155 193.993 357.047 193.993C357.939 193.993 358.718 193.774 359.383 193.337C360.047 192.899 360.561 192.257 360.925 191.411C361.294 190.564 361.479 189.524 361.479 188.291ZM376.834 197.019V179.564H383.721C385.044 179.564 386.172 179.817 387.104 180.323C388.036 180.823 388.746 181.519 389.235 182.411C389.729 183.297 389.976 184.32 389.976 185.479C389.976 186.638 389.726 187.661 389.226 188.547C388.726 189.433 388.002 190.124 387.053 190.618C386.11 191.112 384.968 191.359 383.627 191.359H379.238V188.402H383.03C383.74 188.402 384.326 188.28 384.786 188.036C385.252 187.786 385.598 187.442 385.826 187.004C386.059 186.561 386.175 186.053 386.175 185.479C386.175 184.899 386.059 184.394 385.826 183.962C385.598 183.524 385.252 183.186 384.786 182.948C384.32 182.703 383.729 182.581 383.013 182.581H380.525V197.019H376.834ZM401.253 197.019V179.564H413.015V182.607H404.944V186.766H412.41V189.808H404.944V193.976H413.049V197.019H401.253ZM424.829 197.019V179.564H431.715C433.033 179.564 434.158 179.8 435.09 180.271C436.027 180.737 436.741 181.399 437.229 182.257C437.723 183.109 437.971 184.112 437.971 185.266C437.971 186.425 437.721 187.422 437.221 188.257C436.721 189.087 435.996 189.723 435.047 190.166C434.104 190.609 432.962 190.831 431.621 190.831H427.01V187.865H431.025C431.729 187.865 432.314 187.769 432.78 187.575C433.246 187.382 433.593 187.092 433.82 186.706C434.053 186.32 434.17 185.84 434.17 185.266C434.17 184.686 434.053 184.198 433.82 183.8C433.593 183.402 433.243 183.101 432.772 182.896C432.306 182.686 431.718 182.581 431.008 182.581H428.519V197.019H424.829ZM434.255 189.075L438.593 197.019H434.519L430.275 189.075H434.255Z" fill="#FF0000"/>
</g>
<line y1="117.5" x2="781" y2="117.5" stroke="#FF0000"/>
<defs>
<filter id="filter0_i_392_5" x="11.5455" y="19.9077" width="798.146" height="91.2725" filterUnits="userSpaceOnUse" color-interpolation-filters="sRGB">
<feFlood flood-opacity="0" result="BackgroundImageFix"/>
<feBlend mode="normal" in="SourceGraphic" in2="BackgroundImageFix" result="shape"/>
<feColorMatrix in="SourceAlpha" type="matrix" values="0 0 0 0 0 0 0 0 0 0 0 0 0 0 0 0 0 0 127 0" result="hardAlpha"/>
<feOffset dx="3" dy="4"/>
<feGaussianBlur stdDeviation="2"/>
<feComposite in2="hardAlpha" operator="arithmetic" k2="-1" k3="1"/>
<feColorMatrix type="matrix" values="0 0 0 0 0 0 0 0 0 0 0 0 0 0 0 0 0 0 0.25 0"/>
<feBlend mode="normal" in2="shape" result="effect1_innerShadow_392_5"/>
</filter>
<filter id="filter1_i_392_5" x="353.135" y="43.8345" width="104.666" height="40.3311" filterUnits="userSpaceOnUse" color-interpolation-filters="sRGB">
<feFlood flood-opacity="0" result="BackgroundImageFix"/>
<feBlend mode="normal" in="SourceGraphic" in2="BackgroundImageFix" result="shape"/>
<feColorMatrix in="SourceAlpha" type="matrix" values="0 0 0 0 0 0 0 0 0 0 0 0 0 0 0 0 0 0 127 0" result="hardAlpha"/>
<feOffset dy="4"/>
<feGaussianBlur stdDeviation="2"/>
<feComposite in2="hardAlpha" operator="arithmetic" k2="-1" k3="1"/>
<feColorMatrix type="matrix" values="0 0 0 0 0 0 0 0 0 0 0 0 0 0 0 0 0 0 0.25 0"/>
<feBlend mode="normal" in2="shape" result="effect1_innerShadow_392_5"/>
</filter>
<filter id="filter2_i_392_5" x="9.51704" y="179.325" width="429.076" height="21.9321" filterUnits="userSpaceOnUse" color-interpolation-filters="sRGB">
<feFlood flood-opacity="0" result="BackgroundImageFix"/>
<feBlend mode="normal" in="SourceGraphic" in2="BackgroundImageFix" result="shape"/>
<feColorMatrix in="SourceAlpha" type="matrix" values="0 0 0 0 0 0 0 0 0 0 0 0 0 0 0 0 0 0 127 0" result="hardAlpha"/>
<feOffset dy="4"/>
<feGaussianBlur stdDeviation="2"/>
<feComposite in2="hardAlpha" operator="arithmetic" k2="-1" k3="1"/>
<feColorMatrix type="matrix" values="0 0 0 0 0 0 0 0 0 0 0 0 0 0 0 0 0 0 0.25 0"/>
<feBlend mode="normal" in2="shape" result="effect1_innerShadow_392_5"/>
</filter>
</defs>
</svg>
