<svg width="796" height="277" viewBox="0 0 796 277" fill="none" xmlns="http://www.w3.org/2000/svg">
<g filter="url(#filter0_d_383_812)">
<path d="M720.759 135.388V127.946C714.077 127.946 709.416 126.546 706.775 123.745C704.095 120.944 702.754 116.263 702.754 109.702V90.4972C702.754 84.9758 702.234 80.1947 701.194 76.1538C700.114 72.1128 698.373 68.772 695.973 66.1314C693.572 63.4908 690.371 61.5303 686.37 60.25C682.369 58.9697 677.428 58.3295 671.547 58.3295V70.0923C676.188 70.0923 679.849 70.8125 682.529 72.2528C685.17 73.6932 687.051 75.9337 688.171 78.9744C689.251 81.9751 689.791 85.816 689.791 90.4972V114.503C689.791 117.624 690.211 120.464 691.051 123.025C691.852 125.585 693.352 127.786 695.553 129.626C697.753 131.467 700.894 132.887 704.975 133.887C709.016 134.888 714.277 135.388 720.759 135.388ZM671.547 211.966C677.428 211.966 682.369 211.326 686.37 210.045C690.371 208.765 693.572 206.805 695.973 204.164C698.373 201.523 700.114 198.183 701.194 194.142C702.234 190.101 702.754 185.32 702.754 179.798V160.594C702.754 154.032 704.095 149.351 706.775 146.55C709.416 143.75 714.077 142.349 720.759 142.349V134.908C714.277 134.908 709.016 135.408 704.975 136.408C700.894 137.408 697.753 138.829 695.553 140.669C693.352 142.509 691.852 144.71 691.051 147.271C690.211 149.831 689.791 152.672 689.791 155.793V179.798C689.791 184.479 689.251 188.32 688.171 191.321C687.051 194.322 685.17 196.542 682.529 197.983C679.849 199.463 676.188 200.203 671.547 200.203V211.966ZM720.759 142.349V127.946H706.595V142.349H720.759Z" fill="black"/>
</g>
<g clip-path="url(#clip0_383_812)" filter="url(#filter1_i_383_812)">
<g filter="url(#filter2_i_383_812)">
<path d="M616.089 244.039L579 270.688L586.434 226.918L682.891 59.3707L712.962 76.7358L616.089 244.039Z" fill="#D40000"/>
</g>
<g filter="url(#filter3_i_383_812)">
<path d="M716.63 70.343L686.587 52.9977L696.557 36.3527C698.075 33.7033 700.957 31.7007 703.912 30.9088C705.366 30.5151 706.884 30.4133 708.377 30.6092C709.87 30.8052 711.31 31.2949 712.613 32.0502L721.779 37.3422C723.08 38.0931 724.22 39.0939 725.133 40.2871C726.045 41.4802 726.713 42.8421 727.097 44.2944C727.894 47.271 727.591 50.7478 726.063 53.3951L716.63 70.343Z" fill="#D40000"/>
</g>
<g filter="url(#filter4_i_383_812)">
<line x1="696.432" y1="67.2511" x2="599.432" y2="234.251" stroke="black"/>
</g>
<g filter="url(#filter5_i_383_812)">
<line x1="587.325" y1="225.547" x2="599.302" y2="234.601" stroke="black"/>
</g>
<g filter="url(#filter6_i_383_812)">
<line x1="617.718" y1="241.693" x2="598.821" y2="234.467" stroke="black"/>
</g>
<g filter="url(#filter7_i_383_812)">
<path d="M590 235.5L596.5 242L608.609 242.365L586.792 256.801L590 235.5Z" fill="#D9D9D9"/>
</g>
<g filter="url(#filter8_i_383_812)">
<path d="M580.874 260.61L587.95 263.931L579.087 270.494L580.874 260.61Z" fill="#737373"/>
</g>
</g>
<g filter="url(#filter9_d_383_812)">
<path d="M585.241 135.388V127.946C591.923 127.946 596.584 126.546 599.225 123.745C601.905 120.944 603.246 116.263 603.246 109.702V90.4972C603.246 84.9758 603.766 80.1947 604.806 76.1538C605.886 72.1128 607.627 68.772 610.027 66.1314C612.428 63.4908 615.629 61.5303 619.629 60.25C623.63 58.9697 628.572 58.3295 634.453 58.3295V70.0923C629.812 70.0923 626.151 70.8125 623.47 72.2528C620.83 73.6932 618.949 75.9337 617.829 78.9744C616.749 81.9751 616.209 85.816 616.209 90.4972V114.503C616.209 117.624 615.789 120.464 614.948 123.025C614.148 125.585 612.648 127.786 610.447 129.626C608.247 131.467 605.106 132.887 601.025 133.887C596.984 134.888 591.723 135.388 585.241 135.388ZM634.453 211.966C628.572 211.966 623.63 211.326 619.629 210.045C615.629 208.765 612.428 206.805 610.027 204.164C607.627 201.523 605.886 198.183 604.806 194.142C603.766 190.101 603.246 185.32 603.246 179.798V160.594C603.246 154.032 601.905 149.351 599.225 146.55C596.584 143.75 591.923 142.349 585.241 142.349V134.908C591.723 134.908 596.984 135.408 601.025 136.408C605.106 137.408 608.247 138.829 610.447 140.669C612.648 142.509 614.148 144.71 614.948 147.271C615.789 149.831 616.209 152.672 616.209 155.793V179.798C616.209 184.479 616.749 188.32 617.829 191.321C618.949 194.322 620.83 196.542 623.47 197.983C626.151 199.463 629.812 200.203 634.453 200.203V211.966ZM585.241 142.349V127.946H599.405V142.349H585.241Z" fill="black"/>
</g>
<g filter="url(#filter10_i_383_812)">
<path d="M4.5 146.02V76.2013H34.6364C39.8182 76.2013 44.3523 77.1445 48.2386 79.0309C52.125 80.9173 55.1477 83.6332 57.3068 87.1786C59.4659 90.7241 60.5455 94.9741 60.5455 99.9286C60.5455 104.929 59.4318 109.145 57.2045 112.576C55 116.008 51.8977 118.599 47.8977 120.349C43.9205 122.099 39.2727 122.974 33.9545 122.974H15.9545V108.247H30.1364C32.3636 108.247 34.2614 107.974 35.8295 107.429C37.4205 106.86 38.6364 105.963 39.4773 104.735C40.3409 103.508 40.7727 101.906 40.7727 99.9286C40.7727 97.9286 40.3409 96.3036 39.4773 95.0536C38.6364 93.7809 37.4205 92.8491 35.8295 92.2582C34.2614 91.6445 32.3636 91.3377 30.1364 91.3377H23.4545V146.02H4.5ZM45.4091 113.974L62.8636 146.02H42.2727L25.2273 113.974H45.4091ZM141.623 76.2013H160.578V120.929C160.578 126.247 159.305 130.849 156.76 134.735C154.237 138.599 150.714 141.588 146.191 143.701C141.669 145.792 136.419 146.838 130.441 146.838C124.419 146.838 119.146 145.792 114.623 143.701C110.1 141.588 106.578 138.599 104.055 134.735C101.555 130.849 100.305 126.247 100.305 120.929V76.2013H119.26V119.292C119.26 121.451 119.737 123.383 120.691 125.088C121.646 126.77 122.964 128.088 124.646 129.042C126.35 129.997 128.282 130.474 130.441 130.474C132.623 130.474 134.555 129.997 136.237 129.042C137.919 128.088 139.237 126.77 140.191 125.088C141.146 123.383 141.623 121.451 141.623 119.292V76.2013ZM261.675 76.2013V146.02H245.857L220.63 109.338H220.221V146.02H201.266V76.2013H217.357L242.175 112.747H242.721V76.2013H261.675Z" fill="black"/>
<path d="M329.185 146.02H302.321V76.2013H328.912C336.094 76.2013 342.299 77.5991 347.526 80.3945C352.776 83.1673 356.821 87.1673 359.662 92.3945C362.526 97.5991 363.958 103.838 363.958 111.11C363.958 118.383 362.537 124.633 359.696 129.86C356.855 135.065 352.833 139.065 347.628 141.86C342.424 144.633 336.276 146.02 329.185 146.02ZM321.276 129.929H328.503C331.958 129.929 334.901 129.372 337.333 128.258C339.787 127.145 341.651 125.224 342.924 122.497C344.219 119.77 344.867 115.974 344.867 111.11C344.867 106.247 344.208 102.451 342.889 99.7241C341.594 96.9968 339.685 95.0763 337.162 93.9627C334.662 92.8491 331.594 92.2923 327.958 92.2923H321.276V129.929ZM404.408 146.02V76.2013H454.726V91.4741H423.362V103.474H452.135V118.747H423.362V130.747H454.589V146.02H404.408ZM514.897 76.2013L529.215 125.429H529.761L544.079 76.2013H565.488L542.443 146.02H516.534L493.488 76.2013H514.897Z" fill="#D40000"/>
</g>
<path d="M9.52273 214.02V184.929H19.3523C21.625 184.929 23.4905 185.317 24.9489 186.093C26.4072 186.86 27.4867 187.916 28.1875 189.261C28.8883 190.606 29.2386 192.135 29.2386 193.849C29.2386 195.563 28.8883 197.083 28.1875 198.409C27.4867 199.734 26.4119 200.776 24.9631 201.534C23.5142 202.282 21.6629 202.656 19.4091 202.656H11.4545V199.474H19.2955C20.8485 199.474 22.0985 199.247 23.0455 198.792C24.0019 198.338 24.6932 197.694 25.1193 196.86C25.5549 196.018 25.7727 195.014 25.7727 193.849C25.7727 192.684 25.5549 191.666 25.1193 190.795C24.6837 189.924 23.9877 189.252 23.0312 188.778C22.0748 188.295 20.8106 188.054 19.2386 188.054H13.0455V214.02H9.52273ZM23.2159 200.951L30.375 214.02H26.2841L19.2386 200.951H23.2159ZM58.0041 205.099V192.201H61.3564V214.02H58.0041V210.326H57.7768C57.2655 211.434 56.47 212.377 55.3905 213.153C54.3109 213.92 52.9473 214.304 51.2996 214.304C49.9359 214.304 48.7238 214.005 47.6632 213.409C46.6026 212.803 45.7693 211.894 45.1632 210.681C44.5571 209.46 44.2541 207.921 44.2541 206.065V192.201H47.6064V205.838C47.6064 207.429 48.0515 208.698 48.9416 209.645C49.8412 210.592 50.9871 211.065 52.3791 211.065C53.2125 211.065 54.06 210.852 54.9217 210.426C55.7929 210 56.5221 209.346 57.1092 208.466C57.7058 207.585 58.0041 206.463 58.0041 205.099ZM80.4486 200.895V214.02H77.0963V192.201H80.3349V195.61H80.619C81.1304 194.502 81.9069 193.612 82.9486 192.94C83.9902 192.258 85.3349 191.917 86.9827 191.917C88.4599 191.917 89.7526 192.22 90.8605 192.826C91.9685 193.423 92.8302 194.332 93.4457 195.554C94.0613 196.766 94.369 198.3 94.369 200.156V214.02H91.0168V200.383C91.0168 198.669 90.5717 197.334 89.6815 196.377C88.7914 195.412 87.5698 194.929 86.0168 194.929C84.9467 194.929 83.9902 195.161 83.1474 195.625C82.3141 196.089 81.656 196.766 81.173 197.656C80.6901 198.546 80.4486 199.626 80.4486 200.895ZM119.242 214.474C117.14 214.474 115.327 214.01 113.802 213.082C112.287 212.145 111.117 210.838 110.294 209.162C109.479 207.476 109.072 205.516 109.072 203.281C109.072 201.046 109.479 199.076 110.294 197.372C111.117 195.658 112.263 194.323 113.731 193.366C115.208 192.4 116.932 191.917 118.902 191.917C120.038 191.917 121.16 192.107 122.268 192.485C123.376 192.864 124.385 193.48 125.294 194.332C126.203 195.175 126.927 196.292 127.467 197.684C128.007 199.076 128.277 200.79 128.277 202.826V204.247H111.458V201.349H124.867C124.867 200.118 124.621 199.02 124.129 198.054C123.646 197.088 122.955 196.325 122.055 195.767C121.165 195.208 120.114 194.929 118.902 194.929C117.566 194.929 116.411 195.26 115.436 195.923C114.47 196.576 113.726 197.429 113.206 198.48C112.685 199.531 112.424 200.658 112.424 201.86V203.792C112.424 205.44 112.708 206.837 113.277 207.983C113.854 209.119 114.654 209.985 115.677 210.582C116.7 211.169 117.888 211.463 119.242 211.463C120.123 211.463 120.919 211.34 121.629 211.093C122.349 210.838 122.969 210.459 123.49 209.957C124.01 209.446 124.413 208.811 124.697 208.054L127.936 208.963C127.595 210.061 127.022 211.027 126.217 211.86C125.412 212.684 124.418 213.328 123.234 213.792C122.05 214.247 120.72 214.474 119.242 214.474ZM183.371 184.929H186.894V204.19C186.894 206.179 186.425 207.954 185.488 209.517C184.56 211.07 183.248 212.296 181.553 213.196C179.858 214.086 177.87 214.531 175.587 214.531C173.305 214.531 171.317 214.086 169.621 213.196C167.926 212.296 166.61 211.07 165.673 209.517C164.745 207.954 164.281 206.179 164.281 204.19V184.929H167.803V203.906C167.803 205.326 168.116 206.591 168.741 207.699C169.366 208.797 170.256 209.663 171.411 210.298C172.576 210.923 173.968 211.235 175.587 211.235C177.207 211.235 178.599 210.923 179.763 210.298C180.928 209.663 181.818 208.797 182.434 207.699C183.059 206.591 183.371 205.326 183.371 203.906V184.929ZM206.427 200.895V214.02H203.074V192.201H206.313V195.61H206.597C207.109 194.502 207.885 193.612 208.927 192.94C209.968 192.258 211.313 191.917 212.961 191.917C214.438 191.917 215.731 192.22 216.839 192.826C217.947 193.423 218.808 194.332 219.424 195.554C220.039 196.766 220.347 198.3 220.347 200.156V214.02H216.995V200.383C216.995 198.669 216.55 197.334 215.66 196.377C214.77 195.412 213.548 194.929 211.995 194.929C210.925 194.929 209.968 195.161 209.126 195.625C208.292 196.089 207.634 196.766 207.151 197.656C206.668 198.546 206.427 199.626 206.427 200.895ZM239.425 200.895V214.02H236.073V184.929H239.425V195.61H239.709C240.221 194.484 240.988 193.589 242.01 192.926C243.043 192.253 244.416 191.917 246.13 191.917C247.616 191.917 248.919 192.216 250.036 192.812C251.153 193.399 252.02 194.304 252.635 195.525C253.26 196.737 253.573 198.281 253.573 200.156V214.02H250.221V200.383C250.221 198.65 249.771 197.31 248.871 196.363C247.981 195.407 246.745 194.929 245.164 194.929C244.065 194.929 243.08 195.161 242.209 195.625C241.347 196.089 240.666 196.766 240.164 197.656C239.671 198.546 239.425 199.626 239.425 200.895ZM269.306 192.201H272.658V215.61C272.658 216.955 272.426 218.12 271.962 219.105C271.507 220.09 270.816 220.852 269.888 221.392C268.969 221.931 267.809 222.201 266.408 222.201C266.294 222.201 266.181 222.201 266.067 222.201C265.953 222.201 265.84 222.201 265.726 222.201V219.076C265.84 219.076 265.944 219.076 266.039 219.076C266.133 219.076 266.237 219.076 266.351 219.076C267.374 219.076 268.122 218.773 268.595 218.167C269.069 217.571 269.306 216.718 269.306 215.61V192.201ZM270.953 188.565C270.3 188.565 269.737 188.342 269.263 187.897C268.799 187.452 268.567 186.917 268.567 186.292C268.567 185.667 268.799 185.132 269.263 184.687C269.737 184.242 270.3 184.02 270.953 184.02C271.607 184.02 272.166 184.242 272.63 184.687C273.103 185.132 273.34 185.667 273.34 186.292C273.34 186.917 273.103 187.452 272.63 187.897C272.166 188.342 271.607 188.565 270.953 188.565ZM297.546 214.474C295.443 214.474 293.63 214.01 292.105 213.082C290.59 212.145 289.421 210.838 288.597 209.162C287.782 207.476 287.375 205.516 287.375 203.281C287.375 201.046 287.782 199.076 288.597 197.372C289.421 195.658 290.566 194.323 292.034 193.366C293.511 192.4 295.235 191.917 297.205 191.917C298.341 191.917 299.463 192.107 300.571 192.485C301.679 192.864 302.688 193.48 303.597 194.332C304.506 195.175 305.23 196.292 305.77 197.684C306.31 199.076 306.58 200.79 306.58 202.826V204.247H289.761V201.349H303.171C303.171 200.118 302.924 199.02 302.432 198.054C301.949 197.088 301.258 196.325 300.358 195.767C299.468 195.208 298.417 194.929 297.205 194.929C295.869 194.929 294.714 195.26 293.739 195.923C292.773 196.576 292.029 197.429 291.509 198.48C290.988 199.531 290.727 200.658 290.727 201.86V203.792C290.727 205.44 291.011 206.837 291.58 207.983C292.157 209.119 292.958 209.985 293.98 210.582C295.003 211.169 296.191 211.463 297.546 211.463C298.426 211.463 299.222 211.34 299.932 211.093C300.652 210.838 301.272 210.459 301.793 209.957C302.314 209.446 302.716 208.811 303 208.054L306.239 208.963C305.898 210.061 305.325 211.027 304.52 211.86C303.715 212.684 302.721 213.328 301.537 213.792C300.353 214.247 299.023 214.474 297.546 214.474ZM321.279 214.02V192.201H324.518V195.61H324.802C325.256 194.446 325.99 193.541 327.004 192.897C328.017 192.244 329.234 191.917 330.654 191.917C332.094 191.917 333.291 192.244 334.248 192.897C335.214 193.541 335.967 194.446 336.506 195.61H336.734C337.292 194.484 338.13 193.589 339.248 192.926C340.365 192.253 341.705 191.917 343.268 191.917C345.219 191.917 346.814 192.528 348.055 193.75C349.295 194.962 349.915 196.851 349.915 199.417V214.02H346.563V199.417C346.563 197.807 346.123 196.657 345.242 195.966C344.362 195.274 343.325 194.929 342.131 194.929C340.597 194.929 339.409 195.393 338.566 196.321C337.723 197.239 337.302 198.404 337.302 199.815V214.02H333.893V199.076C333.893 197.836 333.49 196.837 332.685 196.079C331.88 195.312 330.844 194.929 329.575 194.929C328.703 194.929 327.889 195.161 327.131 195.625C326.383 196.089 325.777 196.733 325.313 197.556C324.859 198.371 324.631 199.313 324.631 200.383V214.02H321.279Z" fill="black"/>
<g filter="url(#filter11_i_383_812)">
<path d="M15.7045 248.02H9.51705V230.565H15.7557C17.5114 230.565 19.0227 230.914 20.2898 231.613C21.5568 232.306 22.5313 233.304 23.2131 234.605C23.9006 235.906 24.2443 237.463 24.2443 239.275C24.2443 241.093 23.9006 242.656 23.2131 243.963C22.5313 245.27 21.5511 246.272 20.2727 246.971C19 247.67 17.4773 248.02 15.7045 248.02ZM13.2074 244.858H15.5511C16.642 244.858 17.5597 244.664 18.304 244.278C19.054 243.886 19.6165 243.281 19.9915 242.463C20.3722 241.639 20.5625 240.576 20.5625 239.275C20.5625 237.985 20.3722 236.931 19.9915 236.113C19.6165 235.295 19.0568 234.693 18.3125 234.306C17.5682 233.92 16.6506 233.727 15.5597 233.727H13.2074V244.858ZM35.858 248.02V230.565H47.6193V233.608H39.5483V237.767H47.0142V240.809H39.5483V244.977H47.6534V248.02H35.858ZM62.5867 230.565L66.8055 243.826H66.9674L71.1947 230.565H75.2856L69.2685 248.02H64.5128L58.4873 230.565H62.5867ZM86.2664 248.02V230.565H98.0278V233.608H89.9568V237.767H97.4227V240.809H89.9568V244.977H98.0619V248.02H86.2664ZM109.842 248.02V230.565H113.532V244.977H121.015V248.02H109.842ZM147.699 239.292C147.699 241.196 147.338 242.815 146.617 244.15C145.901 245.485 144.923 246.505 143.685 247.21C142.452 247.909 141.065 248.258 139.526 248.258C137.975 248.258 136.583 247.906 135.35 247.201C134.117 246.497 133.142 245.477 132.426 244.142C131.71 242.806 131.352 241.19 131.352 239.292C131.352 237.389 131.71 235.77 132.426 234.434C133.142 233.099 134.117 232.082 135.35 231.383C136.583 230.679 137.975 230.326 139.526 230.326C141.065 230.326 142.452 230.679 143.685 231.383C144.923 232.082 145.901 233.099 146.617 234.434C147.338 235.77 147.699 237.389 147.699 239.292ZM143.958 239.292C143.958 238.059 143.773 237.02 143.404 236.173C143.04 235.326 142.526 234.684 141.861 234.247C141.196 233.809 140.418 233.591 139.526 233.591C138.634 233.591 137.855 233.809 137.19 234.247C136.526 234.684 136.009 235.326 135.639 236.173C135.276 237.02 135.094 238.059 135.094 239.292C135.094 240.525 135.276 241.565 135.639 242.412C136.009 243.258 136.526 243.9 137.19 244.338C137.855 244.775 138.634 244.994 139.526 244.994C140.418 244.994 141.196 244.775 141.861 244.338C142.526 243.9 143.04 243.258 143.404 242.412C143.773 241.565 143.958 240.525 143.958 239.292ZM159.313 248.02V230.565H166.199C167.523 230.565 168.651 230.818 169.583 231.324C170.514 231.824 171.225 232.52 171.713 233.412C172.208 234.298 172.455 235.321 172.455 236.48C172.455 237.639 172.205 238.662 171.705 239.548C171.205 240.434 170.48 241.125 169.531 241.619C168.588 242.113 167.446 242.36 166.105 242.36H161.716V239.403H165.509C166.219 239.403 166.804 239.281 167.264 239.037C167.73 238.787 168.077 238.443 168.304 238.005C168.537 237.562 168.654 237.054 168.654 236.48C168.654 235.9 168.537 235.395 168.304 234.963C168.077 234.525 167.73 234.187 167.264 233.949C166.798 233.704 166.208 233.582 165.492 233.582H163.003V248.02H159.313ZM183.732 248.02V230.565H195.493V233.608H187.422V237.767H194.888V240.809H187.422V244.977H195.527V248.02H183.732ZM207.307 248.02V230.565H214.193C215.512 230.565 216.637 230.801 217.568 231.272C218.506 231.738 219.219 232.4 219.708 233.258C220.202 234.11 220.449 235.113 220.449 236.267C220.449 237.426 220.199 238.423 219.699 239.258C219.199 240.088 218.475 240.724 217.526 241.167C216.583 241.61 215.441 241.832 214.1 241.832H209.489V238.866H213.503C214.208 238.866 214.793 238.77 215.259 238.576C215.725 238.383 216.071 238.093 216.299 237.707C216.531 237.321 216.648 236.841 216.648 236.267C216.648 235.687 216.531 235.199 216.299 234.801C216.071 234.403 215.722 234.102 215.25 233.897C214.784 233.687 214.196 233.582 213.486 233.582H210.997V248.02H207.307ZM216.733 240.076L221.071 248.02H216.997L212.753 240.076H216.733Z" fill="#D40000"/>
</g>
<line y1="168.52" x2="568" y2="168.52" stroke="#D40000"/>
<defs>
<filter id="filter0_d_383_812" x="671.547" y="58.1296" width="58.4117" height="162.036" filterUnits="userSpaceOnUse" color-interpolation-filters="sRGB">
<feFlood flood-opacity="0" result="BackgroundImageFix"/>
<feColorMatrix in="SourceAlpha" type="matrix" values="0 0 0 0 0 0 0 0 0 0 0 0 0 0 0 0 0 0 127 0" result="hardAlpha"/>
<feOffset dx="5" dy="4"/>
<feGaussianBlur stdDeviation="2.1"/>
<feComposite in2="hardAlpha" operator="out"/>
<feColorMatrix type="matrix" values="0 0 0 0 0 0 0 0 0 0 0 0 0 0 0 0 0 0 0.25 0"/>
<feBlend mode="normal" in2="BackgroundImageFix" result="effect1_dropShadow_383_812"/>
<feBlend mode="normal" in="SourceGraphic" in2="effect1_dropShadow_383_812" result="shape"/>
</filter>
<filter id="filter1_i_383_812" x="519.419" y="0.128906" width="276.058" height="280.058" filterUnits="userSpaceOnUse" color-interpolation-filters="sRGB">
<feFlood flood-opacity="0" result="BackgroundImageFix"/>
<feBlend mode="normal" in="SourceGraphic" in2="BackgroundImageFix" result="shape"/>
<feColorMatrix in="SourceAlpha" type="matrix" values="0 0 0 0 0 0 0 0 0 0 0 0 0 0 0 0 0 0 127 0" result="hardAlpha"/>
<feOffset dy="4"/>
<feGaussianBlur stdDeviation="2"/>
<feComposite in2="hardAlpha" operator="arithmetic" k2="-1" k3="1"/>
<feColorMatrix type="matrix" values="0 0 0 0 0 0 0 0 0 0 0 0 0 0 0 0 0 0 0.25 0"/>
<feBlend mode="normal" in2="shape" result="effect1_innerShadow_383_812"/>
</filter>
<filter id="filter2_i_383_812" x="579" y="59.3708" width="137.962" height="215.317" filterUnits="userSpaceOnUse" color-interpolation-filters="sRGB">
<feFlood flood-opacity="0" result="BackgroundImageFix"/>
<feBlend mode="normal" in="SourceGraphic" in2="BackgroundImageFix" result="shape"/>
<feColorMatrix in="SourceAlpha" type="matrix" values="0 0 0 0 0 0 0 0 0 0 0 0 0 0 0 0 0 0 127 0" result="hardAlpha"/>
<feOffset dx="4" dy="4"/>
<feGaussianBlur stdDeviation="2"/>
<feComposite in2="hardAlpha" operator="arithmetic" k2="-1" k3="1"/>
<feColorMatrix type="matrix" values="0 0 0 0 0 0 0 0 0 0 0 0 0 0 0 0 0 0 0.25 0"/>
<feBlend mode="normal" in2="shape" result="effect1_innerShadow_383_812"/>
</filter>
<filter id="filter3_i_383_812" x="686.587" y="30.5125" width="40.9374" height="43.8306" filterUnits="userSpaceOnUse" color-interpolation-filters="sRGB">
<feFlood flood-opacity="0" result="BackgroundImageFix"/>
<feBlend mode="normal" in="SourceGraphic" in2="BackgroundImageFix" result="shape"/>
<feColorMatrix in="SourceAlpha" type="matrix" values="0 0 0 0 0 0 0 0 0 0 0 0 0 0 0 0 0 0 127 0" result="hardAlpha"/>
<feOffset dy="4"/>
<feGaussianBlur stdDeviation="2"/>
<feComposite in2="hardAlpha" operator="arithmetic" k2="-1" k3="1"/>
<feColorMatrix type="matrix" values="0 0 0 0 0 0 0 0 0 0 0 0 0 0 0 0 0 0 0.25 0"/>
<feBlend mode="normal" in2="shape" result="effect1_innerShadow_383_812"/>
</filter>
<filter id="filter4_i_383_812" x="599" y="67" width="97.8647" height="171.502" filterUnits="userSpaceOnUse" color-interpolation-filters="sRGB">
<feFlood flood-opacity="0" result="BackgroundImageFix"/>
<feBlend mode="normal" in="SourceGraphic" in2="BackgroundImageFix" result="shape"/>
<feColorMatrix in="SourceAlpha" type="matrix" values="0 0 0 0 0 0 0 0 0 0 0 0 0 0 0 0 0 0 127 0" result="hardAlpha"/>
<feOffset dy="4"/>
<feGaussianBlur stdDeviation="2"/>
<feComposite in2="hardAlpha" operator="arithmetic" k2="-1" k3="1"/>
<feColorMatrix type="matrix" values="0 0 0 0 0 0 0 0 0 0 0 0 0 0 0 0 0 0 0.25 0"/>
<feBlend mode="normal" in2="shape" result="effect1_innerShadow_383_812"/>
</filter>
<filter id="filter5_i_383_812" x="587.024" y="225.148" width="12.5791" height="13.8518" filterUnits="userSpaceOnUse" color-interpolation-filters="sRGB">
<feFlood flood-opacity="0" result="BackgroundImageFix"/>
<feBlend mode="normal" in="SourceGraphic" in2="BackgroundImageFix" result="shape"/>
<feColorMatrix in="SourceAlpha" type="matrix" values="0 0 0 0 0 0 0 0 0 0 0 0 0 0 0 0 0 0 127 0" result="hardAlpha"/>
<feOffset dy="4"/>
<feGaussianBlur stdDeviation="2"/>
<feComposite in2="hardAlpha" operator="arithmetic" k2="-1" k3="1"/>
<feColorMatrix type="matrix" values="0 0 0 0 0 0 0 0 0 0 0 0 0 0 0 0 0 0 0.25 0"/>
<feBlend mode="normal" in2="shape" result="effect1_innerShadow_383_812"/>
</filter>
<filter id="filter6_i_383_812" x="598.643" y="234" width="19.2537" height="12.1602" filterUnits="userSpaceOnUse" color-interpolation-filters="sRGB">
<feFlood flood-opacity="0" result="BackgroundImageFix"/>
<feBlend mode="normal" in="SourceGraphic" in2="BackgroundImageFix" result="shape"/>
<feColorMatrix in="SourceAlpha" type="matrix" values="0 0 0 0 0 0 0 0 0 0 0 0 0 0 0 0 0 0 127 0" result="hardAlpha"/>
<feOffset dy="4"/>
<feGaussianBlur stdDeviation="2"/>
<feComposite in2="hardAlpha" operator="arithmetic" k2="-1" k3="1"/>
<feColorMatrix type="matrix" values="0 0 0 0 0 0 0 0 0 0 0 0 0 0 0 0 0 0 0.25 0"/>
<feBlend mode="normal" in2="shape" result="effect1_innerShadow_383_812"/>
</filter>
<filter id="filter7_i_383_812" x="586.792" y="235.5" width="23.9169" height="23.4008" filterUnits="userSpaceOnUse" color-interpolation-filters="sRGB">
<feFlood flood-opacity="0" result="BackgroundImageFix"/>
<feBlend mode="normal" in="SourceGraphic" in2="BackgroundImageFix" result="shape"/>
<feColorMatrix in="SourceAlpha" type="matrix" values="0 0 0 0 0 0 0 0 0 0 0 0 0 0 0 0 0 0 127 0" result="hardAlpha"/>
<feOffset dx="3" dy="3"/>
<feGaussianBlur stdDeviation="1.05"/>
<feComposite in2="hardAlpha" operator="arithmetic" k2="-1" k3="1"/>
<feColorMatrix type="matrix" values="0 0 0 0 0 0 0 0 0 0 0 0 0 0 0 0 0 0 0.45 0"/>
<feBlend mode="normal" in2="shape" result="effect1_innerShadow_383_812"/>
</filter>
<filter id="filter8_i_383_812" x="579.087" y="260.61" width="8.86313" height="9.88403" filterUnits="userSpaceOnUse" color-interpolation-filters="sRGB">
<feFlood flood-opacity="0" result="BackgroundImageFix"/>
<feBlend mode="normal" in="SourceGraphic" in2="BackgroundImageFix" result="shape"/>
<feColorMatrix in="SourceAlpha" type="matrix" values="0 0 0 0 0 0 0 0 0 0 0 0 0 0 0 0 0 0 127 0" result="hardAlpha"/>
<feOffset dx="160" dy="47"/>
<feGaussianBlur stdDeviation="5.65"/>
<feComposite in2="hardAlpha" operator="arithmetic" k2="-1" k3="1"/>
<feColorMatrix type="matrix" values="0 0 0 0 0 0 0 0 0 0 0 0 0 0 0 0 0 0 0.45 0"/>
<feBlend mode="normal" in2="shape" result="effect1_innerShadow_383_812"/>
</filter>
<filter id="filter9_d_383_812" x="585.241" y="58.1296" width="58.4116" height="162.036" filterUnits="userSpaceOnUse" color-interpolation-filters="sRGB">
<feFlood flood-opacity="0" result="BackgroundImageFix"/>
<feColorMatrix in="SourceAlpha" type="matrix" values="0 0 0 0 0 0 0 0 0 0 0 0 0 0 0 0 0 0 127 0" result="hardAlpha"/>
<feOffset dx="5" dy="4"/>
<feGaussianBlur stdDeviation="2.1"/>
<feComposite in2="hardAlpha" operator="out"/>
<feColorMatrix type="matrix" values="0 0 0 0 0 0 0 0 0 0 0 0 0 0 0 0 0 0 0.25 0"/>
<feBlend mode="normal" in2="BackgroundImageFix" result="effect1_dropShadow_383_812"/>
<feBlend mode="normal" in="SourceGraphic" in2="effect1_dropShadow_383_812" result="shape"/>
</filter>
<filter id="filter10_i_383_812" x="4.5" y="76.2014" width="563.988" height="74.6362" filterUnits="userSpaceOnUse" color-interpolation-filters="sRGB">
<feFlood flood-opacity="0" result="BackgroundImageFix"/>
<feBlend mode="normal" in="SourceGraphic" in2="BackgroundImageFix" result="shape"/>
<feColorMatrix in="SourceAlpha" type="matrix" values="0 0 0 0 0 0 0 0 0 0 0 0 0 0 0 0 0 0 127 0" result="hardAlpha"/>
<feOffset dx="3" dy="4"/>
<feGaussianBlur stdDeviation="2"/>
<feComposite in2="hardAlpha" operator="arithmetic" k2="-1" k3="1"/>
<feColorMatrix type="matrix" values="0 0 0 0 0 0 0 0 0 0 0 0 0 0 0 0 0 0 0.25 0"/>
<feBlend mode="normal" in2="shape" result="effect1_innerShadow_383_812"/>
</filter>
<filter id="filter11_i_383_812" x="9.51704" y="230.326" width="211.554" height="21.9316" filterUnits="userSpaceOnUse" color-interpolation-filters="sRGB">
<feFlood flood-opacity="0" result="BackgroundImageFix"/>
<feBlend mode="normal" in="SourceGraphic" in2="BackgroundImageFix" result="shape"/>
<feColorMatrix in="SourceAlpha" type="matrix" values="0 0 0 0 0 0 0 0 0 0 0 0 0 0 0 0 0 0 127 0" result="hardAlpha"/>
<feOffset dy="4"/>
<feGaussianBlur stdDeviation="2"/>
<feComposite in2="hardAlpha" operator="arithmetic" k2="-1" k3="1"/>
<feColorMatrix type="matrix" values="0 0 0 0 0 0 0 0 0 0 0 0 0 0 0 0 0 0 0.25 0"/>
<feBlend mode="normal" in2="shape" result="effect1_innerShadow_383_812"/>
</filter>
<clipPath id="clip0_383_812">
<rect width="225.4" height="225.4" fill="white" transform="translate(519.419 58.4668) rotate(-15)"/>
</clipPath>
</defs>
</svg>
